<svg id="svg" version="1.1" xmlns="http://www.w3.org/2000/svg" xmlns:xlink="http://www.w3.org/1999/xlink" width="400" height="400" viewBox="0, 0, 400,400"><g id="svgg"><path id="path0" d="M147.443 112.233 C 147.046 113.268,147.167 126.262,147.585 127.359 L 147.969 128.371 162.171 128.485 C 175.180 128.590,176.432 128.660,177.086 129.314 C 177.766 129.994,177.805 133.773,177.905 207.879 C 177.981 264.195,178.133 285.878,178.454 286.265 C 178.993 286.915,198.499 287.047,200.169 286.412 L 201.190 286.024 201.295 208.026 C 201.395 133.795,201.434 129.994,202.113 129.314 C 202.761 128.666,204.054 128.582,216.181 128.400 C 223.525 128.290,229.684 128.050,229.867 127.867 C 230.050 127.684,230.262 124.131,230.337 119.971 L 230.475 112.409 229.411 112.004 C 227.416 111.246,147.736 111.468,147.443 112.233 M240.873 111.946 C 240.171 112.392,240.635 116.803,241.615 119.001 C 242.008 119.882,242.525 122.004,242.763 123.718 C 243.002 125.431,243.468 127.358,243.800 128.000 C 244.132 128.642,244.592 130.519,244.821 132.172 C 245.051 133.825,245.508 136.128,245.836 137.289 C 246.164 138.450,246.676 141.113,246.973 143.206 C 247.271 145.299,247.879 147.729,248.324 148.606 C 248.769 149.483,249.251 151.190,249.396 152.400 C 249.541 153.610,249.993 155.860,250.400 157.400 C 250.807 158.940,251.345 161.804,251.594 163.766 C 251.843 165.727,252.324 167.867,252.663 168.522 C 253.002 169.177,253.521 171.206,253.816 173.031 C 254.112 174.856,254.623 176.871,254.953 177.509 C 255.283 178.147,255.747 180.273,255.984 182.234 C 256.221 184.196,256.760 187.060,257.181 188.600 C 257.603 190.140,258.147 192.633,258.391 194.141 C 258.635 195.648,259.096 197.281,259.416 197.769 C 259.736 198.257,260.191 200.174,260.428 202.028 C 260.665 203.883,261.188 206.390,261.590 207.600 C 261.992 208.810,262.445 211.240,262.597 213.000 C 262.755 214.835,263.197 216.842,263.633 217.705 C 264.050 218.532,264.500 219.972,264.633 220.905 C 264.765 221.837,265.306 224.240,265.834 226.245 C 266.363 228.250,266.967 231.553,267.177 233.585 C 267.401 235.742,267.832 237.695,268.215 238.280 C 268.576 238.830,269.114 240.895,269.410 242.869 C 269.707 244.842,270.134 246.680,270.360 246.952 C 270.586 247.225,271.062 249.237,271.418 251.424 C 271.774 253.611,272.397 256.660,272.803 258.200 C 273.210 259.740,273.658 262.080,273.799 263.400 C 273.941 264.720,274.405 266.482,274.830 267.316 C 275.256 268.150,275.857 270.490,276.165 272.516 C 276.474 274.542,276.922 276.705,277.162 277.322 C 277.401 277.940,277.782 280.100,278.008 282.122 C 278.563 287.092,277.850 286.800,289.427 286.800 C 300.101 286.800,299.454 286.964,300.493 284.000 C 301.318 281.646,301.475 280.881,301.997 276.645 C 302.239 274.690,302.685 272.610,302.988 272.022 C 303.292 271.435,303.748 269.435,304.002 267.577 C 304.255 265.720,304.794 263.660,305.200 263.000 C 305.665 262.242,306.099 260.326,306.376 257.800 C 306.617 255.600,307.074 252.990,307.391 252.000 C 307.708 251.010,308.234 248.635,308.559 246.723 C 308.885 244.810,309.423 242.830,309.754 242.323 C 310.085 241.815,310.554 239.800,310.796 237.843 C 311.038 235.887,311.484 233.695,311.786 232.973 C 312.088 232.250,312.552 229.890,312.818 227.729 C 313.083 225.568,313.562 223.170,313.882 222.400 C 314.202 221.630,314.800 219.380,315.211 217.400 C 315.622 215.420,316.218 212.990,316.537 212.000 C 316.856 211.010,317.316 208.434,317.560 206.276 C 317.804 204.118,318.254 201.868,318.560 201.276 C 318.866 200.684,319.331 198.779,319.594 197.043 C 319.857 195.307,320.439 193.182,320.888 192.321 C 321.386 191.366,321.841 189.399,322.055 187.278 C 322.247 185.365,322.660 182.900,322.972 181.800 C 323.284 180.700,323.746 178.360,323.998 176.600 C 324.251 174.840,324.794 172.740,325.205 171.933 C 325.616 171.126,326.156 168.984,326.404 167.173 C 326.652 165.362,327.094 163.232,327.386 162.440 C 327.679 161.648,328.132 159.380,328.393 157.400 C 328.654 155.420,329.207 152.805,329.623 151.590 C 330.038 150.374,330.557 148.124,330.777 146.590 C 330.996 145.055,331.515 143.137,331.931 142.328 C 332.391 141.430,332.795 139.504,332.966 137.393 C 333.121 135.489,333.580 132.822,333.986 131.466 C 334.393 130.109,334.929 127.778,335.177 126.285 C 335.425 124.791,335.966 122.901,336.379 122.085 C 337.409 120.047,338.275 112.421,337.530 111.948 C 336.922 111.563,319.598 111.472,318.616 111.849 C 317.482 112.284,316.497 114.889,316.038 118.662 C 315.794 120.672,315.334 122.939,315.016 123.700 C 314.699 124.460,314.156 127.379,313.810 130.186 C 313.464 132.992,313.000 135.627,312.779 136.039 C 312.558 136.452,312.034 138.695,311.614 141.023 C 311.194 143.352,310.639 145.512,310.381 145.823 C 310.123 146.133,309.652 148.758,309.335 151.655 C 309.017 154.552,308.516 157.390,308.220 157.961 C 307.925 158.532,307.481 160.667,307.233 162.704 C 306.972 164.848,306.441 167.065,305.971 167.966 C 305.480 168.908,305.014 170.921,304.791 173.061 C 304.588 175.008,304.165 177.500,303.850 178.600 C 303.535 179.700,303.068 182.400,302.811 184.600 C 302.549 186.844,302.015 189.244,301.595 190.067 C 301.184 190.874,300.736 192.674,300.599 194.067 C 300.463 195.460,300.011 197.770,299.594 199.200 C 299.177 200.630,298.560 203.916,298.222 206.502 C 297.885 209.088,297.353 211.816,297.040 212.565 C 296.728 213.314,296.347 215.158,296.194 216.663 C 296.042 218.168,295.502 220.390,294.995 221.600 C 294.397 223.029,293.918 225.359,293.631 228.247 C 293.387 230.693,292.935 233.483,292.627 234.447 C 292.319 235.411,291.964 236.672,291.838 237.249 C 291.021 241.006,289.401 240.565,288.553 236.354 C 288.226 234.729,287.704 232.846,287.393 232.168 C 287.082 231.491,286.561 228.791,286.235 226.168 C 285.909 223.546,285.378 220.860,285.054 220.200 C 284.730 219.540,284.281 217.470,284.056 215.600 C 283.831 213.730,283.352 211.614,282.993 210.898 C 282.633 210.181,282.170 208.381,281.963 206.898 C 281.757 205.414,281.242 202.850,280.818 201.200 C 280.395 199.550,279.928 196.760,279.781 195.000 C 279.612 192.978,279.170 191.054,278.580 189.775 C 278.067 188.661,277.532 186.771,277.391 185.575 C 277.250 184.379,276.801 182.230,276.392 180.800 C 275.983 179.370,275.439 176.490,275.183 174.400 C 274.927 172.310,274.397 169.700,274.006 168.600 C 273.615 167.500,273.168 165.430,273.014 164.000 C 272.859 162.570,272.393 160.728,271.977 159.907 C 271.561 159.087,271.019 156.747,270.773 154.707 C 270.527 152.668,269.998 149.740,269.597 148.200 C 269.195 146.660,268.747 144.320,268.600 143.000 C 268.452 141.680,267.984 139.805,267.559 138.834 C 267.135 137.863,266.605 135.793,266.383 134.234 C 266.162 132.675,265.630 130.140,265.202 128.600 C 264.773 127.060,264.251 124.058,264.040 121.930 C 263.826 119.759,263.390 117.651,263.049 117.130 C 262.714 116.618,262.317 115.390,262.166 114.400 C 262.014 113.410,261.713 112.375,261.496 112.100 C 261.037 111.518,241.776 111.374,240.873 111.946 M87.879 161.582 C 86.382 161.985,84.382 162.432,83.434 162.574 C 82.487 162.716,81.112 163.275,80.378 163.816 C 79.645 164.357,78.855 164.805,78.622 164.811 C 78.390 164.817,77.493 165.357,76.629 166.011 C 75.765 166.665,74.826 167.200,74.543 167.200 C 74.260 167.200,73.854 167.526,73.641 167.924 C 73.428 168.321,72.434 169.536,71.431 170.624 C 70.429 171.711,69.607 172.721,69.604 172.869 C 69.602 173.017,69.170 173.650,68.643 174.276 C 68.117 174.901,67.414 176.310,67.080 177.406 C 66.746 178.503,66.184 179.962,65.832 180.650 C 65.480 181.337,64.999 182.941,64.764 184.213 C 64.529 185.485,64.060 186.946,63.723 187.461 C 61.553 190.774,61.556 258.705,63.727 262.038 C 64.071 262.567,64.622 264.293,64.949 265.872 C 65.277 267.452,65.807 269.162,66.128 269.672 C 66.448 270.183,66.928 271.545,67.195 272.700 C 67.462 273.855,67.840 274.800,68.035 274.800 C 68.230 274.800,68.856 275.538,69.425 276.439 C 69.994 277.341,71.481 279.078,72.730 280.299 C 76.022 283.520,76.582 284.000,77.039 284.000 C 77.264 284.000,77.857 284.380,78.355 284.844 C 78.870 285.324,80.843 286.103,82.931 286.650 C 84.949 287.179,87.230 287.799,88.000 288.028 C 92.093 289.245,108.362 288.803,110.546 287.416 C 111.016 287.117,112.480 286.659,113.800 286.396 C 115.120 286.134,116.560 285.612,117.000 285.236 C 117.440 284.860,118.289 284.345,118.887 284.091 C 120.877 283.245,125.104 279.156,126.424 276.800 C 126.855 276.030,127.378 275.130,127.584 274.800 C 128.538 273.278,130.398 268.792,130.777 267.103 C 131.008 266.074,131.551 264.550,131.984 263.716 C 133.001 261.759,133.693 246.476,132.813 245.415 C 132.211 244.690,114.860 244.493,113.026 245.190 L 112.000 245.580 112.000 251.101 C 112.000 257.843,111.398 262.977,110.419 264.592 C 110.016 265.256,109.565 266.376,109.416 267.080 C 108.272 272.490,99.998 274.551,91.565 271.528 C 89.618 270.830,86.834 267.640,86.166 265.342 C 85.827 264.176,85.246 262.632,84.875 261.911 C 83.908 260.033,83.607 226.272,84.545 225.000 C 85.121 224.219,85.718 224.195,109.068 224.000 L 133.000 223.800 133.109 213.000 C 133.240 199.996,132.753 190.244,131.890 188.572 C 131.557 187.928,131.068 185.960,130.805 184.200 C 130.541 182.440,130.093 180.730,129.809 180.400 C 129.525 180.070,128.998 178.766,128.636 177.502 C 127.775 174.492,126.062 171.877,122.584 168.263 C 121.088 166.709,118.719 164.817,118.258 164.807 C 118.070 164.803,117.381 164.350,116.727 163.800 C 116.073 163.250,115.237 162.800,114.868 162.800 C 114.500 162.800,112.399 162.352,110.199 161.805 C 104.919 160.491,92.390 160.366,87.879 161.582 M102.527 176.832 C 106.149 177.757,108.885 180.032,109.433 182.574 C 109.579 183.249,110.037 184.470,110.451 185.288 C 111.509 187.378,111.985 192.761,111.993 202.726 C 112.000 211.065,111.815 212.509,110.640 213.294 C 109.616 213.978,85.333 213.642,84.749 212.936 C 83.838 211.834,84.019 190.415,84.960 188.000 C 85.346 187.010,85.829 185.399,86.033 184.421 C 86.386 182.734,87.889 180.009,88.469 180.003 C 88.617 180.001,89.288 179.450,89.960 178.778 C 92.414 176.325,97.471 175.541,102.527 176.832 " stroke="none" fill="#5491f4" fill-rule="evenodd"></path><path id="path1" d="M22.400 0.600 C 22.400 0.968,22.026 1.200,21.433 1.200 C 19.941 1.200,19.200 1.613,19.200 2.443 C 19.200 2.885,18.921 3.200,18.528 3.200 C 17.260 3.200,15.203 4.160,14.983 4.855 C 14.861 5.239,14.278 5.606,13.681 5.675 C 12.837 5.773,12.572 6.041,12.473 6.900 C 12.367 7.821,12.156 8.000,11.173 8.000 C 10.197 8.000,10.000 8.164,10.000 8.972 C 10.000 9.676,9.751 9.980,9.100 10.072 C 8.461 10.163,8.164 10.513,8.076 11.276 C 7.980 12.107,7.707 12.380,6.876 12.476 C 6.043 12.572,5.772 12.844,5.675 13.681 C 5.606 14.278,5.239 14.861,4.855 14.983 C 4.160 15.203,3.200 17.260,3.200 18.528 C 3.200 18.921,2.885 19.200,2.443 19.200 C 1.613 19.200,1.200 19.941,1.200 21.433 C 1.200 22.026,0.968 22.400,0.600 22.400 C 0.068 22.400,0.000 42.400,0.000 200.000 C 0.000 357.600,0.068 377.600,0.600 377.600 C 0.968 377.600,1.200 377.974,1.200 378.567 C 1.200 380.059,1.613 380.800,2.443 380.800 C 2.885 380.800,3.200 381.079,3.200 381.472 C 3.200 382.740,4.160 384.797,4.855 385.017 C 5.239 385.139,5.606 385.722,5.675 386.319 C 5.773 387.163,6.041 387.428,6.900 387.527 C 7.821 387.633,8.000 387.844,8.000 388.827 C 8.000 389.812,8.161 390.000,9.000 390.000 C 9.747 390.000,10.000 390.211,10.000 390.835 C 10.000 391.392,10.393 391.818,11.183 392.116 C 11.877 392.378,12.414 392.901,12.483 393.381 C 12.562 393.936,12.949 394.240,13.681 394.325 C 14.278 394.394,14.861 394.761,14.983 395.145 C 15.203 395.840,17.260 396.800,18.528 396.800 C 18.921 396.800,19.200 397.115,19.200 397.557 C 19.200 398.387,19.941 398.800,21.433 398.800 C 22.026 398.800,22.400 399.032,22.400 399.400 C 22.400 399.932,42.400 400.000,200.000 400.000 C 357.600 400.000,377.600 399.932,377.600 399.400 C 377.600 399.032,377.974 398.800,378.567 398.800 C 380.059 398.800,380.800 398.387,380.800 397.557 C 380.800 397.115,381.079 396.800,381.472 396.800 C 382.740 396.800,384.797 395.840,385.017 395.145 C 385.139 394.761,385.722 394.394,386.319 394.325 C 387.051 394.240,387.438 393.936,387.517 393.381 C 387.586 392.901,388.123 392.378,388.817 392.116 C 389.607 391.818,390.000 391.392,390.000 390.835 C 390.000 390.218,390.253 390.000,390.968 390.000 C 391.714 390.000,391.996 389.730,392.195 388.824 C 392.371 388.023,392.731 387.609,393.326 387.524 C 393.938 387.437,394.237 387.076,394.325 386.319 C 394.394 385.722,394.761 385.139,395.145 385.017 C 395.840 384.797,396.800 382.740,396.800 381.472 C 396.800 381.079,397.115 380.800,397.557 380.800 C 398.387 380.800,398.800 380.059,398.800 378.567 C 398.800 377.974,399.032 377.600,399.400 377.600 C 399.932 377.600,400.000 357.600,400.000 200.000 C 400.000 42.400,399.932 22.400,399.400 22.400 C 399.032 22.400,398.800 22.026,398.800 21.433 C 398.800 19.941,398.387 19.200,397.557 19.200 C 397.115 19.200,396.800 18.921,396.800 18.528 C 396.800 17.260,395.840 15.203,395.145 14.983 C 394.761 14.861,394.394 14.278,394.325 13.681 C 394.240 12.949,393.936 12.562,393.381 12.483 C 392.901 12.414,392.378 11.877,392.116 11.183 C 391.818 10.393,391.392 10.000,390.835 10.000 C 390.211 10.000,390.000 9.747,390.000 9.000 C 390.000 8.161,389.812 8.000,388.827 8.000 C 387.844 8.000,387.633 7.821,387.527 6.900 C 387.428 6.041,387.163 5.773,386.319 5.675 C 385.722 5.606,385.139 5.239,385.017 4.855 C 384.797 4.160,382.740 3.200,381.472 3.200 C 381.079 3.200,380.800 2.885,380.800 2.443 C 380.800 1.613,380.059 1.200,378.567 1.200 C 377.974 1.200,377.600 0.968,377.600 0.600 C 377.600 0.068,357.600 0.000,200.000 0.000 C 42.400 0.000,22.400 0.068,22.400 0.600 M231.111 110.623 C 231.983 111.234,232.000 111.408,232.000 119.947 C 232.000 129.091,232.050 128.784,230.284 130.481 C 230.238 130.526,224.170 130.661,216.800 130.781 L 203.400 131.000 203.200 209.535 L 203.000 288.071 202.056 288.835 C 200.997 289.693,179.571 290.025,177.445 289.217 C 175.049 288.306,175.200 293.678,175.200 209.394 C 175.200 157.049,175.067 132.099,174.786 131.574 C 174.389 130.833,173.812 130.800,161.112 130.800 C 144.216 130.800,146.000 132.056,146.000 120.159 C 146.000 112.600,146.095 111.162,146.629 110.629 C 147.583 109.674,229.749 109.669,231.111 110.623 M261.904 110.253 C 262.442 110.397,262.915 110.922,263.070 111.548 C 263.214 112.127,263.659 113.050,264.059 113.600 C 264.466 114.160,264.992 116.009,265.254 117.800 C 265.511 119.560,265.965 121.375,266.263 121.834 C 266.854 122.742,267.568 127.443,267.588 130.553 C 267.596 131.801,267.894 132.981,268.414 133.823 C 268.923 134.646,269.369 136.371,269.602 138.419 C 269.808 140.223,270.347 142.464,270.800 143.400 C 271.253 144.336,271.790 146.561,271.994 148.344 C 272.197 150.127,272.652 152.435,273.004 153.473 C 273.357 154.511,273.808 157.212,274.007 159.475 C 274.281 162.603,274.565 163.856,275.191 164.702 C 275.744 165.451,276.135 166.862,276.382 169.008 C 276.585 170.763,277.017 172.740,277.343 173.400 C 277.959 174.650,278.797 180.504,278.799 183.574 C 278.800 184.828,279.048 185.612,279.644 186.247 C 280.272 186.916,280.540 187.841,280.692 189.872 C 280.814 191.498,281.198 193.099,281.641 193.835 C 282.424 195.134,283.179 199.328,283.192 202.449 C 283.196 203.466,283.548 205.086,283.973 206.049 C 284.398 207.012,284.957 209.420,285.216 211.400 C 285.481 213.432,285.950 215.299,286.292 215.685 C 286.646 216.086,287.104 217.998,287.395 220.285 C 287.669 222.438,288.180 224.851,288.530 225.648 C 288.880 226.444,289.274 228.334,289.404 229.848 C 289.887 235.456,290.092 235.707,290.599 231.303 C 290.897 228.716,291.303 226.946,291.699 226.503 C 292.044 226.116,292.441 224.720,292.580 223.400 C 293.019 219.249,293.196 218.527,294.008 217.590 C 294.625 216.880,294.800 216.094,294.801 214.039 C 294.801 211.009,295.782 204.945,296.390 204.213 C 296.615 203.940,296.914 202.296,297.053 200.559 C 297.308 197.376,298.053 194.800,298.720 194.800 C 298.918 194.800,299.196 193.168,299.338 191.174 C 299.479 189.180,299.948 186.255,300.379 184.674 C 300.811 183.093,301.421 179.857,301.735 177.483 C 302.097 174.745,302.543 172.905,302.953 172.452 C 303.324 172.042,303.600 171.048,303.600 170.123 C 303.600 167.551,304.352 164.242,305.056 163.718 C 305.563 163.341,305.781 162.043,306.062 157.723 C 306.318 153.780,306.633 151.753,307.168 150.605 C 307.580 149.722,308.031 147.783,308.170 146.296 C 308.420 143.628,308.677 142.766,309.811 140.800 C 310.129 140.250,310.394 138.810,310.402 137.600 C 310.422 134.470,311.113 130.017,311.810 128.535 C 312.137 127.839,312.514 125.859,312.647 124.135 C 312.804 122.107,313.227 120.267,313.845 118.925 C 314.449 117.613,314.800 116.112,314.800 114.844 C 314.800 110.106,315.356 109.923,329.246 110.081 C 339.127 110.194,339.696 110.241,340.260 111.000 C 341.011 112.011,340.656 115.648,339.634 117.410 C 339.248 118.076,338.812 119.780,338.664 121.196 C 338.513 122.637,337.981 124.570,337.455 125.586 C 336.707 127.031,336.468 128.282,336.278 131.739 C 336.100 134.988,335.835 136.472,335.222 137.648 C 334.763 138.527,334.247 140.615,334.048 142.387 C 333.799 144.611,333.442 145.875,332.847 146.631 C 332.205 147.447,332.000 148.271,332.000 150.029 C 332.000 152.307,331.080 157.129,330.406 158.390 C 330.217 158.741,329.875 160.732,329.644 162.814 C 329.327 165.679,329.043 166.749,328.477 167.212 C 327.906 167.679,327.663 168.619,327.448 171.202 C 327.292 173.077,326.835 175.296,326.422 176.190 C 326.002 177.099,325.471 179.716,325.202 182.200 C 324.891 185.072,324.461 187.059,323.963 187.923 C 323.543 188.650,323.196 189.910,323.190 190.723 C 323.175 192.976,322.444 195.743,321.718 196.293 C 321.219 196.670,320.983 197.931,320.708 201.693 C 320.470 204.939,320.101 207.142,319.617 208.200 C 319.215 209.080,318.775 210.970,318.639 212.400 C 318.500 213.869,317.973 215.870,317.427 217.000 C 316.779 218.343,316.388 220.011,316.238 222.078 C 316.115 223.771,315.655 226.201,315.217 227.478 C 314.778 228.755,314.241 231.398,314.022 233.352 C 313.796 235.367,313.336 237.343,312.958 237.920 C 312.592 238.479,312.159 240.153,311.996 241.640 C 311.832 243.127,311.330 245.121,310.880 246.072 C 310.351 247.186,309.965 249.078,309.792 251.400 C 309.465 255.783,308.954 258.303,308.250 259.007 C 307.959 259.298,307.601 260.856,307.454 262.468 C 307.280 264.368,306.920 265.764,306.430 266.434 C 305.883 267.182,305.507 268.912,305.073 272.684 C 304.742 275.553,304.205 278.418,303.879 279.050 C 303.552 279.683,303.153 281.618,302.991 283.352 C 302.714 286.311,302.602 286.598,301.148 288.052 L 299.600 289.600 289.626 289.600 C 278.033 289.600,277.903 289.572,277.228 286.933 C 276.956 285.870,276.383 284.249,275.954 283.331 C 275.463 282.278,275.037 280.102,274.804 277.443 C 274.596 275.076,274.154 272.684,273.796 271.993 C 273.446 271.316,272.986 269.229,272.773 267.355 C 272.515 265.090,272.123 263.588,271.602 262.874 C 271.074 262.151,270.690 260.658,270.428 258.309 C 270.214 256.389,269.854 254.474,269.629 254.054 C 269.079 253.027,268.000 246.727,268.000 244.548 C 268.000 243.586,267.826 242.800,267.614 242.800 C 266.902 242.800,266.366 241.207,266.001 238.007 C 265.802 236.260,265.355 234.397,265.008 233.868 C 264.365 232.887,263.609 227.734,263.603 224.300 C 263.601 223.255,263.449 222.400,263.264 222.400 C 262.666 222.400,261.995 220.398,261.541 217.264 C 261.298 215.579,260.840 213.904,260.525 213.541 C 259.905 212.830,259.221 208.908,259.208 205.989 C 259.204 204.993,258.960 203.823,258.666 203.389 C 257.954 202.336,257.295 199.562,257.028 196.491 C 256.888 194.871,256.523 193.592,255.998 192.883 C 255.457 192.151,255.064 190.721,254.818 188.592 C 254.616 186.837,254.163 184.717,253.812 183.881 C 253.460 183.043,253.018 180.282,252.827 177.720 C 252.563 174.187,252.331 172.993,251.856 172.727 C 251.105 172.307,250.405 169.972,250.402 167.874 C 250.401 167.035,250.045 165.505,249.610 164.474 C 248.702 162.317,248.007 158.348,248.003 155.284 C 248.001 153.776,247.762 152.846,247.174 152.050 C 246.604 151.279,246.258 149.991,246.057 147.890 C 245.858 145.800,245.534 144.590,245.025 144.027 C 244.498 143.445,244.139 142.019,243.786 139.104 C 243.513 136.847,242.991 134.050,242.626 132.889 C 242.261 131.728,241.797 129.329,241.595 127.559 C 241.377 125.643,240.914 123.826,240.451 123.070 C 239.995 122.325,239.560 120.641,239.400 119.000 C 239.249 117.460,238.769 115.440,238.332 114.511 C 237.358 112.435,237.644 111.318,239.338 110.580 C 240.651 110.009,259.950 109.730,261.904 110.253 M107.400 159.207 C 111.673 159.513,113.237 159.777,114.000 160.324 C 114.550 160.717,115.762 161.262,116.693 161.534 C 117.625 161.806,118.563 162.358,118.779 162.761 C 118.995 163.164,119.751 163.610,120.459 163.752 C 121.692 163.998,123.399 165.538,126.107 168.847 C 126.715 169.591,127.750 170.854,128.407 171.653 C 129.063 172.452,129.600 173.353,129.600 173.656 C 129.600 173.959,130.060 175.070,130.621 176.125 C 131.183 177.180,131.737 178.979,131.852 180.122 C 131.967 181.265,132.481 183.100,132.994 184.200 C 133.693 185.701,133.991 187.241,134.186 190.368 C 134.340 192.835,134.712 195.120,135.097 195.968 C 135.948 197.838,136.396 223.641,135.595 224.607 C 134.114 226.390,133.969 226.400,109.139 226.400 L 85.600 226.400 85.600 240.751 C 85.600 252.638,85.704 255.350,86.203 256.546 C 86.535 257.341,86.999 259.373,87.234 261.062 C 87.535 263.227,87.947 264.509,88.631 265.405 C 89.164 266.104,89.600 266.978,89.600 267.348 C 89.600 267.717,90.071 268.199,90.647 268.418 C 91.223 268.637,92.147 269.172,92.701 269.608 C 94.956 271.382,106.000 270.377,106.000 268.398 C 106.000 268.213,106.422 267.553,106.938 266.931 C 107.454 266.309,107.996 265.184,108.142 264.430 C 108.288 263.677,108.856 262.113,109.404 260.955 C 110.351 258.954,110.400 258.492,110.400 251.640 C 110.400 241.824,109.566 242.407,123.600 242.412 L 132.200 242.415 134.156 243.643 L 136.111 244.871 135.911 251.148 C 135.766 255.678,135.540 257.756,135.098 258.613 C 134.761 259.266,134.354 261.208,134.193 262.928 C 133.965 265.363,133.690 266.307,132.950 267.186 C 132.399 267.841,132.000 268.834,132.000 269.550 C 132.000 270.907,130.893 274.000,130.407 274.000 C 130.238 274.000,129.993 274.536,129.862 275.191 C 129.731 275.847,129.078 276.953,128.412 277.651 C 127.745 278.348,127.200 279.158,127.200 279.450 C 127.200 279.742,126.750 280.276,126.200 280.637 C 125.650 280.997,125.200 281.535,125.200 281.832 C 125.200 282.129,124.795 282.587,124.300 282.849 C 123.805 283.112,123.165 283.658,122.877 284.063 C 122.590 284.469,122.135 284.800,121.866 284.800 C 121.598 284.800,120.804 285.324,120.102 285.965 C 119.401 286.606,118.243 287.259,117.529 287.416 C 116.815 287.572,115.756 288.052,115.174 288.482 C 114.374 289.074,113.019 289.358,109.597 289.652 C 106.882 289.886,104.746 290.272,104.250 290.620 C 103.060 291.454,94.256 291.433,92.645 290.593 C 91.971 290.241,89.594 289.854,86.933 289.661 C 83.363 289.403,82.139 289.158,81.287 288.533 C 80.689 288.093,79.626 287.620,78.924 287.482 C 78.222 287.343,76.542 286.368,75.190 285.315 C 73.838 284.262,72.353 283.186,71.891 282.925 C 71.428 282.665,70.807 281.990,70.512 281.425 C 70.216 280.861,69.809 280.400,69.606 280.400 C 69.403 280.400,68.927 279.747,68.548 278.948 C 68.169 278.149,67.441 277.077,66.930 276.566 C 66.418 276.055,66.000 275.325,66.000 274.944 C 66.000 274.563,65.625 273.852,65.167 273.364 C 64.273 272.413,63.625 270.216,63.610 268.084 C 63.604 267.360,63.239 266.279,62.798 265.682 C 62.248 264.939,61.862 263.462,61.573 260.998 C 61.340 259.019,60.846 256.590,60.475 255.600 C 59.438 252.835,59.443 195.733,60.481 193.600 C 60.855 192.830,61.345 190.490,61.569 188.400 C 61.878 185.513,62.155 184.453,62.722 183.989 C 63.258 183.550,63.540 182.606,63.725 180.624 C 63.906 178.680,64.267 177.446,64.951 176.434 C 65.484 175.645,66.040 174.595,66.187 174.100 C 66.334 173.604,66.802 173.013,67.227 172.786 C 67.652 172.558,68.000 172.125,68.000 171.824 C 68.000 171.349,69.880 168.798,71.325 167.311 C 72.970 165.619,75.179 164.062,76.267 163.826 C 76.963 163.675,77.625 163.312,77.737 163.020 C 77.849 162.728,78.809 162.163,79.870 161.765 C 80.932 161.367,82.256 160.711,82.814 160.309 C 84.530 159.070,97.407 158.493,107.400 159.207 M94.479 178.679 C 93.091 178.786,92.280 179.048,92.131 179.436 C 92.005 179.763,91.385 180.298,90.752 180.625 C 90.118 180.953,89.600 181.514,89.600 181.873 C 89.600 182.231,89.166 183.093,88.636 183.788 C 87.842 184.829,87.594 185.836,87.228 189.500 C 86.983 191.946,86.517 194.702,86.191 195.624 C 85.759 196.850,85.600 199.117,85.600 204.056 L 85.600 210.812 97.900 210.706 L 110.200 210.600 110.307 201.037 C 110.407 192.189,110.356 191.361,109.629 189.966 C 109.197 189.137,108.614 187.321,108.333 185.929 C 108.032 184.438,107.531 183.185,107.111 182.877 C 106.720 182.590,106.400 182.153,106.400 181.906 C 106.400 179.556,101.226 178.155,94.479 178.679 " stroke="none" fill="#fcfcfc" fill-rule="evenodd"></path><path id="path2" d="M147.062 111.131 C 146.276 112.000,146.060 127.417,146.814 128.826 C 147.211 129.568,147.796 129.600,160.914 129.606 C 168.839 129.610,174.853 129.772,175.200 129.992 C 175.729 130.326,175.824 139.587,176.000 208.085 C 176.214 291.225,176.096 286.858,178.172 288.219 C 179.909 289.356,200.486 288.893,201.690 287.689 L 202.600 286.778 202.804 208.289 C 202.916 165.120,203.051 129.755,203.104 129.700 C 203.157 129.645,209.217 129.600,216.571 129.600 C 233.024 129.600,231.200 130.791,231.200 120.051 C 231.200 111.574,231.062 110.766,229.620 110.825 C 229.240 110.841,229.348 110.991,229.900 111.212 C 231.211 111.739,231.328 128.089,230.026 128.786 C 229.539 129.047,224.456 129.200,216.275 129.200 C 205.900 129.200,203.209 129.308,202.852 129.737 C 202.528 130.128,202.378 151.651,202.303 208.323 C 202.205 282.612,202.166 286.406,201.486 287.086 C 200.842 287.731,199.705 287.811,189.786 287.918 L 178.800 288.036 177.800 287.036 L 176.800 286.036 176.795 208.918 C 176.792 166.503,176.686 131.417,176.561 130.949 C 176.126 129.327,174.997 129.200,161.061 129.200 C 151.249 129.200,147.634 129.074,147.280 128.720 C 146.551 127.991,146.605 111.860,147.339 111.251 C 147.726 110.929,159.278 110.775,188.439 110.700 L 229.000 110.596 188.362 110.498 C 149.431 110.404,147.696 110.431,147.062 111.131 M239.986 111.131 C 238.919 111.995,239.401 118.143,240.806 121.600 C 241.208 122.590,241.627 123.670,241.737 124.000 C 241.868 124.392,241.948 124.306,241.968 123.751 C 241.986 123.284,241.654 122.114,241.231 121.151 C 240.808 120.188,240.268 117.992,240.031 116.271 C 239.225 110.418,238.465 110.799,250.929 110.806 C 261.287 110.812,261.554 110.845,262.322 112.200 C 262.702 112.871,262.778 112.890,262.788 112.323 C 262.825 110.262,242.379 109.193,239.986 111.131 M328.487 110.780 C 340.461 111.046,340.084 110.889,338.833 115.090 C 338.375 116.628,338.018 118.407,338.040 119.043 C 338.075 120.039,338.129 119.978,338.433 118.600 C 338.627 117.720,339.092 116.066,339.467 114.923 C 340.888 110.601,340.268 110.374,327.400 110.485 L 318.600 110.561 328.487 110.780 M316.615 111.584 C 316.187 112.057,315.623 113.941,315.193 116.335 C 314.801 118.517,314.287 120.664,314.050 121.106 C 313.814 121.548,313.338 124.135,312.994 126.855 C 312.649 129.575,312.111 132.463,311.798 133.273 C 311.484 134.084,311.154 135.884,311.063 137.273 C 310.973 138.663,310.977 139.260,311.073 138.600 C 311.168 137.940,311.584 136.230,311.996 134.800 C 312.408 133.370,312.958 130.400,313.219 128.200 C 313.480 126.000,314.100 122.760,314.596 121.000 C 315.093 119.240,315.628 116.734,315.787 115.432 C 316.010 113.594,316.328 112.811,317.207 111.932 C 317.829 111.309,318.110 110.800,317.831 110.800 C 317.552 110.800,317.005 111.153,316.615 111.584 M262.815 113.513 C 262.807 113.795,263.084 114.695,263.430 115.513 C 263.777 116.331,264.222 117.720,264.420 118.600 L 264.780 120.200 264.596 118.288 C 264.428 116.545,262.849 112.312,262.815 113.513 M264.834 121.296 C 264.815 121.898,265.154 123.698,265.586 125.296 C 266.019 126.893,266.567 129.800,266.805 131.757 C 267.042 133.713,267.520 135.963,267.866 136.757 C 268.212 137.550,268.635 138.740,268.807 139.400 L 269.118 140.600 269.159 139.385 C 269.182 138.716,268.841 137.465,268.402 136.604 C 267.900 135.620,267.377 133.193,266.991 130.063 C 266.654 127.326,266.258 124.894,266.112 124.658 C 265.966 124.422,265.627 123.322,265.357 122.214 C 265.016 120.810,264.858 120.532,264.834 121.296 M337.654 121.116 C 337.625 121.620,337.240 122.738,336.800 123.600 C 336.360 124.462,336.021 125.580,336.047 126.084 C 336.093 126.973,336.103 126.971,336.368 126.000 C 336.518 125.450,336.957 124.307,337.343 123.459 C 337.729 122.612,337.969 121.532,337.877 121.059 C 337.715 120.233,337.707 120.235,337.654 121.116 M242.218 126.934 C 242.326 128.218,242.667 129.756,242.975 130.352 C 243.283 130.948,243.750 133.317,244.013 135.617 C 244.276 137.918,244.762 140.430,245.093 141.200 C 245.424 141.970,245.835 143.140,246.007 143.800 C 246.257 144.764,246.326 144.823,246.359 144.102 C 246.382 143.607,246.048 142.167,245.619 140.902 C 245.189 139.636,244.641 137.070,244.401 135.200 C 244.161 133.330,243.699 130.976,243.373 129.970 C 243.048 128.963,242.611 127.343,242.402 126.370 C 242.035 124.664,242.028 124.685,242.218 126.934 M335.600 128.508 C 335.600 129.227,335.243 131.104,334.807 132.677 C 334.371 134.251,333.927 136.587,333.821 137.869 L 333.627 140.200 333.996 138.200 C 334.199 137.100,334.644 135.409,334.985 134.442 C 335.643 132.576,336.291 127.200,335.857 127.200 C 335.716 127.200,335.600 127.789,335.600 128.508 M310.446 141.114 C 310.421 141.617,310.131 142.439,309.802 142.940 C 309.474 143.442,309.119 144.740,309.015 145.826 C 308.910 146.912,308.918 147.440,309.033 147.000 C 309.147 146.560,309.607 145.180,310.056 143.934 C 310.505 142.688,310.787 141.338,310.682 140.934 C 310.531 140.348,310.483 140.384,310.446 141.114 M333.198 141.300 C 333.197 141.795,332.751 143.280,332.208 144.600 C 331.664 145.920,331.230 147.630,331.243 148.400 C 331.263 149.570,331.347 149.428,331.754 147.537 C 332.021 146.292,332.456 145.014,332.720 144.697 C 333.241 144.068,333.868 140.400,333.454 140.400 C 333.314 140.400,333.199 140.805,333.198 141.300 M269.293 142.000 C 269.293 142.770,269.375 143.085,269.476 142.700 C 269.576 142.315,269.576 141.685,269.476 141.300 C 269.375 140.915,269.293 141.230,269.293 142.000 M269.616 144.050 C 269.607 144.407,269.848 145.401,270.150 146.260 C 270.453 147.118,270.908 149.345,271.161 151.210 C 271.414 153.074,271.813 155.320,272.047 156.200 C 272.282 157.080,272.712 158.790,273.003 160.000 C 273.414 161.704,273.541 161.921,273.566 160.964 C 273.585 160.284,273.331 158.844,273.003 157.764 C 272.675 156.684,272.052 153.631,271.618 150.980 C 270.916 146.690,269.657 142.333,269.616 144.050 M246.607 147.333 C 246.710 148.396,247.067 149.746,247.401 150.333 C 247.734 150.920,248.168 152.120,248.363 153.000 C 248.682 154.430,248.723 154.472,248.751 153.400 C 248.768 152.740,248.412 151.390,247.959 150.400 C 247.506 149.410,246.975 147.880,246.778 147.000 C 246.423 145.414,246.422 145.417,246.607 147.333 M308.125 150.400 C 307.863 151.830,307.375 154.260,307.039 155.800 C 306.704 157.340,306.445 159.410,306.463 160.400 C 306.496 162.132,306.511 162.109,306.843 159.800 C 307.033 158.480,307.564 155.744,308.023 153.719 C 308.481 151.695,308.799 149.535,308.728 148.919 C 308.640 148.145,308.453 148.602,308.125 150.400 M330.497 151.827 C 330.221 152.912,329.646 155.870,329.219 158.400 C 328.793 160.930,328.172 163.720,327.840 164.600 C 327.507 165.480,327.243 166.560,327.252 167.000 C 327.265 167.624,327.337 167.575,327.579 166.777 C 327.750 166.214,328.098 165.364,328.353 164.888 C 328.608 164.411,329.085 162.109,329.413 159.771 C 329.741 157.433,330.293 154.656,330.638 153.600 C 330.983 152.544,331.206 151.269,331.133 150.767 C 331.039 150.122,330.852 150.434,330.497 151.827 M248.887 156.400 C 248.870 157.390,249.278 159.820,249.795 161.800 C 250.928 166.143,251.120 164.854,250.025 160.255 C 249.599 158.465,249.176 156.460,249.085 155.800 C 248.969 154.960,248.910 155.139,248.887 156.400 M87.600 159.985 C 86.390 160.163,84.590 160.676,83.600 161.126 C 81.180 162.225,82.052 162.215,85.014 161.109 C 87.843 160.052,107.991 159.717,110.800 160.680 C 115.765 162.382,116.877 162.826,117.879 163.510 C 118.496 163.931,119.778 164.786,120.728 165.411 C 122.273 166.428,125.611 170.051,127.800 173.090 C 128.870 174.574,132.882 187.255,133.340 190.600 C 133.431 191.260,133.443 190.676,133.368 189.302 C 133.292 187.928,133.019 186.409,132.760 185.925 C 132.501 185.441,131.882 183.505,131.384 181.622 C 130.158 176.982,128.805 173.200,128.373 173.200 C 128.177 173.200,127.669 172.519,127.244 171.686 C 126.219 169.678,121.394 164.840,119.715 164.139 C 118.982 163.832,118.026 163.226,117.591 162.791 C 117.156 162.356,116.525 162.000,116.188 162.000 C 115.851 162.000,114.456 161.515,113.088 160.923 C 110.430 159.773,93.341 159.144,87.600 159.985 M79.683 162.717 C 79.288 163.112,78.343 163.685,77.583 163.992 C 75.134 164.979,68.800 170.622,68.800 171.817 C 68.800 172.061,68.355 172.678,67.812 173.189 C 67.268 173.700,66.616 174.766,66.363 175.559 C 66.110 176.351,65.581 177.540,65.187 178.200 C 64.793 178.860,64.347 180.300,64.196 181.400 C 64.046 182.500,63.563 184.113,63.124 184.984 C 62.684 185.856,62.259 187.566,62.179 188.784 L 62.034 191.000 62.363 188.985 C 62.544 187.876,62.993 186.387,63.361 185.675 C 63.730 184.963,64.221 183.350,64.452 182.090 C 64.684 180.831,65.038 179.600,65.239 179.356 C 65.440 179.113,65.969 177.854,66.414 176.559 C 66.859 175.265,67.572 173.845,67.997 173.403 C 68.422 172.961,69.733 171.431,70.911 170.002 C 73.189 167.236,75.159 165.644,77.883 164.367 C 78.809 163.932,79.683 163.390,79.824 163.161 C 79.966 162.931,80.468 162.588,80.941 162.397 C 81.626 162.121,81.658 162.046,81.100 162.025 C 80.715 162.011,80.077 162.323,79.683 162.717 M273.803 164.107 C 273.904 165.156,274.278 166.578,274.635 167.268 C 274.992 167.958,275.439 169.350,275.628 170.361 C 275.946 172.061,275.957 172.020,275.772 169.808 C 275.662 168.492,275.297 166.997,274.961 166.484 C 274.625 165.971,274.186 164.798,273.985 163.876 L 273.620 162.200 273.803 164.107 M306.000 163.216 C 306.000 163.665,305.640 164.738,305.200 165.600 C 304.760 166.462,304.415 167.580,304.434 168.084 C 304.465 168.897,304.507 168.874,304.807 167.874 C 304.992 167.255,305.329 166.526,305.555 166.255 C 306.031 165.681,306.624 162.400,306.251 162.400 C 306.113 162.400,306.000 162.767,306.000 163.216 M250.985 167.450 C 251.076 168.577,251.521 170.107,251.974 170.850 C 252.935 172.427,253.092 171.724,252.174 169.950 C 251.830 169.284,251.384 167.988,251.184 167.069 L 250.820 165.400 250.985 167.450 M326.893 169.200 C 326.893 169.970,326.975 170.285,327.076 169.900 C 327.176 169.515,327.176 168.885,327.076 168.500 C 326.975 168.115,326.893 168.430,326.893 169.200 M304.101 170.600 C 304.105 171.480,304.187 171.793,304.283 171.295 C 304.379 170.798,304.375 170.078,304.275 169.695 C 304.175 169.313,304.096 169.720,304.101 170.600 M325.854 172.912 C 325.444 174.060,325.042 175.630,324.962 176.400 L 324.816 177.800 325.229 176.400 C 325.456 175.630,325.914 174.408,326.247 173.685 C 326.579 172.962,326.795 172.022,326.726 171.597 C 326.645 171.102,326.331 171.577,325.854 172.912 M276.034 173.350 C 276.015 173.983,276.354 176.053,276.786 177.950 C 277.219 179.848,277.642 181.940,277.726 182.600 C 277.867 183.701,277.885 183.680,277.940 182.355 C 277.999 180.942,277.749 179.472,276.622 174.600 C 276.260 173.036,276.055 172.601,276.034 173.350 M303.646 173.051 C 303.621 173.519,303.351 174.509,303.046 175.251 C 302.741 175.993,302.282 178.490,302.026 180.800 C 301.770 183.110,301.209 186.036,300.780 187.302 C 300.351 188.567,300.021 190.097,300.046 190.702 C 300.081 191.510,300.140 191.589,300.272 191.000 C 300.370 190.560,300.784 189.120,301.191 187.800 C 301.598 186.480,302.136 183.690,302.386 181.600 C 302.636 179.510,303.114 176.854,303.449 175.698 C 303.784 174.542,303.976 173.282,303.875 172.898 C 303.731 172.346,303.683 172.378,303.646 173.051 M253.246 175.816 C 253.221 176.485,253.481 178.105,253.823 179.416 C 254.166 180.727,254.782 183.720,255.192 186.067 C 255.602 188.415,256.132 190.699,256.370 191.144 C 256.608 191.588,256.964 192.638,257.161 193.476 C 257.384 194.422,257.535 194.659,257.560 194.102 C 257.582 193.607,257.244 192.167,256.808 190.902 C 256.373 189.636,255.829 187.250,255.600 185.600 C 255.371 183.950,254.834 181.160,254.407 179.400 C 253.980 177.640,253.554 175.840,253.461 175.400 C 253.354 174.889,253.276 175.040,253.246 175.816 M95.600 177.395 C 95.270 177.478,94.307 177.660,93.460 177.799 C 90.931 178.213,87.401 182.075,86.803 185.083 C 86.549 186.357,85.995 188.899,85.571 190.732 C 85.147 192.564,84.824 195.174,84.854 196.532 L 84.909 199.000 85.218 196.043 C 85.389 194.417,85.727 192.347,85.971 191.443 C 86.215 190.539,86.664 188.333,86.968 186.539 C 87.528 183.238,87.729 182.866,90.400 180.162 C 92.398 178.139,93.238 177.904,98.479 177.899 C 105.687 177.893,108.192 180.356,110.377 189.600 C 110.661 190.801,110.715 190.852,110.754 189.954 C 110.898 186.684,107.087 179.539,104.520 178.266 C 103.316 177.670,96.964 177.049,95.600 177.395 M324.463 179.200 C 324.423 179.970,324.035 182.040,323.600 183.800 C 322.816 186.975,322.519 189.853,323.229 187.400 C 324.174 184.135,324.823 180.493,324.687 179.220 L 324.534 177.800 324.463 179.200 M278.040 184.916 C 278.018 185.530,278.379 186.775,278.843 187.684 C 279.307 188.593,279.840 190.161,280.029 191.168 L 280.373 193.000 280.199 190.849 C 280.104 189.667,279.748 188.275,279.408 187.756 C 279.068 187.238,278.631 186.135,278.435 185.307 C 278.125 183.989,278.075 183.940,278.040 184.916 M322.493 190.000 C 322.493 190.770,322.575 191.085,322.676 190.700 C 322.776 190.315,322.776 189.685,322.676 189.300 C 322.575 188.915,322.493 189.230,322.493 190.000 M61.000 196.600 C 59.815 204.304,59.799 244.617,60.978 252.582 C 61.998 259.471,62.268 258.265,61.409 250.660 C 60.577 243.293,60.705 199.944,61.571 196.072 C 61.832 194.901,61.991 193.371,61.923 192.672 C 61.855 191.968,61.443 193.723,61.000 196.600 M322.046 192.015 C 322.021 192.354,321.640 193.337,321.200 194.200 C 320.760 195.063,320.402 196.046,320.405 196.385 C 320.407 196.723,320.869 196.046,321.430 194.879 C 321.991 193.713,322.370 192.453,322.272 192.079 C 322.131 191.544,322.083 191.530,322.046 192.015 M110.892 201.126 C 110.771 213.390,112.439 212.000,97.847 212.000 L 85.722 212.000 85.288 211.100 C 84.999 210.500,84.845 210.408,84.827 210.824 C 84.742 212.790,84.952 212.820,97.995 212.706 L 110.190 212.600 110.702 211.530 C 111.085 210.731,111.186 208.095,111.100 201.130 L 110.985 191.800 110.892 201.126 M299.693 193.200 C 299.693 193.970,299.775 194.285,299.876 193.900 C 299.976 193.515,299.976 192.885,299.876 192.500 C 299.775 192.115,299.693 192.430,299.693 193.200 M133.825 196.000 C 134.527 211.170,134.515 223.210,133.798 224.002 C 133.092 224.782,132.544 224.800,109.418 224.800 C 84.975 224.800,84.761 224.814,84.825 226.380 C 84.841 226.760,84.991 226.652,85.212 226.100 L 85.574 225.200 109.333 225.200 L 133.092 225.200 134.208 224.322 L 135.324 223.444 135.032 213.622 C 134.871 208.220,134.494 201.190,134.194 198.000 C 133.796 193.755,133.697 193.219,133.825 196.000 M280.596 194.839 C 280.691 195.850,281.031 197.470,281.354 198.439 C 281.676 199.407,282.137 201.873,282.380 203.918 C 282.622 205.962,283.088 208.303,283.414 209.119 C 283.741 209.935,284.181 211.412,284.392 212.402 L 284.777 214.200 284.566 212.037 C 284.451 210.848,284.099 209.379,283.786 208.773 C 283.472 208.166,283.029 205.989,282.800 203.935 C 282.259 199.080,281.987 197.576,281.473 196.600 C 281.242 196.160,280.911 195.170,280.738 194.400 C 280.464 193.178,280.446 193.234,280.596 194.839 M299.246 195.320 C 299.221 195.716,298.926 196.570,298.590 197.219 C 298.255 197.867,297.717 200.394,297.396 202.833 C 297.074 205.273,296.538 208.186,296.205 209.307 C 295.872 210.428,295.615 211.988,295.634 212.773 C 295.680 214.769,296.551 211.021,297.579 204.400 C 298.006 201.650,298.643 198.609,298.996 197.642 C 299.348 196.675,299.559 195.595,299.465 195.242 C 299.324 194.717,299.284 194.731,299.246 195.320 M257.799 197.303 C 257.902 198.350,258.246 199.610,258.565 200.103 C 258.884 200.596,259.422 203.070,259.760 205.600 C 260.325 209.819,261.935 216.074,261.973 214.200 C 261.982 213.760,261.649 212.312,261.232 210.982 C 260.815 209.652,260.260 206.775,259.999 204.589 C 259.738 202.402,259.269 200.121,258.958 199.520 C 258.647 198.918,258.217 197.745,258.003 196.913 C 257.616 195.416,257.614 195.420,257.799 197.303 M320.064 198.809 C 320.029 199.584,319.572 201.924,319.049 204.009 C 318.526 206.094,317.973 208.832,317.821 210.093 C 317.669 211.355,317.197 213.375,316.772 214.583 C 316.347 215.792,316.014 217.100,316.032 217.490 C 316.056 218.032,316.109 218.058,316.259 217.600 C 316.366 217.270,316.713 216.370,317.030 215.600 C 317.346 214.830,317.965 212.220,318.404 209.800 C 318.844 207.380,319.482 204.149,319.821 202.620 C 320.161 201.090,320.369 199.290,320.283 198.620 C 320.133 197.441,320.126 197.448,320.064 198.809 M84.537 207.000 C 84.539 208.760,84.609 209.430,84.693 208.489 C 84.778 207.549,84.777 206.109,84.691 205.289 C 84.605 204.470,84.536 205.240,84.537 207.000 M295.119 216.282 C 294.967 217.427,294.564 218.789,294.223 219.308 C 293.883 219.827,293.519 221.140,293.415 222.226 C 293.310 223.312,293.323 223.840,293.443 223.400 C 293.562 222.960,294.107 221.280,294.653 219.667 C 295.199 218.053,295.590 216.163,295.521 215.467 C 295.421 214.451,295.341 214.613,295.119 216.282 M284.819 215.400 C 284.809 215.840,285.141 217.100,285.557 218.200 C 285.973 219.300,286.520 221.910,286.772 224.000 C 287.025 226.090,287.577 228.970,287.999 230.400 C 288.422 231.830,288.858 233.360,288.970 233.800 C 289.081 234.240,289.078 233.624,288.963 232.431 C 288.848 231.238,288.567 229.913,288.339 229.487 C 288.111 229.061,287.589 226.437,287.178 223.656 C 286.509 219.124,284.866 213.373,284.819 215.400 M262.225 217.142 C 262.334 218.100,262.692 219.405,263.021 220.041 C 263.350 220.677,263.881 223.183,264.201 225.609 C 264.521 228.036,264.978 230.385,265.216 230.829 C 265.453 231.274,265.798 232.394,265.980 233.319 C 266.197 234.418,266.328 234.650,266.356 233.987 C 266.380 233.430,266.124 231.990,265.787 230.787 C 265.450 229.584,264.914 226.980,264.596 225.000 C 264.277 223.020,263.662 220.410,263.228 219.200 C 262.795 217.990,262.347 216.640,262.233 216.200 C 262.120 215.760,262.116 216.184,262.225 217.142 M315.600 219.585 C 315.600 220.237,315.249 221.722,314.819 222.885 C 314.389 224.048,313.836 226.620,313.590 228.600 C 313.343 230.580,312.721 233.820,312.207 235.800 C 311.693 237.780,311.005 240.480,310.677 241.800 C 310.349 243.120,309.956 244.650,309.803 245.200 C 309.563 246.066,309.616 246.039,310.198 245.000 C 310.568 244.340,311.134 242.360,311.457 240.600 C 311.780 238.840,312.312 236.701,312.640 235.847 C 312.967 234.993,313.508 232.220,313.840 229.684 C 314.173 227.148,314.702 224.577,315.015 223.971 C 315.621 222.799,316.284 218.400,315.855 218.400 C 315.715 218.400,315.600 218.933,315.600 219.585 M292.800 225.558 C 292.800 226.195,292.455 227.860,292.034 229.258 C 291.612 230.656,291.139 232.790,290.983 234.000 C 290.563 237.251,290.164 238.134,289.808 236.600 C 289.379 234.748,289.266 234.527,289.232 235.474 C 289.179 236.933,289.994 238.713,290.388 238.000 C 291.344 236.269,293.672 224.400,293.055 224.400 C 292.915 224.400,292.800 224.921,292.800 225.558 M84.577 239.400 C 84.577 246.000,84.632 248.756,84.699 245.525 C 84.766 242.293,84.766 236.893,84.699 233.525 C 84.632 230.156,84.577 232.800,84.577 239.400 M266.598 237.100 C 266.688 238.255,267.031 239.785,267.360 240.500 C 267.689 241.215,268.131 242.430,268.343 243.200 C 268.611 244.173,268.739 244.330,268.764 243.715 C 268.784 243.228,268.405 241.788,267.923 240.515 C 267.441 239.242,266.908 237.480,266.740 236.600 C 266.469 235.186,266.452 235.245,266.598 237.100 M112.411 244.045 C 110.868 244.661,110.808 244.983,110.888 252.200 L 110.963 259.000 111.181 252.119 C 111.336 247.260,111.553 245.085,111.919 244.719 C 112.811 243.828,131.748 243.743,133.092 244.623 L 134.123 245.299 133.926 253.549 C 133.726 261.915,134.078 260.589,134.618 250.938 L 134.912 245.676 133.874 244.638 L 132.836 243.600 123.118 243.625 C 117.730 243.639,112.959 243.827,112.411 244.045 M268.834 245.836 C 268.815 246.516,269.072 247.956,269.404 249.036 C 269.737 250.116,270.285 252.890,270.623 255.200 C 270.961 257.510,271.589 260.243,272.019 261.274 C 272.449 262.305,272.825 263.655,272.854 264.274 C 272.902 265.263,272.930 265.287,273.086 264.469 C 273.184 263.957,272.810 261.977,272.256 260.069 C 271.702 258.161,270.979 254.980,270.650 253.000 C 269.800 247.895,268.876 244.253,268.834 245.836 M309.015 249.002 C 308.859 250.453,308.387 252.846,307.966 254.319 C 307.545 255.792,307.221 257.448,307.246 257.999 C 307.284 258.806,307.327 258.845,307.470 258.200 C 307.568 257.760,307.905 256.726,308.220 255.902 C 308.822 254.326,309.835 246.902,309.495 246.562 C 309.386 246.453,309.170 247.551,309.015 249.002 M84.838 255.941 C 84.817 256.899,85.238 259.149,85.773 260.941 C 86.308 262.734,86.850 264.689,86.977 265.286 C 88.536 272.613,103.942 274.366,108.071 267.686 C 108.522 266.955,108.786 266.252,108.657 266.123 C 108.528 265.995,108.242 266.319,108.022 266.845 C 106.565 270.323,103.670 271.452,97.131 271.092 C 89.692 270.682,87.588 268.123,85.383 256.800 C 84.901 254.325,84.875 254.283,84.838 255.941 M62.190 260.657 C 62.330 262.429,64.000 266.689,64.000 265.274 C 64.000 264.992,63.711 264.202,63.358 263.519 C 63.005 262.836,62.561 261.450,62.372 260.439 L 62.027 258.600 62.190 260.657 M306.678 261.173 C 306.549 262.258,306.074 263.870,305.622 264.757 C 305.170 265.643,304.802 266.690,304.804 267.084 C 304.812 268.529,306.811 263.446,307.057 261.357 C 307.196 260.171,307.220 259.200,307.111 259.200 C 307.001 259.200,306.806 260.088,306.678 261.173 M110.454 260.256 C 110.425 260.727,110.044 261.897,109.609 262.856 C 109.174 263.815,108.821 264.870,108.825 265.200 C 108.829 265.530,109.286 264.747,109.839 263.460 C 110.392 262.173,110.770 260.733,110.677 260.260 L 110.509 259.400 110.454 260.256 M133.256 262.800 C 133.221 263.350,132.744 264.763,132.196 265.940 C 131.648 267.117,131.200 268.379,131.200 268.746 C 131.200 269.112,130.865 270.039,130.456 270.806 C 130.047 271.573,129.574 272.650,129.406 273.200 C 128.046 277.637,118.927 286.800,115.870 286.800 C 115.518 286.800,114.188 287.193,112.915 287.673 C 111.642 288.153,109.970 288.688,109.200 288.861 C 108.103 289.107,108.265 289.137,109.951 289.001 C 111.133 288.904,112.502 288.563,112.992 288.242 C 113.482 287.921,114.534 287.536,115.329 287.387 C 118.553 286.782,125.495 281.251,127.237 277.900 C 127.665 277.075,128.179 276.400,128.377 276.400 C 128.576 276.400,128.952 275.725,129.214 274.900 C 129.475 274.075,129.940 273.000,130.247 272.510 C 130.554 272.021,131.053 270.671,131.355 269.510 C 131.658 268.350,132.300 266.645,132.782 265.722 C 133.303 264.725,133.589 263.590,133.489 262.922 C 133.330 261.868,133.316 261.860,133.256 262.800 M273.462 267.342 C 273.551 268.190,273.864 269.360,274.160 269.942 C 274.455 270.524,274.994 273.070,275.357 275.600 C 275.721 278.130,276.276 280.920,276.591 281.800 C 276.907 282.680,277.197 283.940,277.237 284.600 C 277.294 285.556,277.344 285.618,277.482 284.903 C 277.577 284.409,277.293 282.609,276.852 280.903 C 276.410 279.196,275.866 276.344,275.643 274.563 C 275.421 272.783,274.887 270.436,274.458 269.347 C 274.029 268.258,273.593 267.015,273.490 266.584 C 273.386 266.153,273.374 266.494,273.462 267.342 M64.225 268.000 C 64.347 269.210,64.764 270.740,65.150 271.400 C 65.537 272.060,66.045 273.152,66.280 273.826 C 66.825 275.393,71.220 281.252,72.684 282.365 C 73.298 282.832,74.160 283.482,74.600 283.810 C 75.040 284.138,76.018 284.900,76.773 285.504 C 77.528 286.107,79.148 286.899,80.373 287.263 C 81.598 287.628,83.320 288.205,84.200 288.546 C 85.080 288.886,86.520 289.152,87.400 289.135 L 89.000 289.106 87.149 288.793 C 86.130 288.621,84.956 288.298,84.539 288.075 C 84.122 287.851,82.628 287.370,81.218 287.005 C 79.808 286.639,78.142 285.949,77.516 285.470 C 73.452 282.365,71.448 280.553,70.305 278.945 C 69.587 277.937,68.574 276.653,68.054 276.092 C 67.533 275.530,66.833 274.245,66.497 273.236 C 66.161 272.226,65.696 271.158,65.464 270.863 C 65.231 270.568,64.807 269.308,64.521 268.063 L 64.002 265.800 64.225 268.000 M304.464 269.225 C 304.429 270.008,304.056 271.988,303.636 273.625 C 303.216 275.261,302.666 278.202,302.413 280.161 C 301.941 283.820,301.091 286.053,299.682 287.326 C 298.280 288.594,279.434 288.179,278.364 286.856 C 277.944 286.336,277.600 286.091,277.600 286.311 C 277.600 288.668,297.293 290.286,299.683 288.126 C 301.548 286.440,302.088 285.131,302.838 280.479 C 303.253 277.906,303.873 274.549,304.216 273.020 C 304.558 271.490,304.769 269.690,304.683 269.020 C 304.535 267.855,304.525 267.864,304.464 269.225 M91.600 289.660 C 92.810 289.804,95.870 289.921,98.400 289.921 C 100.930 289.921,103.990 289.804,105.200 289.660 C 106.410 289.517,103.350 289.400,98.400 289.400 C 93.450 289.400,90.390 289.517,91.600 289.660 " stroke="none" fill="#b8d1fc" fill-rule="evenodd"></path><path id="path3" d="M147.280 111.280 C 146.601 111.959,146.601 128.041,147.280 128.720 C 147.634 129.074,151.249 129.200,161.061 129.200 C 174.997 129.200,176.126 129.327,176.561 130.949 C 176.686 131.417,176.792 166.503,176.795 208.918 L 176.800 286.036 177.800 287.036 L 178.800 288.036 189.786 287.918 C 199.705 287.811,200.842 287.731,201.486 287.086 C 202.166 286.406,202.205 282.612,202.303 208.323 C 202.378 151.651,202.528 130.128,202.852 129.737 C 203.209 129.308,205.900 129.200,216.275 129.200 C 224.456 129.200,229.539 129.047,230.026 128.786 C 230.754 128.397,230.800 127.867,230.800 119.976 L 230.800 111.580 229.774 111.190 C 228.164 110.578,147.894 110.666,147.280 111.280 M240.229 111.429 C 239.883 111.774,239.600 112.301,239.600 112.600 C 239.600 114.462,240.576 119.661,241.186 121.051 C 241.585 121.959,242.043 123.669,242.203 124.851 C 242.364 126.033,242.824 128.080,243.226 129.400 C 243.628 130.720,244.166 133.420,244.422 135.400 C 244.679 137.380,245.141 139.614,245.450 140.364 C 245.760 141.114,246.196 143.004,246.420 144.564 C 246.644 146.124,247.256 148.570,247.781 150.000 C 248.305 151.430,249.019 154.310,249.367 156.400 C 250.828 165.171,251.572 168.786,252.146 169.896 C 252.481 170.543,252.963 172.316,253.217 173.836 C 253.472 175.356,254.014 177.907,254.422 179.505 C 254.830 181.103,255.366 183.887,255.613 185.692 C 255.860 187.497,256.321 189.594,256.637 190.351 C 256.954 191.108,257.406 193.004,257.643 194.564 C 257.880 196.124,258.404 198.159,258.808 199.086 C 259.212 200.014,259.752 202.522,260.007 204.660 C 260.262 206.797,260.798 209.638,261.197 210.973 C 261.596 212.308,262.047 214.289,262.198 215.376 C 262.348 216.464,262.820 218.236,263.245 219.315 C 263.671 220.394,264.202 222.655,264.426 224.339 C 264.650 226.022,265.087 228.171,265.397 229.112 C 265.706 230.054,266.162 232.304,266.410 234.112 C 266.657 235.921,267.282 238.660,267.797 240.200 C 268.783 243.145,269.644 247.013,270.646 253.000 C 270.978 254.980,271.676 258.130,272.198 260.000 C 272.721 261.870,273.266 264.289,273.410 265.376 C 273.554 266.464,274.024 268.247,274.455 269.340 C 274.886 270.433,275.420 272.783,275.642 274.563 C 275.864 276.344,276.395 279.139,276.823 280.775 C 277.250 282.412,277.600 284.237,277.600 284.831 C 277.600 287.666,278.043 287.786,289.004 287.926 C 301.214 288.082,301.418 287.964,302.404 280.161 C 302.651 278.202,303.110 275.676,303.424 274.547 C 303.738 273.418,304.191 271.087,304.430 269.368 C 304.669 267.648,305.208 265.568,305.628 264.744 C 306.048 263.921,306.661 261.455,306.990 259.265 C 307.319 257.075,307.774 254.795,308.000 254.200 C 308.226 253.605,308.682 251.381,309.011 249.259 C 309.341 247.136,309.963 244.410,310.393 243.200 C 310.822 241.990,311.180 240.537,311.187 239.970 C 311.194 239.404,311.624 237.514,312.143 235.770 C 312.662 234.027,313.307 230.832,313.576 228.671 C 313.845 226.510,314.326 224.118,314.644 223.355 C 314.963 222.593,315.483 220.480,315.801 218.660 C 316.118 216.840,316.633 214.732,316.945 213.975 C 317.256 213.219,317.632 211.610,317.779 210.400 C 317.927 209.190,318.472 206.400,318.992 204.200 C 319.511 202.000,320.052 199.182,320.192 197.937 C 320.333 196.693,320.802 194.983,321.234 194.137 C 321.666 193.292,322.209 191.340,322.440 189.800 C 322.671 188.260,323.192 185.560,323.598 183.800 C 324.003 182.040,324.462 179.439,324.616 178.020 C 324.771 176.601,325.224 174.678,325.623 173.747 C 326.021 172.817,326.633 170.405,326.981 168.389 C 327.329 166.372,327.812 164.351,328.055 163.897 C 328.298 163.443,328.830 160.985,329.237 158.436 C 329.644 155.886,330.252 152.816,330.588 151.613 C 330.925 150.410,331.200 148.911,331.200 148.281 C 331.200 147.652,331.640 146.026,332.177 144.668 C 332.714 143.311,333.358 140.670,333.607 138.800 C 333.857 136.930,334.393 134.140,334.799 132.600 C 335.205 131.060,335.659 128.722,335.809 127.404 C 335.959 126.086,336.414 124.358,336.819 123.562 C 337.225 122.767,337.675 121.145,337.818 119.958 C 337.962 118.771,338.436 116.561,338.872 115.047 C 340.075 110.873,340.460 111.026,328.381 110.875 L 318.389 110.749 317.232 111.907 C 316.326 112.812,316.012 113.578,315.787 115.432 C 315.628 116.734,315.093 119.240,314.596 121.000 C 314.100 122.760,313.480 126.000,313.219 128.200 C 312.958 130.400,312.414 133.370,312.009 134.800 C 311.604 136.230,311.149 138.473,310.997 139.785 C 310.845 141.097,310.387 143.018,309.978 144.055 C 309.570 145.091,309.125 146.898,308.990 148.070 C 308.855 149.241,308.400 151.820,307.979 153.800 C 307.558 155.780,306.946 159.244,306.618 161.497 C 306.290 163.751,305.757 166.001,305.433 166.497 C 305.109 166.994,304.575 169.205,304.246 171.411 C 303.917 173.618,303.474 175.879,303.262 176.437 C 303.050 176.994,302.665 179.239,302.406 181.425 C 302.147 183.611,301.594 186.480,301.178 187.800 C 300.761 189.120,300.217 191.550,299.969 193.200 C 299.721 194.850,299.188 197.190,298.785 198.400 C 298.382 199.610,297.846 202.310,297.593 204.400 C 297.341 206.490,296.887 209.100,296.586 210.200 C 296.284 211.300,295.853 213.578,295.628 215.261 C 295.403 216.945,294.866 219.217,294.436 220.310 C 294.005 221.403,293.446 223.805,293.194 225.649 C 292.704 229.227,290.937 237.005,290.388 238.000 C 289.950 238.793,289.409 237.401,289.004 234.439 C 288.841 233.250,288.452 231.665,288.139 230.916 C 287.826 230.167,287.302 227.540,286.974 225.077 C 286.645 222.615,286.038 219.610,285.623 218.400 C 285.208 217.190,284.744 215.210,284.592 214.000 C 284.440 212.790,283.973 210.812,283.555 209.604 C 283.136 208.396,282.601 205.786,282.366 203.804 C 282.131 201.822,281.681 199.425,281.367 198.477 C 281.052 197.530,280.543 195.081,280.236 193.037 C 279.928 190.992,279.321 188.617,278.886 187.760 C 278.451 186.902,277.965 185.030,277.806 183.600 C 277.647 182.170,277.190 179.560,276.789 177.800 C 276.388 176.040,275.939 173.430,275.791 172.000 C 275.643 170.570,275.181 168.616,274.765 167.658 C 274.349 166.701,273.733 164.208,273.397 162.119 C 273.061 160.030,272.635 158.024,272.450 157.661 C 272.082 156.935,271.406 153.429,270.975 150.008 C 270.824 148.803,270.468 147.159,270.184 146.356 C 269.901 145.553,269.460 143.517,269.205 141.831 C 268.949 140.146,268.404 138.006,267.993 137.077 C 267.582 136.148,267.049 133.771,266.809 131.794 C 266.569 129.817,266.039 126.940,265.630 125.400 C 265.222 123.860,264.767 121.576,264.618 120.324 C 264.304 117.672,262.251 111.606,261.509 111.135 C 260.456 110.467,240.921 110.736,240.229 111.429 M229.411 112.004 L 230.475 112.409 230.337 119.971 C 230.262 124.131,230.050 127.684,229.867 127.867 C 229.684 128.050,223.525 128.290,216.181 128.400 C 204.054 128.582,202.761 128.666,202.113 129.314 C 201.434 129.994,201.395 133.795,201.295 208.026 L 201.190 286.024 200.169 286.412 C 198.499 287.047,178.993 286.915,178.454 286.265 C 178.133 285.878,177.981 264.195,177.905 207.879 C 177.805 133.773,177.766 129.994,177.086 129.314 C 176.432 128.660,175.180 128.590,162.171 128.485 L 147.969 128.371 147.585 127.359 C 147.167 126.262,147.046 113.268,147.443 112.233 C 147.736 111.468,227.416 111.246,229.411 112.004 M261.496 112.100 C 261.713 112.375,262.014 113.410,262.166 114.400 C 262.317 115.390,262.714 116.618,263.049 117.130 C 263.390 117.651,263.826 119.759,264.040 121.930 C 264.251 124.058,264.773 127.060,265.202 128.600 C 265.630 130.140,266.162 132.675,266.383 134.234 C 266.605 135.793,267.135 137.863,267.559 138.834 C 267.984 139.805,268.452 141.680,268.600 143.000 C 268.747 144.320,269.195 146.660,269.597 148.200 C 269.998 149.740,270.527 152.668,270.773 154.707 C 271.019 156.747,271.561 159.087,271.977 159.907 C 272.393 160.728,272.859 162.570,273.014 164.000 C 273.168 165.430,273.615 167.500,274.006 168.600 C 274.397 169.700,274.927 172.310,275.183 174.400 C 275.439 176.490,275.983 179.370,276.392 180.800 C 276.801 182.230,277.250 184.379,277.391 185.575 C 277.532 186.771,278.067 188.661,278.580 189.775 C 279.170 191.054,279.612 192.978,279.781 195.000 C 279.928 196.760,280.395 199.550,280.818 201.200 C 281.242 202.850,281.757 205.414,281.963 206.898 C 282.170 208.381,282.633 210.181,282.993 210.898 C 283.352 211.614,283.831 213.730,284.056 215.600 C 284.281 217.470,284.730 219.540,285.054 220.200 C 285.378 220.860,285.909 223.546,286.235 226.168 C 286.561 228.791,287.082 231.491,287.393 232.168 C 287.704 232.846,288.226 234.729,288.553 236.354 C 289.401 240.565,291.021 241.006,291.838 237.249 C 291.964 236.672,292.319 235.411,292.627 234.447 C 292.935 233.483,293.387 230.693,293.631 228.247 C 293.918 225.359,294.397 223.029,294.995 221.600 C 295.502 220.390,296.042 218.168,296.194 216.663 C 296.347 215.158,296.728 213.314,297.040 212.565 C 297.353 211.816,297.885 209.088,298.222 206.502 C 298.560 203.916,299.177 200.630,299.594 199.200 C 300.011 197.770,300.463 195.460,300.599 194.067 C 300.736 192.674,301.184 190.874,301.595 190.067 C 302.015 189.244,302.549 186.844,302.811 184.600 C 303.068 182.400,303.535 179.700,303.850 178.600 C 304.165 177.500,304.588 175.008,304.791 173.061 C 305.014 170.921,305.480 168.908,305.971 167.966 C 306.441 167.065,306.972 164.848,307.233 162.704 C 307.481 160.667,307.925 158.532,308.220 157.961 C 308.516 157.390,309.017 154.552,309.335 151.655 C 309.652 148.758,310.123 146.133,310.381 145.823 C 310.639 145.512,311.194 143.352,311.614 141.023 C 312.034 138.695,312.558 136.452,312.779 136.039 C 313.000 135.627,313.464 132.992,313.810 130.186 C 314.156 127.379,314.699 124.460,315.016 123.700 C 315.334 122.939,315.794 120.672,316.038 118.662 C 316.497 114.889,317.482 112.284,318.616 111.849 C 319.598 111.472,336.922 111.563,337.530 111.948 C 338.275 112.421,337.409 120.047,336.379 122.085 C 335.966 122.901,335.425 124.791,335.177 126.285 C 334.929 127.778,334.393 130.109,333.986 131.466 C 333.580 132.822,333.121 135.489,332.966 137.393 C 332.795 139.504,332.391 141.430,331.931 142.328 C 331.515 143.137,330.996 145.055,330.777 146.590 C 330.557 148.124,330.038 150.374,329.623 151.590 C 329.207 152.805,328.654 155.420,328.393 157.400 C 328.132 159.380,327.679 161.648,327.386 162.440 C 327.094 163.232,326.652 165.362,326.404 167.173 C 326.156 168.984,325.616 171.126,325.205 171.933 C 324.794 172.740,324.251 174.840,323.998 176.600 C 323.746 178.360,323.284 180.700,322.972 181.800 C 322.660 182.900,322.247 185.365,322.055 187.278 C 321.841 189.399,321.386 191.366,320.888 192.321 C 320.439 193.182,319.857 195.307,319.594 197.043 C 319.331 198.779,318.866 200.684,318.560 201.276 C 318.254 201.868,317.804 204.118,317.560 206.276 C 317.316 208.434,316.856 211.010,316.537 212.000 C 316.218 212.990,315.622 215.420,315.211 217.400 C 314.800 219.380,314.202 221.630,313.882 222.400 C 313.562 223.170,313.083 225.568,312.818 227.729 C 312.552 229.890,312.088 232.250,311.786 232.973 C 311.484 233.695,311.038 235.887,310.796 237.843 C 310.554 239.800,310.085 241.815,309.754 242.323 C 309.423 242.830,308.885 244.810,308.559 246.723 C 308.234 248.635,307.708 251.010,307.391 252.000 C 307.074 252.990,306.617 255.600,306.376 257.800 C 306.099 260.326,305.665 262.242,305.200 263.000 C 304.794 263.660,304.255 265.720,304.002 267.577 C 303.748 269.435,303.292 271.435,302.988 272.022 C 302.685 272.610,302.239 274.690,301.997 276.645 C 301.475 280.881,301.318 281.646,300.493 284.000 C 299.454 286.964,300.101 286.800,289.427 286.800 C 277.850 286.800,278.563 287.092,278.008 282.122 C 277.782 280.100,277.401 277.940,277.162 277.322 C 276.922 276.705,276.474 274.542,276.165 272.516 C 275.857 270.490,275.256 268.150,274.830 267.316 C 274.405 266.482,273.941 264.720,273.799 263.400 C 273.658 262.080,273.210 259.740,272.803 258.200 C 272.397 256.660,271.774 253.611,271.418 251.424 C 271.062 249.237,270.586 247.225,270.360 246.952 C 270.134 246.680,269.707 244.842,269.410 242.869 C 269.114 240.895,268.576 238.830,268.215 238.280 C 267.832 237.695,267.401 235.742,267.177 233.585 C 266.967 231.553,266.363 228.250,265.834 226.245 C 265.306 224.240,264.765 221.837,264.633 220.905 C 264.500 219.972,264.050 218.532,263.633 217.705 C 263.197 216.842,262.755 214.835,262.597 213.000 C 262.445 211.240,261.992 208.810,261.590 207.600 C 261.188 206.390,260.665 203.883,260.428 202.028 C 260.191 200.174,259.736 198.257,259.416 197.769 C 259.096 197.281,258.635 195.648,258.391 194.141 C 258.147 192.633,257.603 190.140,257.181 188.600 C 256.760 187.060,256.221 184.196,255.984 182.234 C 255.747 180.273,255.283 178.147,254.953 177.509 C 254.623 176.871,254.112 174.856,253.816 173.031 C 253.521 171.206,253.002 169.177,252.663 168.522 C 252.324 167.867,251.843 165.727,251.594 163.766 C 251.345 161.804,250.807 158.940,250.400 157.400 C 249.993 155.860,249.541 153.610,249.396 152.400 C 249.251 151.190,248.769 149.483,248.324 148.606 C 247.879 147.729,247.271 145.299,246.973 143.206 C 246.676 141.113,246.164 138.450,245.836 137.289 C 245.508 136.128,245.051 133.825,244.821 132.172 C 244.592 130.519,244.132 128.642,243.800 128.000 C 243.468 127.358,243.002 125.431,242.763 123.718 C 242.525 122.004,242.008 119.882,241.615 119.001 C 240.635 116.803,240.171 112.392,240.873 111.946 C 241.776 111.374,261.037 111.518,261.496 112.100 M88.800 160.260 C 86.527 160.537,80.666 162.460,79.800 163.213 C 79.360 163.595,78.640 164.018,78.200 164.152 C 76.519 164.665,72.934 167.544,70.895 170.020 C 69.727 171.439,68.422 172.961,67.997 173.403 C 67.572 173.845,66.859 175.265,66.414 176.559 C 65.969 177.854,65.431 179.121,65.220 179.376 C 65.008 179.631,64.713 180.641,64.564 181.620 C 64.416 182.599,63.888 184.390,63.392 185.600 C 62.833 186.964,62.318 189.473,62.038 192.200 C 61.789 194.620,61.416 197.950,61.210 199.600 C 60.712 203.581,60.717 245.369,61.215 249.200 C 61.430 250.850,61.797 254.270,62.032 256.800 C 62.290 259.586,62.756 262.078,63.215 263.119 C 63.631 264.064,64.171 265.954,64.415 267.319 C 64.658 268.683,65.086 270.160,65.364 270.600 C 65.642 271.040,66.149 272.226,66.489 273.236 C 66.829 274.245,67.533 275.530,68.054 276.092 C 68.574 276.653,69.587 277.937,70.305 278.945 C 71.448 280.553,73.452 282.365,77.516 285.470 C 78.142 285.949,79.740 286.622,81.068 286.966 C 82.395 287.310,84.093 287.846,84.840 288.157 C 89.685 290.175,106.862 289.945,112.598 287.786 C 114.039 287.244,115.509 286.800,115.864 286.800 C 118.926 286.800,128.045 277.642,129.406 273.200 C 129.574 272.650,130.047 271.573,130.456 270.806 C 130.865 270.039,131.200 269.116,131.200 268.754 C 131.200 268.393,131.656 267.100,132.214 265.882 C 134.184 261.579,134.791 245.737,133.031 244.583 C 131.743 243.740,112.778 243.861,111.919 244.719 C 111.546 245.092,111.341 247.392,111.189 252.919 C 110.754 268.791,106.019 273.969,94.350 271.334 C 91.095 270.599,87.476 267.630,86.977 265.286 C 86.850 264.689,86.279 262.670,85.708 260.800 L 84.670 257.400 84.635 241.764 C 84.607 229.061,84.703 226.003,85.149 225.464 C 85.649 224.859,87.809 224.800,109.387 224.800 C 132.544 224.800,133.092 224.782,133.798 224.002 C 135.313 222.328,134.040 192.362,132.174 185.800 C 130.204 178.871,128.593 174.191,127.800 173.090 C 125.660 170.119,122.290 166.438,120.828 165.474 C 116.915 162.893,116.122 162.444,114.800 162.058 C 114.030 161.833,112.590 161.335,111.600 160.952 C 109.838 160.269,92.926 159.756,88.800 160.260 M110.199 161.805 C 112.399 162.352,114.500 162.800,114.868 162.800 C 115.237 162.800,116.073 163.250,116.727 163.800 C 117.381 164.350,118.070 164.803,118.258 164.807 C 118.719 164.817,121.088 166.709,122.584 168.263 C 126.062 171.877,127.775 174.492,128.636 177.502 C 128.998 178.766,129.525 180.070,129.809 180.400 C 130.093 180.730,130.541 182.440,130.805 184.200 C 131.068 185.960,131.557 187.928,131.890 188.572 C 132.753 190.244,133.240 199.996,133.109 213.000 L 133.000 223.800 109.068 224.000 C 85.718 224.195,85.121 224.219,84.545 225.000 C 83.607 226.272,83.908 260.033,84.875 261.911 C 85.246 262.632,85.827 264.176,86.166 265.342 C 86.834 267.640,89.618 270.830,91.565 271.528 C 99.998 274.551,108.272 272.490,109.416 267.080 C 109.565 266.376,110.016 265.256,110.419 264.592 C 111.398 262.977,112.000 257.843,112.000 251.101 L 112.000 245.580 113.026 245.190 C 114.860 244.493,132.211 244.690,132.813 245.415 C 133.693 246.476,133.001 261.759,131.984 263.716 C 131.551 264.550,131.008 266.074,130.777 267.103 C 130.398 268.792,128.538 273.278,127.584 274.800 C 127.378 275.130,126.855 276.030,126.424 276.800 C 125.104 279.156,120.877 283.245,118.887 284.091 C 118.289 284.345,117.440 284.860,117.000 285.236 C 116.560 285.612,115.120 286.134,113.800 286.396 C 112.480 286.659,111.016 287.117,110.546 287.416 C 108.362 288.803,92.093 289.245,88.000 288.028 C 87.230 287.799,84.949 287.179,82.931 286.650 C 80.843 286.103,78.870 285.324,78.355 284.844 C 77.857 284.380,77.264 284.000,77.039 284.000 C 76.582 284.000,76.022 283.520,72.730 280.299 C 71.481 279.078,69.994 277.341,69.425 276.439 C 68.856 275.538,68.230 274.800,68.035 274.800 C 67.840 274.800,67.462 273.855,67.195 272.700 C 66.928 271.545,66.448 270.183,66.128 269.672 C 65.807 269.162,65.277 267.452,64.949 265.872 C 64.622 264.293,64.071 262.567,63.727 262.038 C 61.556 258.705,61.553 190.774,63.723 187.461 C 64.060 186.946,64.529 185.485,64.764 184.213 C 64.999 182.941,65.480 181.337,65.832 180.650 C 66.184 179.962,66.746 178.503,67.080 177.406 C 67.414 176.310,68.117 174.901,68.643 174.276 C 69.170 173.650,69.602 173.017,69.604 172.869 C 69.607 172.721,70.429 171.711,71.431 170.624 C 72.434 169.536,73.428 168.321,73.641 167.924 C 73.854 167.526,74.260 167.200,74.543 167.200 C 74.826 167.200,75.765 166.665,76.629 166.011 C 77.493 165.357,78.390 164.817,78.622 164.811 C 78.855 164.805,79.645 164.357,80.378 163.816 C 81.112 163.275,82.487 162.716,83.434 162.574 C 84.382 162.432,86.382 161.985,87.879 161.582 C 92.390 160.366,104.919 160.491,110.199 161.805 M93.891 176.818 C 92.047 177.321,90.792 177.947,89.960 178.778 C 89.288 179.450,88.617 180.001,88.469 180.003 C 87.889 180.009,86.386 182.734,86.033 184.421 C 85.829 185.399,85.346 187.010,84.960 188.000 C 84.019 190.415,83.838 211.834,84.749 212.936 C 85.333 213.642,109.616 213.978,110.640 213.294 C 112.686 211.928,112.534 189.403,110.451 185.288 C 110.037 184.470,109.579 183.249,109.433 182.574 C 108.394 177.755,100.788 174.938,93.891 176.818 M104.520 178.266 C 106.520 179.258,107.965 181.294,109.512 185.304 L 110.938 189.000 110.969 200.236 C 110.994 209.206,110.889 211.607,110.451 212.136 C 109.962 212.728,108.583 212.800,97.765 212.800 L 85.628 212.800 85.114 211.900 C 84.288 210.454,84.649 194.728,85.603 190.600 C 86.009 188.840,86.549 186.357,86.803 185.083 C 87.401 182.075,90.931 178.213,93.460 177.799 C 94.307 177.660,95.270 177.478,95.600 177.395 C 96.964 177.049,103.316 177.670,104.520 178.266 " stroke="none" fill="#a4c4fc" fill-rule="evenodd"></path><path id="path4" d="M146.629 110.629 C 146.095 111.162,146.000 112.600,146.000 120.159 C 146.000 132.056,144.216 130.800,161.112 130.800 C 173.812 130.800,174.389 130.833,174.786 131.574 C 175.067 132.099,175.200 157.049,175.200 209.394 C 175.200 293.678,175.049 288.306,177.445 289.217 C 179.571 290.025,200.997 289.693,202.056 288.835 L 203.000 288.071 203.200 209.535 L 203.400 131.000 216.800 130.781 C 224.170 130.661,230.238 130.526,230.284 130.481 C 232.050 128.784,232.000 129.091,232.000 119.947 C 232.000 111.408,231.983 111.234,231.111 110.623 C 229.749 109.669,147.583 109.674,146.629 110.629 M239.338 110.580 C 237.644 111.318,237.358 112.435,238.332 114.511 C 238.769 115.440,239.249 117.460,239.400 119.000 C 239.560 120.641,239.995 122.325,240.451 123.070 C 240.914 123.826,241.377 125.643,241.595 127.559 C 241.797 129.329,242.261 131.728,242.626 132.889 C 242.991 134.050,243.513 136.847,243.786 139.104 C 244.139 142.019,244.498 143.445,245.025 144.027 C 245.534 144.590,245.858 145.800,246.057 147.890 C 246.258 149.991,246.604 151.279,247.174 152.050 C 247.762 152.846,248.001 153.776,248.003 155.284 C 248.007 158.348,248.702 162.317,249.610 164.474 C 250.045 165.505,250.401 167.035,250.402 167.874 C 250.405 169.972,251.105 172.307,251.856 172.727 C 252.331 172.993,252.563 174.187,252.827 177.720 C 253.018 180.282,253.460 183.043,253.812 183.881 C 254.163 184.717,254.616 186.837,254.818 188.592 C 255.064 190.721,255.457 192.151,255.998 192.883 C 256.523 193.592,256.888 194.871,257.028 196.491 C 257.295 199.562,257.954 202.336,258.666 203.389 C 258.960 203.823,259.204 204.993,259.208 205.989 C 259.221 208.908,259.905 212.830,260.525 213.541 C 260.840 213.904,261.298 215.579,261.541 217.264 C 261.995 220.398,262.666 222.400,263.264 222.400 C 263.449 222.400,263.601 223.255,263.603 224.300 C 263.609 227.734,264.365 232.887,265.008 233.868 C 265.355 234.397,265.802 236.260,266.001 238.007 C 266.366 241.207,266.902 242.800,267.614 242.800 C 267.826 242.800,268.000 243.586,268.000 244.548 C 268.000 246.727,269.079 253.027,269.629 254.054 C 269.854 254.474,270.214 256.389,270.428 258.309 C 270.690 260.658,271.074 262.151,271.602 262.874 C 272.123 263.588,272.515 265.090,272.773 267.355 C 272.986 269.229,273.446 271.316,273.796 271.993 C 274.154 272.684,274.596 275.076,274.804 277.443 C 275.037 280.102,275.463 282.278,275.954 283.331 C 276.383 284.249,276.956 285.870,277.228 286.933 C 277.903 289.572,278.033 289.600,289.626 289.600 L 299.600 289.600 301.148 288.052 C 302.602 286.598,302.714 286.311,302.991 283.352 C 303.153 281.618,303.552 279.683,303.879 279.050 C 304.205 278.418,304.742 275.553,305.073 272.684 C 305.507 268.912,305.883 267.182,306.430 266.434 C 306.920 265.764,307.280 264.368,307.454 262.468 C 307.601 260.856,307.959 259.298,308.250 259.007 C 308.954 258.303,309.465 255.783,309.792 251.400 C 309.965 249.078,310.351 247.186,310.880 246.072 C 311.330 245.121,311.832 243.127,311.996 241.640 C 312.159 240.153,312.592 238.479,312.958 237.920 C 313.336 237.343,313.796 235.367,314.022 233.352 C 314.241 231.398,314.778 228.755,315.217 227.478 C 315.655 226.201,316.115 223.771,316.238 222.078 C 316.388 220.011,316.779 218.343,317.427 217.000 C 317.973 215.870,318.500 213.869,318.639 212.400 C 318.775 210.970,319.215 209.080,319.617 208.200 C 320.101 207.142,320.470 204.939,320.708 201.693 C 320.983 197.931,321.219 196.670,321.718 196.293 C 322.444 195.743,323.175 192.976,323.190 190.723 C 323.196 189.910,323.543 188.650,323.963 187.923 C 324.461 187.059,324.891 185.072,325.202 182.200 C 325.471 179.716,326.002 177.099,326.422 176.190 C 326.835 175.296,327.292 173.077,327.448 171.202 C 327.663 168.619,327.906 167.679,328.477 167.212 C 329.043 166.749,329.327 165.679,329.644 162.814 C 329.875 160.732,330.217 158.741,330.406 158.390 C 331.080 157.129,332.000 152.307,332.000 150.029 C 332.000 148.271,332.205 147.447,332.847 146.631 C 333.442 145.875,333.799 144.611,334.048 142.387 C 334.247 140.615,334.763 138.527,335.222 137.648 C 335.835 136.472,336.100 134.988,336.278 131.739 C 336.468 128.282,336.707 127.031,337.455 125.586 C 337.981 124.570,338.513 122.637,338.664 121.196 C 338.812 119.780,339.248 118.076,339.634 117.410 C 340.656 115.648,341.011 112.011,340.260 111.000 C 339.696 110.241,339.127 110.194,329.246 110.081 C 315.356 109.923,314.800 110.106,314.800 114.844 C 314.800 116.112,314.449 117.613,313.845 118.925 C 313.227 120.267,312.804 122.107,312.647 124.135 C 312.514 125.859,312.137 127.839,311.810 128.535 C 311.113 130.017,310.422 134.470,310.402 137.600 C 310.394 138.810,310.129 140.250,309.811 140.800 C 308.677 142.766,308.420 143.628,308.170 146.296 C 308.031 147.783,307.580 149.722,307.168 150.605 C 306.633 151.753,306.318 153.780,306.062 157.723 C 305.781 162.043,305.563 163.341,305.056 163.718 C 304.352 164.242,303.600 167.551,303.600 170.123 C 303.600 171.048,303.324 172.042,302.953 172.452 C 302.543 172.905,302.097 174.745,301.735 177.483 C 301.421 179.857,300.811 183.093,300.379 184.674 C 299.948 186.255,299.479 189.180,299.338 191.174 C 299.196 193.168,298.918 194.800,298.720 194.800 C 298.053 194.800,297.308 197.376,297.053 200.559 C 296.914 202.296,296.615 203.940,296.390 204.213 C 295.782 204.945,294.801 211.009,294.801 214.039 C 294.800 216.094,294.625 216.880,294.008 217.590 C 293.196 218.527,293.019 219.249,292.580 223.400 C 292.441 224.720,292.044 226.116,291.699 226.503 C 291.303 226.946,290.897 228.716,290.599 231.303 C 290.092 235.707,289.887 235.456,289.404 229.848 C 289.274 228.334,288.880 226.444,288.530 225.648 C 288.180 224.851,287.669 222.438,287.395 220.285 C 287.104 217.998,286.646 216.086,286.292 215.685 C 285.950 215.299,285.481 213.432,285.216 211.400 C 284.957 209.420,284.398 207.012,283.973 206.049 C 283.548 205.086,283.196 203.466,283.192 202.449 C 283.179 199.328,282.424 195.134,281.641 193.835 C 281.198 193.099,280.814 191.498,280.692 189.872 C 280.540 187.841,280.272 186.916,279.644 186.247 C 279.048 185.612,278.800 184.828,278.799 183.574 C 278.797 180.504,277.959 174.650,277.343 173.400 C 277.017 172.740,276.585 170.763,276.382 169.008 C 276.135 166.862,275.744 165.451,275.191 164.702 C 274.565 163.856,274.281 162.603,274.007 159.475 C 273.808 157.212,273.357 154.511,273.004 153.473 C 272.652 152.435,272.197 150.127,271.994 148.344 C 271.790 146.561,271.253 144.336,270.800 143.400 C 270.347 142.464,269.808 140.223,269.602 138.419 C 269.369 136.371,268.923 134.646,268.414 133.823 C 267.894 132.981,267.596 131.801,267.588 130.553 C 267.568 127.443,266.854 122.742,266.263 121.834 C 265.965 121.375,265.511 119.560,265.254 117.800 C 264.992 116.009,264.466 114.160,264.059 113.600 C 263.659 113.050,263.214 112.127,263.070 111.548 C 262.915 110.922,262.442 110.397,261.904 110.253 C 259.950 109.730,240.651 110.009,239.338 110.580 M230.539 111.149 C 231.508 111.953,231.537 128.006,230.571 128.971 C 230.025 129.518,228.194 129.600,216.571 129.600 C 209.217 129.600,203.157 129.645,203.104 129.700 C 203.051 129.755,202.916 165.120,202.804 208.289 L 202.600 286.778 201.690 287.689 C 200.486 288.893,179.909 289.356,178.172 288.219 C 176.096 286.858,176.214 291.225,176.000 208.085 C 175.824 139.587,175.729 130.326,175.200 129.992 C 174.853 129.772,168.839 129.610,160.914 129.606 C 147.796 129.600,147.211 129.568,146.814 128.826 C 146.055 127.407,146.276 112.000,147.069 111.124 C 147.961 110.138,229.350 110.163,230.539 111.149 M261.911 111.023 C 262.400 111.365,262.800 111.915,262.800 112.245 C 262.800 112.574,263.143 113.599,263.563 114.522 C 263.982 115.445,264.615 117.882,264.969 119.939 C 265.324 121.995,265.786 124.000,265.997 124.394 C 266.208 124.788,266.662 127.399,267.007 130.195 C 267.360 133.058,267.899 135.685,268.242 136.207 C 268.576 136.717,269.092 138.751,269.389 140.727 C 269.686 142.703,270.122 144.681,270.359 145.123 C 270.595 145.565,271.141 148.084,271.571 150.722 C 272.001 153.359,272.620 156.481,272.946 157.658 C 273.272 158.836,273.655 160.880,273.798 162.200 C 273.940 163.520,274.393 165.260,274.805 166.067 C 275.216 166.874,275.751 169.034,275.994 170.867 C 276.236 172.700,276.691 175.107,277.004 176.215 C 277.317 177.323,277.765 179.933,278.000 182.015 C 278.255 184.273,278.750 186.421,279.227 187.339 C 279.668 188.185,280.223 190.345,280.461 192.139 C 280.700 193.932,281.120 195.850,281.394 196.400 C 281.990 197.594,282.248 198.977,282.800 203.935 C 283.029 205.989,283.472 208.166,283.786 208.773 C 284.099 209.379,284.470 210.848,284.611 212.037 C 284.751 213.227,285.282 215.460,285.791 217.000 C 286.300 218.540,286.923 221.510,287.176 223.600 C 287.428 225.690,287.890 228.120,288.202 229.000 C 288.515 229.880,288.963 231.860,289.200 233.400 C 289.998 238.606,290.409 238.688,291.019 233.765 C 291.180 232.464,291.562 230.686,291.868 229.814 C 292.174 228.942,292.696 226.426,293.027 224.223 C 293.358 222.019,293.902 219.799,294.236 219.288 C 294.571 218.778,295.101 216.411,295.414 214.029 C 295.727 211.647,296.159 209.233,296.375 208.666 C 296.591 208.099,297.039 205.558,297.372 203.019 C 297.705 200.480,298.251 197.876,298.584 197.231 C 298.918 196.586,299.458 194.279,299.784 192.104 C 300.111 189.929,300.634 187.531,300.945 186.775 C 301.257 186.019,301.732 183.420,302.000 181.000 C 302.268 178.580,302.732 176.006,303.031 175.281 C 303.331 174.555,303.782 172.395,304.035 170.481 C 304.288 168.566,304.834 166.331,305.249 165.513 C 305.687 164.648,306.169 162.432,306.398 160.221 C 306.615 158.128,306.990 155.647,307.231 154.708 C 307.472 153.769,308.024 150.930,308.459 148.400 C 308.893 145.870,309.502 143.410,309.812 142.933 C 310.122 142.456,310.580 140.388,310.829 138.338 C 311.078 136.288,311.526 133.979,311.825 133.206 C 312.123 132.433,312.649 129.575,312.994 126.855 C 313.338 124.135,313.814 121.548,314.050 121.106 C 314.287 120.664,314.803 118.504,315.198 116.304 C 316.268 110.351,315.740 110.628,326.310 110.468 C 339.952 110.262,340.963 110.589,339.508 114.737 C 339.148 115.761,338.569 118.121,338.220 119.981 C 337.871 121.840,337.321 123.766,336.997 124.261 C 336.673 124.755,336.215 126.887,335.980 128.997 C 335.745 131.108,335.287 133.586,334.964 134.503 C 334.640 135.421,334.109 137.941,333.784 140.105 C 333.459 142.268,332.932 144.437,332.613 144.925 C 332.293 145.412,331.745 147.593,331.394 149.772 C 331.044 151.950,330.603 154.020,330.415 154.372 C 330.227 154.723,329.792 157.032,329.449 159.502 C 329.105 161.972,328.558 164.508,328.233 165.137 C 327.907 165.766,327.374 167.940,327.048 169.967 C 326.721 171.994,326.288 173.866,326.085 174.126 C 325.571 174.786,324.802 178.087,324.792 179.677 C 324.787 180.405,324.508 182.170,324.172 183.600 C 323.836 185.030,323.223 187.910,322.810 190.000 C 322.398 192.090,321.687 194.513,321.230 195.385 C 320.774 196.256,320.396 197.696,320.392 198.585 C 320.387 199.473,320.117 201.370,319.793 202.800 C 319.468 204.230,318.824 207.468,318.362 209.996 C 317.899 212.524,317.268 215.081,316.959 215.679 C 316.650 216.278,316.203 218.162,315.965 219.867 C 315.728 221.572,315.289 223.441,314.990 224.020 C 314.690 224.599,314.171 227.163,313.836 229.717 C 313.501 232.271,312.972 234.971,312.660 235.717 C 312.349 236.463,311.872 238.407,311.602 240.037 C 311.331 241.667,310.794 243.720,310.408 244.600 C 310.022 245.480,309.502 248.051,309.253 250.312 C 309.004 252.574,308.539 255.051,308.219 255.817 C 307.899 256.583,307.440 258.648,307.199 260.407 C 306.958 262.165,306.322 264.548,305.785 265.702 C 305.247 266.856,304.802 268.430,304.796 269.200 C 304.789 269.970,304.515 271.770,304.188 273.200 C 303.860 274.630,303.253 277.906,302.838 280.479 C 302.088 285.131,301.548 286.440,299.683 288.126 C 298.944 288.794,298.087 288.842,289.004 288.726 C 277.870 288.584,277.927 288.601,277.387 285.271 C 277.255 284.462,276.891 282.961,276.577 281.935 C 276.264 280.910,275.729 278.120,275.389 275.735 C 275.049 273.351,274.504 270.770,274.177 270.000 C 273.851 269.230,273.328 267.126,273.015 265.325 C 272.702 263.523,272.188 261.543,271.872 260.925 C 271.557 260.306,271.081 258.180,270.814 256.200 C 270.548 254.220,270.001 251.250,269.599 249.600 C 269.197 247.950,268.670 245.498,268.429 244.151 C 268.187 242.804,267.722 241.165,267.394 240.508 C 267.066 239.851,266.598 237.803,266.354 235.957 C 266.110 234.111,265.650 231.970,265.333 231.200 C 265.015 230.430,264.500 227.864,264.187 225.499 C 263.875 223.133,263.350 220.677,263.021 220.041 C 262.692 219.405,262.312 218.100,262.177 217.142 C 262.042 216.184,261.506 213.870,260.987 212.000 C 260.468 210.130,259.844 206.890,259.601 204.800 C 259.359 202.710,258.899 200.602,258.581 200.115 C 258.262 199.628,257.820 197.918,257.599 196.315 C 257.378 194.712,256.846 192.410,256.417 191.200 C 255.988 189.990,255.347 187.226,254.993 185.059 C 254.639 182.891,254.186 180.688,253.986 180.164 C 253.787 179.640,253.429 177.633,253.190 175.705 C 252.934 173.640,252.434 171.652,251.972 170.867 C 251.541 170.133,251.016 168.333,250.806 166.867 C 250.597 165.400,250.059 162.776,249.612 161.036 C 249.166 159.296,248.800 157.280,248.800 156.556 C 248.800 154.709,247.995 151.165,247.354 150.185 C 247.057 149.733,246.622 147.978,246.387 146.285 C 246.151 144.593,245.626 142.441,245.220 141.504 C 244.814 140.567,244.269 137.918,244.008 135.617 C 243.748 133.317,243.295 130.970,243.000 130.401 C 242.706 129.832,242.278 128.019,242.049 126.371 C 241.820 124.723,241.280 122.571,240.850 121.587 C 239.417 118.312,238.897 112.013,239.986 111.131 C 241.255 110.103,260.463 110.009,261.911 111.023 M89.014 159.246 C 85.000 159.502,83.599 159.742,82.814 160.309 C 82.256 160.711,80.932 161.367,79.870 161.765 C 78.809 162.163,77.849 162.728,77.737 163.020 C 77.625 163.312,76.963 163.675,76.267 163.826 C 75.179 164.062,72.970 165.619,71.325 167.311 C 69.880 168.798,68.000 171.349,68.000 171.824 C 68.000 172.125,67.652 172.558,67.227 172.786 C 66.802 173.013,66.334 173.604,66.187 174.100 C 66.040 174.595,65.484 175.645,64.951 176.434 C 64.267 177.446,63.906 178.680,63.725 180.624 C 63.540 182.606,63.258 183.550,62.722 183.989 C 62.155 184.453,61.878 185.513,61.569 188.400 C 61.345 190.490,60.855 192.830,60.481 193.600 C 59.443 195.733,59.438 252.835,60.475 255.600 C 60.846 256.590,61.340 259.019,61.573 260.998 C 61.862 263.462,62.248 264.939,62.798 265.682 C 63.239 266.279,63.604 267.360,63.610 268.084 C 63.625 270.216,64.273 272.413,65.167 273.364 C 65.625 273.852,66.000 274.563,66.000 274.944 C 66.000 275.325,66.418 276.055,66.930 276.566 C 67.441 277.077,68.169 278.149,68.548 278.948 C 68.927 279.747,69.403 280.400,69.606 280.400 C 69.809 280.400,70.216 280.861,70.512 281.425 C 70.807 281.990,71.428 282.665,71.891 282.925 C 72.353 283.186,73.838 284.262,75.190 285.315 C 76.542 286.368,78.222 287.343,78.924 287.482 C 79.626 287.620,80.689 288.093,81.287 288.533 C 82.139 289.158,83.363 289.403,86.933 289.661 C 89.594 289.854,91.971 290.241,92.645 290.593 C 94.256 291.433,103.060 291.454,104.250 290.620 C 104.746 290.272,106.882 289.886,109.597 289.652 C 113.019 289.358,114.374 289.074,115.174 288.482 C 115.756 288.052,116.815 287.572,117.529 287.416 C 118.243 287.259,119.401 286.606,120.102 285.965 C 120.804 285.324,121.598 284.800,121.866 284.800 C 122.135 284.800,122.590 284.469,122.877 284.063 C 123.165 283.658,123.805 283.112,124.300 282.849 C 124.795 282.587,125.200 282.129,125.200 281.832 C 125.200 281.535,125.650 280.997,126.200 280.637 C 126.750 280.276,127.200 279.742,127.200 279.450 C 127.200 279.158,127.745 278.348,128.412 277.651 C 129.078 276.953,129.731 275.847,129.862 275.191 C 129.993 274.536,130.238 274.000,130.407 274.000 C 130.893 274.000,132.000 270.907,132.000 269.550 C 132.000 268.834,132.399 267.841,132.950 267.186 C 133.690 266.307,133.965 265.363,134.193 262.928 C 134.354 261.208,134.761 259.266,135.098 258.613 C 135.540 257.756,135.766 255.678,135.911 251.148 L 136.111 244.871 134.156 243.643 L 132.200 242.415 123.600 242.412 C 109.566 242.407,110.400 241.824,110.400 251.640 C 110.400 258.492,110.351 258.954,109.404 260.955 C 108.856 262.113,108.288 263.677,108.142 264.430 C 107.996 265.184,107.454 266.309,106.938 266.931 C 106.422 267.553,106.000 268.213,106.000 268.398 C 106.000 270.377,94.956 271.382,92.701 269.608 C 92.147 269.172,91.223 268.637,90.647 268.418 C 90.071 268.199,89.600 267.717,89.600 267.348 C 89.600 266.978,89.164 266.104,88.631 265.405 C 87.947 264.509,87.535 263.227,87.234 261.062 C 86.999 259.373,86.535 257.341,86.203 256.546 C 85.704 255.350,85.600 252.638,85.600 240.751 L 85.600 226.400 109.139 226.400 C 133.969 226.400,134.114 226.390,135.595 224.607 C 136.396 223.641,135.948 197.838,135.097 195.968 C 134.712 195.120,134.340 192.835,134.186 190.368 C 133.991 187.241,133.693 185.701,132.994 184.200 C 132.481 183.100,131.967 181.265,131.852 180.122 C 131.737 178.979,131.183 177.180,130.621 176.125 C 130.060 175.070,129.600 173.959,129.600 173.656 C 129.600 173.353,129.063 172.452,128.407 171.653 C 127.750 170.854,126.715 169.591,126.107 168.847 C 123.399 165.538,121.692 163.998,120.459 163.752 C 119.751 163.610,118.995 163.164,118.779 162.761 C 118.563 162.358,117.625 161.806,116.693 161.534 C 115.762 161.262,114.550 160.717,114.000 160.324 C 112.184 159.024,100.454 158.518,89.014 159.246 M113.088 160.923 C 114.456 161.515,115.851 162.000,116.188 162.000 C 116.525 162.000,117.156 162.356,117.591 162.791 C 118.026 163.226,118.982 163.832,119.715 164.139 C 121.394 164.840,126.219 169.678,127.244 171.686 C 127.669 172.519,128.177 173.200,128.373 173.200 C 128.805 173.200,130.158 176.982,131.384 181.622 C 131.882 183.505,132.473 185.395,132.698 185.822 C 133.603 187.542,134.718 200.867,135.075 214.223 L 135.321 223.447 134.207 224.323 L 133.092 225.200 109.336 225.200 L 85.580 225.200 85.190 226.226 C 84.539 227.938,84.719 253.239,85.408 256.800 C 87.610 268.184,89.657 270.680,97.131 271.092 C 103.820 271.461,106.432 270.395,108.135 266.600 C 110.563 261.193,110.524 261.395,110.677 253.600 C 110.758 249.530,110.907 245.813,111.009 245.340 C 111.331 243.853,113.114 243.600,123.278 243.600 L 132.836 243.600 133.818 244.582 C 135.022 245.786,135.062 247.159,134.182 257.200 C 133.704 262.659,133.386 264.552,132.738 265.800 C 132.280 266.680,131.658 268.350,131.355 269.510 C 131.053 270.671,130.554 272.021,130.247 272.510 C 129.940 273.000,129.475 274.075,129.214 274.900 C 128.952 275.725,128.576 276.400,128.377 276.400 C 128.179 276.400,127.665 277.075,127.237 277.900 C 125.495 281.251,118.553 286.782,115.329 287.387 C 114.534 287.536,113.482 287.921,112.992 288.242 C 109.765 290.356,87.370 290.357,83.282 288.243 C 82.643 287.912,81.239 287.424,80.160 287.158 C 79.082 286.892,77.624 286.208,76.920 285.637 C 76.216 285.067,75.226 284.288,74.720 283.907 C 74.214 283.525,73.298 282.832,72.684 282.365 C 71.220 281.252,66.825 275.393,66.280 273.826 C 66.045 273.152,65.542 272.060,65.162 271.400 C 64.781 270.740,64.289 269.001,64.067 267.535 C 63.845 266.069,63.374 264.427,63.020 263.887 C 62.667 263.347,62.212 261.487,62.010 259.753 C 61.807 258.019,61.322 254.620,60.931 252.200 C 59.886 245.741,59.863 202.509,60.901 197.000 C 61.274 195.020,61.753 191.852,61.965 189.960 C 62.177 188.066,62.704 185.819,63.137 184.960 C 63.569 184.102,64.046 182.500,64.196 181.400 C 64.347 180.300,64.793 178.860,65.187 178.200 C 65.581 177.540,66.110 176.351,66.363 175.559 C 66.616 174.766,67.268 173.700,67.812 173.189 C 68.355 172.678,68.800 172.061,68.800 171.817 C 68.800 170.622,75.134 164.979,77.583 163.992 C 78.343 163.685,79.288 163.112,79.683 162.717 C 80.077 162.323,80.655 162.000,80.967 162.000 C 81.279 162.000,82.404 161.619,83.467 161.153 C 87.981 159.174,108.676 159.014,113.088 160.923 M94.715 177.989 C 92.447 178.289,89.996 179.835,89.050 181.562 C 88.858 181.913,88.443 182.407,88.129 182.660 C 87.814 182.913,87.209 184.983,86.784 187.260 C 86.359 189.537,85.829 192.210,85.607 193.200 C 84.912 196.298,84.600 209.352,85.188 210.771 L 85.697 212.000 97.834 212.000 C 109.425 212.000,109.991 211.965,110.386 211.226 C 110.902 210.262,110.916 192.062,110.402 189.800 C 108.080 179.581,104.284 176.723,94.715 177.989 M104.996 180.171 C 105.768 180.878,106.400 181.659,106.400 181.906 C 106.400 182.153,106.720 182.590,107.111 182.877 C 107.531 183.185,108.032 184.438,108.333 185.929 C 108.614 187.321,109.197 189.137,109.629 189.966 C 110.356 191.361,110.407 192.189,110.307 201.037 L 110.200 210.600 97.900 210.706 L 85.600 210.812 85.600 204.056 C 85.600 199.117,85.759 196.850,86.191 195.624 C 86.517 194.702,86.983 191.946,87.228 189.500 C 87.594 185.836,87.842 184.829,88.636 183.788 C 89.166 183.093,89.600 182.231,89.600 181.873 C 89.600 181.514,90.118 180.953,90.752 180.625 C 91.385 180.298,92.005 179.763,92.131 179.436 C 92.761 177.793,103.040 178.379,104.996 180.171 " stroke="none" fill="#d6e4fc" fill-rule="evenodd"></path></g></svg>