<svg id="svg" version="1.1" xmlns="http://www.w3.org/2000/svg" xmlns:xlink="http://www.w3.org/1999/xlink" width="400" height="400" viewBox="0, 0, 400,400"><g id="svgg"><path id="path0" d="M147.200 119.995 L 147.200 128.790 162.100 128.895 L 177.000 129.000 177.200 208.200 L 177.400 287.400 189.400 287.400 L 201.400 287.400 201.501 208.100 L 201.602 128.800 216.001 128.800 L 230.400 128.800 230.400 120.000 L 230.400 111.200 188.800 111.200 L 147.200 111.200 147.200 119.995 M239.782 112.494 C 240.041 113.855,240.610 116.405,241.189 118.800 C 241.375 119.570,241.731 121.190,241.980 122.400 C 242.230 123.610,242.592 125.230,242.787 126.000 C 242.981 126.770,243.353 128.480,243.613 129.800 C 243.873 131.120,244.227 132.650,244.400 133.200 C 244.573 133.750,244.937 135.280,245.210 136.600 C 245.676 138.858,246.772 143.810,247.600 147.400 C 247.803 148.280,248.435 151.160,249.004 153.800 C 250.144 159.083,250.471 160.545,251.375 164.400 C 251.710 165.830,252.186 167.990,252.433 169.200 C 252.679 170.410,253.052 172.120,253.262 173.000 C 253.472 173.880,253.814 175.365,254.022 176.300 C 254.230 177.235,254.580 178.810,254.800 179.800 C 255.020 180.790,255.380 182.410,255.600 183.400 C 255.820 184.390,256.180 186.010,256.400 187.000 C 256.620 187.990,256.970 189.565,257.178 190.500 C 257.386 191.435,257.747 193.010,257.981 194.000 C 258.214 194.990,258.575 196.610,258.782 197.600 C 258.990 198.590,259.330 200.120,259.539 201.000 C 259.748 201.880,260.136 203.590,260.400 204.800 C 260.664 206.010,261.024 207.630,261.200 208.400 C 261.376 209.170,261.736 210.790,262.000 212.000 C 262.706 215.233,262.856 215.901,265.800 229.000 C 267.284 235.600,268.655 241.810,268.846 242.800 C 269.038 243.790,269.376 245.365,269.598 246.300 C 269.819 247.235,270.181 248.765,270.402 249.700 C 270.624 250.635,270.975 252.210,271.182 253.200 C 271.390 254.190,271.750 255.810,271.982 256.800 C 272.215 257.790,272.575 259.410,272.782 260.400 C 272.990 261.390,273.330 262.920,273.539 263.800 C 273.972 265.623,274.730 269.046,275.222 271.400 C 275.406 272.280,275.755 273.810,275.998 274.800 C 276.242 275.790,276.610 277.410,276.818 278.400 C 277.025 279.390,277.378 281.010,277.601 282.000 C 277.824 282.990,278.120 284.430,278.259 285.200 C 278.704 287.671,278.367 287.600,289.606 287.600 C 301.116 287.600,300.123 287.867,300.777 284.600 C 301.096 283.012,304.087 269.268,304.782 266.200 C 305.400 263.472,305.983 260.876,306.400 259.000 C 306.620 258.010,306.971 256.435,307.180 255.500 C 307.390 254.565,307.766 252.810,308.017 251.600 C 308.268 250.390,308.625 248.770,308.811 248.000 C 309.315 245.914,309.905 243.270,310.417 240.800 C 310.668 239.590,311.029 237.970,311.220 237.200 C 311.410 236.430,311.770 234.810,312.020 233.600 C 312.269 232.390,312.625 230.770,312.811 230.000 C 312.997 229.230,313.328 227.790,313.547 226.800 C 313.765 225.810,314.137 224.145,314.372 223.100 C 314.607 222.055,314.993 220.345,315.228 219.300 C 316.061 215.601,316.375 214.167,317.001 211.200 C 317.349 209.550,317.884 207.120,318.189 205.800 C 318.494 204.480,319.215 201.150,319.792 198.400 C 320.368 195.650,321.098 192.320,321.413 191.000 C 321.728 189.680,322.352 186.890,322.801 184.800 C 324.248 178.059,324.474 177.027,324.862 175.400 C 325.072 174.520,325.414 173.035,325.622 172.100 C 325.830 171.165,326.180 169.590,326.400 168.600 C 326.620 167.610,326.980 165.990,327.200 165.000 C 327.420 164.010,327.780 162.390,328.000 161.400 C 328.220 160.410,328.580 158.790,328.800 157.800 C 329.020 156.810,329.380 155.190,329.600 154.200 C 329.820 153.210,330.170 151.635,330.379 150.700 C 330.587 149.765,330.866 148.460,331.000 147.800 C 331.307 146.285,331.949 143.419,332.389 141.600 C 332.575 140.830,332.932 139.210,333.183 138.000 C 333.719 135.414,334.185 133.286,334.760 130.800 C 334.989 129.810,335.824 126.030,336.614 122.400 C 337.405 118.770,338.283 114.810,338.566 113.600 L 339.081 111.400 328.281 111.293 C 322.340 111.235,317.395 111.272,317.291 111.376 C 317.115 111.552,314.751 122.327,314.302 125.000 C 314.191 125.660,313.517 128.990,312.804 132.400 C 312.091 135.810,311.333 139.500,311.119 140.600 C 310.905 141.700,310.557 143.410,310.346 144.400 C 310.136 145.390,309.800 147.010,309.600 148.000 C 309.400 148.990,309.065 150.610,308.855 151.600 C 308.646 152.590,308.261 154.480,308.000 155.800 C 307.739 157.120,307.354 159.010,307.145 160.000 C 306.935 160.990,306.601 162.610,306.402 163.600 C 305.982 165.696,305.291 169.040,304.749 171.600 C 304.539 172.590,304.198 174.300,303.990 175.400 C 303.783 176.500,303.430 178.210,303.206 179.200 C 302.981 180.190,302.633 181.900,302.431 183.000 C 302.230 184.100,301.686 186.800,301.224 189.000 C 300.380 193.014,296.175 213.603,295.588 216.600 C 294.735 220.949,294.368 222.751,294.000 224.400 C 293.779 225.390,293.402 227.190,293.162 228.400 C 292.922 229.610,292.579 231.320,292.400 232.200 C 292.221 233.080,291.884 234.790,291.652 236.000 C 291.051 239.136,290.592 240.600,290.212 240.600 C 289.779 240.600,288.514 235.006,282.975 208.600 C 282.606 206.840,282.144 204.680,281.949 203.800 C 281.755 202.920,281.408 201.300,281.180 200.200 C 280.952 199.100,280.601 197.480,280.400 196.600 C 280.199 195.720,279.831 194.010,279.582 192.800 C 279.050 190.212,278.553 187.890,278.000 185.400 C 277.780 184.410,277.440 182.835,277.244 181.900 C 277.048 180.965,276.668 179.210,276.400 178.000 C 276.132 176.790,275.752 175.035,275.556 174.100 C 275.360 173.165,275.020 171.590,274.800 170.600 C 274.580 169.610,274.244 168.035,274.053 167.100 C 273.863 166.165,273.333 163.690,272.876 161.600 C 271.512 155.363,267.985 138.890,266.752 133.000 C 266.291 130.800,265.771 128.370,265.597 127.600 C 265.078 125.304,264.336 121.913,263.956 120.100 C 263.760 119.165,263.411 117.545,263.181 116.500 C 262.950 115.455,262.635 113.880,262.481 113.000 L 262.200 111.400 250.867 111.294 L 239.534 111.187 239.782 112.494 M92.800 160.402 C 87.393 160.849,83.520 161.768,80.082 163.421 C 65.137 170.609,61.193 183.146,61.206 223.423 C 61.220 266.787,65.408 280.245,80.800 286.383 C 94.862 291.990,119.148 288.718,124.109 280.548 C 124.279 280.268,124.647 279.806,124.928 279.520 C 130.185 274.164,133.823 261.422,133.528 249.400 L 133.400 244.200 122.709 244.093 L 112.019 243.987 111.834 244.893 C 111.732 245.392,111.548 249.040,111.425 253.000 C 110.927 268.967,105.969 274.846,95.200 272.239 C 85.839 269.973,84.400 265.798,84.400 240.900 L 84.400 224.800 109.200 224.800 L 134.000 224.800 133.989 216.300 C 133.972 202.879,132.942 190.867,131.186 183.600 C 130.947 182.610,130.651 181.303,130.529 180.695 C 130.407 180.087,130.149 179.492,129.954 179.371 C 129.759 179.251,129.600 178.891,129.600 178.572 C 129.600 176.523,125.823 170.689,122.335 167.351 C 116.355 161.628,106.381 159.282,92.800 160.402 M104.665 178.026 C 109.948 180.958,111.153 185.064,111.486 201.278 L 111.713 212.356 110.757 212.590 C 110.231 212.719,104.130 212.773,97.200 212.712 L 84.600 212.600 84.485 204.000 C 84.193 182.213,87.358 176.512,99.465 177.020 C 102.250 177.137,103.498 177.378,104.665 178.026 " stroke="none" fill="#1da4cc" fill-rule="evenodd"></path><path id="path1" d="M30.600 0.292 C 29.720 0.381,28.829 0.621,28.620 0.827 C 28.411 1.032,27.914 1.200,27.515 1.200 C 27.116 1.200,26.432 1.380,25.995 1.600 C 25.558 1.820,24.842 2.180,24.405 2.400 C 23.968 2.620,23.353 2.800,23.039 2.800 C 22.724 2.800,22.407 2.935,22.333 3.100 C 22.260 3.265,21.345 3.833,20.300 4.363 C 19.255 4.892,18.400 5.477,18.400 5.663 C 18.400 5.848,18.128 6.000,17.796 6.000 C 17.464 6.000,16.628 6.540,15.937 7.200 C 15.246 7.860,14.505 8.400,14.288 8.400 C 13.791 8.400,8.400 13.811,8.400 14.310 C 8.400 14.514,7.860 15.246,7.200 15.937 C 6.540 16.628,6.000 17.464,6.000 17.796 C 6.000 18.128,5.848 18.400,5.663 18.400 C 5.477 18.400,4.892 19.255,4.363 20.300 C 3.833 21.345,3.265 22.260,3.100 22.333 C 2.935 22.407,2.800 22.724,2.800 23.039 C 2.800 23.353,2.641 23.923,2.447 24.305 C 1.879 25.421,1.330 26.872,0.746 28.800 C -0.030 31.360,-0.076 370.841,0.700 371.100 C 0.975 371.192,1.200 371.704,1.200 372.239 C 1.200 372.773,1.380 373.568,1.600 374.005 C 1.820 374.442,2.180 375.158,2.400 375.595 C 2.620 376.032,2.800 376.662,2.800 376.995 C 2.800 377.328,2.980 377.600,3.200 377.600 C 3.420 377.600,3.600 377.960,3.600 378.400 C 3.600 378.840,3.780 379.200,4.000 379.200 C 4.220 379.200,4.400 379.520,4.400 379.912 C 4.400 380.303,4.760 380.883,5.200 381.200 C 5.640 381.517,6.000 382.057,6.000 382.400 C 6.000 382.743,6.360 383.283,6.800 383.600 C 7.240 383.917,7.600 384.418,7.600 384.713 C 7.600 385.531,14.673 392.400,15.515 392.400 C 15.684 392.400,16.083 392.760,16.400 393.200 C 16.717 393.640,17.257 394.000,17.600 394.000 C 17.943 394.000,18.483 394.360,18.800 394.800 C 19.117 395.240,19.697 395.600,20.088 395.600 C 20.480 395.600,20.800 395.780,20.800 396.000 C 20.800 396.220,21.160 396.400,21.600 396.400 C 22.040 396.400,22.400 396.580,22.400 396.800 C 22.400 397.020,22.672 397.200,23.005 397.200 C 23.338 397.200,23.923 397.359,24.305 397.553 C 25.421 398.121,26.872 398.670,28.800 399.254 C 30.308 399.712,58.077 399.800,200.000 399.800 C 375.277 399.800,370.856 399.837,373.695 398.361 C 374.077 398.162,374.752 398.000,375.195 398.000 C 375.638 398.000,376.000 397.820,376.000 397.600 C 376.000 397.380,376.360 397.200,376.800 397.200 C 377.240 397.200,377.600 397.020,377.600 396.800 C 377.600 396.580,377.960 396.400,378.400 396.400 C 378.840 396.400,379.200 396.220,379.200 396.000 C 379.200 395.780,379.520 395.600,379.912 395.600 C 380.303 395.600,380.883 395.240,381.200 394.800 C 381.517 394.360,382.009 394.000,382.292 394.000 C 382.575 394.000,383.372 393.460,384.063 392.800 C 384.754 392.140,385.485 391.600,385.688 391.600 C 385.891 391.600,386.283 391.375,386.558 391.100 C 386.834 390.825,387.629 390.150,388.326 389.600 C 389.023 389.050,389.594 388.396,389.596 388.146 C 389.598 387.896,390.050 387.397,390.600 387.037 C 391.150 386.676,391.600 386.142,391.600 385.850 C 391.600 385.558,392.140 384.754,392.800 384.063 C 393.460 383.372,394.000 382.575,394.000 382.292 C 394.000 382.009,394.360 381.517,394.800 381.200 C 395.240 380.883,395.600 380.303,395.600 379.912 C 395.600 379.520,395.780 379.200,396.000 379.200 C 396.220 379.200,396.400 378.840,396.400 378.400 C 396.400 377.960,396.580 377.600,396.800 377.600 C 397.020 377.600,397.200 377.240,397.200 376.800 C 397.200 376.360,397.380 376.000,397.600 376.000 C 397.820 376.000,398.000 375.561,398.000 375.024 C 398.000 374.487,398.180 373.936,398.400 373.800 C 398.620 373.664,398.800 372.923,398.800 372.153 C 398.800 371.383,398.963 370.854,399.163 370.977 C 400.266 371.659,400.343 31.157,399.240 28.400 C 398.932 27.630,398.506 26.550,398.294 26.000 C 398.081 25.450,397.748 24.687,397.553 24.305 C 397.359 23.923,397.200 23.338,397.200 23.005 C 397.200 22.672,397.020 22.400,396.800 22.400 C 396.580 22.400,396.400 22.040,396.400 21.600 C 396.400 21.160,396.220 20.800,396.000 20.800 C 395.780 20.800,395.600 20.480,395.600 20.088 C 395.600 19.697,395.240 19.117,394.800 18.800 C 394.360 18.483,394.000 17.943,394.000 17.600 C 394.000 17.257,393.640 16.717,393.200 16.400 C 392.760 16.083,392.400 15.684,392.400 15.515 C 392.400 14.673,385.531 7.600,384.713 7.600 C 384.418 7.600,383.917 7.240,383.600 6.800 C 383.283 6.360,382.743 6.000,382.400 6.000 C 382.057 6.000,381.517 5.640,381.200 5.200 C 380.883 4.760,380.303 4.400,379.912 4.400 C 379.520 4.400,379.200 4.220,379.200 4.000 C 379.200 3.780,378.840 3.600,378.400 3.600 C 377.960 3.600,377.600 3.420,377.600 3.200 C 377.600 2.980,377.328 2.800,376.995 2.800 C 376.662 2.800,376.032 2.620,375.595 2.400 C 375.158 2.180,374.442 1.820,374.005 1.600 C 373.568 1.380,372.773 1.200,372.239 1.200 C 371.704 1.200,371.192 0.975,371.100 0.700 C 370.942 0.225,35.249 -0.178,30.600 0.292 M230.307 110.254 L 231.214 110.497 231.107 119.949 L 231.000 129.400 216.600 129.600 L 202.200 129.800 202.000 209.000 L 201.800 288.200 189.200 288.200 L 176.600 288.200 176.499 208.900 L 176.398 129.600 161.599 129.600 L 146.800 129.600 146.800 120.067 C 146.800 114.823,146.920 110.413,147.067 110.267 C 147.400 109.933,229.064 109.921,230.307 110.254 M262.056 110.500 C 262.633 110.975,263.268 112.751,263.806 115.400 C 263.940 116.060,264.210 117.410,264.406 118.400 C 264.743 120.099,265.061 121.575,266.000 125.800 C 266.220 126.790,266.560 128.365,266.756 129.300 C 266.952 130.235,267.307 131.900,267.545 133.000 C 268.402 136.965,270.459 146.663,271.065 149.600 C 271.406 151.250,271.849 153.320,272.051 154.200 C 272.252 155.080,272.517 156.520,272.639 157.400 C 272.761 158.280,273.016 159.360,273.206 159.800 C 273.395 160.240,273.642 161.230,273.753 162.000 C 273.864 162.770,274.157 164.300,274.404 165.400 C 274.650 166.500,274.949 168.120,275.067 169.000 C 275.185 169.880,275.444 170.771,275.641 170.980 C 275.838 171.189,276.000 172.008,276.000 172.800 C 276.000 173.592,276.162 174.411,276.359 174.620 C 276.556 174.829,276.815 175.720,276.933 176.600 C 277.051 177.480,277.340 179.055,277.574 180.100 C 277.808 181.145,278.180 182.810,278.400 183.800 C 278.620 184.790,278.990 186.455,279.222 187.500 C 279.454 188.545,279.736 190.030,279.847 190.800 C 279.958 191.570,280.207 192.560,280.400 193.000 C 280.593 193.440,280.842 194.430,280.953 195.200 C 281.064 195.970,281.346 197.455,281.578 198.500 C 281.810 199.545,282.180 201.210,282.400 202.200 C 282.620 203.190,282.960 204.765,283.156 205.700 C 283.538 207.524,284.257 210.809,284.841 213.400 C 285.040 214.280,285.373 215.900,285.581 217.000 C 285.910 218.731,286.783 222.864,288.455 230.600 C 289.186 233.979,289.601 236.122,289.888 238.000 L 290.164 239.800 290.495 238.000 C 290.676 237.010,291.008 235.300,291.233 234.200 C 291.457 233.100,291.740 231.480,291.861 230.600 C 291.983 229.720,292.244 228.829,292.441 228.620 C 292.638 228.411,292.800 227.502,292.800 226.600 C 292.800 225.698,292.962 224.789,293.159 224.580 C 293.356 224.371,293.617 223.480,293.739 222.600 C 293.965 220.956,294.435 218.512,295.198 215.000 C 295.437 213.900,295.805 212.100,296.016 211.000 C 296.227 209.900,296.561 208.190,296.758 207.200 C 296.955 206.210,297.324 204.320,297.579 203.000 C 297.833 201.680,298.557 198.080,299.186 195.000 C 299.816 191.920,300.415 188.950,300.516 188.400 C 300.729 187.248,301.806 181.973,302.189 180.200 C 302.332 179.540,302.610 178.190,302.806 177.200 C 303.003 176.210,303.336 174.590,303.546 173.600 C 304.056 171.206,304.758 167.815,305.202 165.600 C 305.401 164.610,305.760 162.900,306.000 161.800 C 306.240 160.700,306.614 158.900,306.831 157.800 C 307.048 156.700,307.407 154.900,307.629 153.800 C 307.852 152.700,308.127 151.170,308.241 150.400 C 308.356 149.630,308.607 148.640,308.800 148.200 C 308.993 147.760,309.244 146.770,309.359 146.000 C 309.616 144.266,310.736 138.564,311.598 134.600 C 311.837 133.500,312.205 131.700,312.416 130.600 C 312.627 129.500,312.962 127.790,313.161 126.800 C 313.360 125.810,313.799 123.560,314.138 121.800 C 315.790 113.209,316.352 111.024,317.041 110.521 C 317.582 110.125,320.236 110.000,328.103 110.000 C 338.767 110.000,340.317 110.203,339.803 111.531 C 339.661 111.899,339.359 113.100,339.132 114.200 C 338.905 115.300,338.576 116.830,338.402 117.600 C 338.227 118.370,337.806 120.350,337.466 122.000 C 337.125 123.650,336.472 126.710,336.015 128.800 C 335.558 130.890,334.989 133.500,334.751 134.600 C 334.514 135.700,334.148 137.320,333.938 138.200 C 333.728 139.080,333.386 140.565,333.178 141.500 C 332.970 142.435,332.620 144.010,332.400 145.000 C 332.180 145.990,331.820 147.610,331.600 148.600 C 331.380 149.590,331.020 151.210,330.800 152.200 C 330.580 153.190,330.220 154.810,330.000 155.800 C 329.780 156.790,329.408 158.455,329.174 159.500 C 328.940 160.545,328.651 162.076,328.532 162.903 C 328.413 163.729,328.155 164.505,327.958 164.626 C 327.761 164.748,327.600 165.546,327.600 166.400 C 327.600 167.254,327.420 168.064,327.200 168.200 C 326.980 168.336,326.800 169.146,326.800 170.000 C 326.800 170.854,326.620 171.664,326.400 171.800 C 326.180 171.936,326.000 172.721,326.000 173.544 C 326.000 174.367,325.838 175.211,325.641 175.420 C 325.444 175.629,325.185 176.520,325.067 177.400 C 324.949 178.280,324.652 179.900,324.408 181.000 C 324.164 182.100,323.870 183.540,323.755 184.200 C 323.640 184.860,323.389 185.760,323.198 186.200 C 323.006 186.640,322.758 187.630,322.647 188.400 C 322.429 189.904,322.223 190.900,320.660 198.000 C 318.446 208.058,317.247 213.555,316.756 215.900 C 316.293 218.110,315.748 220.557,315.219 222.800 C 314.692 225.037,314.026 228.216,313.753 229.800 C 313.639 230.460,313.390 231.360,313.200 231.800 C 312.843 232.628,312.513 234.237,312.136 237.000 C 312.016 237.880,311.756 238.771,311.559 238.980 C 311.362 239.189,311.200 240.033,311.200 240.856 C 311.200 241.679,311.020 242.464,310.800 242.600 C 310.580 242.736,310.400 243.546,310.400 244.400 C 310.400 245.254,310.220 246.064,310.000 246.200 C 309.780 246.336,309.600 247.146,309.600 248.000 C 309.600 248.854,309.444 249.649,309.253 249.767 C 309.062 249.885,308.794 250.751,308.656 251.691 C 308.151 255.147,307.938 256.218,307.600 257.000 C 307.410 257.440,307.145 258.430,307.012 259.200 C 306.645 261.319,306.095 264.016,305.664 265.800 C 305.133 268.002,304.593 270.463,303.865 274.000 C 303.525 275.650,302.867 278.710,302.404 280.800 C 301.940 282.890,301.456 285.272,301.328 286.094 C 300.963 288.444,301.082 288.423,289.151 288.307 L 278.200 288.200 278.083 287.200 C 278.019 286.650,277.805 285.840,277.608 285.400 C 277.411 284.960,277.142 283.880,277.009 283.000 C 276.877 282.120,276.667 280.724,276.542 279.897 C 276.418 279.071,276.155 278.295,275.958 278.174 C 275.761 278.052,275.600 277.254,275.600 276.400 C 275.600 275.546,275.420 274.736,275.200 274.600 C 274.980 274.464,274.800 273.654,274.800 272.800 C 274.800 271.946,274.639 271.148,274.442 271.026 C 274.245 270.905,273.987 270.129,273.868 269.303 C 273.749 268.476,273.460 266.945,273.226 265.900 C 272.992 264.855,272.620 263.190,272.400 262.200 C 272.180 261.210,271.820 259.590,271.600 258.600 C 271.380 257.610,271.020 255.990,270.800 255.000 C 270.580 254.010,270.230 252.435,270.022 251.500 C 269.814 250.565,269.472 249.080,269.262 248.200 C 269.052 247.320,268.664 245.610,268.400 244.400 C 268.136 243.190,267.779 241.570,267.608 240.800 C 267.437 240.030,266.993 237.960,266.622 236.200 C 266.251 234.440,265.670 231.920,265.330 230.600 C 264.990 229.280,264.468 226.940,264.170 225.400 C 263.872 223.860,263.440 221.790,263.211 220.800 C 262.983 219.810,262.608 218.100,262.380 217.000 C 262.152 215.900,261.781 214.190,261.557 213.200 C 261.332 212.210,261.051 210.724,260.932 209.897 C 260.813 209.071,260.555 208.295,260.358 208.174 C 260.161 208.052,260.000 207.254,260.000 206.400 C 260.000 205.546,259.820 204.736,259.600 204.600 C 259.380 204.464,259.200 203.654,259.200 202.800 C 259.200 201.946,259.020 201.136,258.800 201.000 C 258.580 200.864,258.400 200.054,258.400 199.200 C 258.400 198.346,258.220 197.536,258.000 197.400 C 257.780 197.264,257.600 196.454,257.600 195.600 C 257.600 194.746,257.439 193.948,257.242 193.826 C 257.045 193.705,256.787 192.929,256.668 192.103 C 256.549 191.276,256.252 189.700,256.008 188.600 C 255.764 187.500,255.470 186.060,255.355 185.400 C 255.240 184.740,254.989 183.840,254.798 183.400 C 254.606 182.960,254.361 181.970,254.254 181.200 C 254.146 180.430,253.855 178.990,253.607 178.000 C 253.062 175.826,252.575 173.674,252.020 171.000 C 251.792 169.900,251.415 168.190,251.182 167.200 C 250.950 166.210,250.605 164.590,250.417 163.600 C 250.229 162.610,249.519 159.370,248.840 156.400 C 248.161 153.430,247.404 150.010,247.159 148.800 C 246.914 147.590,246.553 146.078,246.357 145.440 C 246.161 144.802,246.000 143.778,246.000 143.164 C 246.000 142.550,245.820 141.936,245.600 141.800 C 245.380 141.664,245.200 140.854,245.200 140.000 C 245.200 139.146,245.039 138.348,244.842 138.226 C 244.506 138.018,244.354 137.299,243.759 133.100 C 243.626 132.165,243.356 131.229,243.159 131.020 C 242.962 130.811,242.800 129.967,242.800 129.144 C 242.800 128.321,242.639 127.548,242.442 127.426 C 242.245 127.305,241.971 126.439,241.833 125.503 C 241.218 121.345,241.095 120.782,240.758 120.574 C 240.561 120.452,240.400 119.654,240.400 118.800 C 240.400 117.946,240.220 117.136,240.000 117.000 C 239.780 116.864,239.600 116.054,239.600 115.200 C 239.600 114.346,239.420 113.536,239.200 113.400 C 238.644 113.056,238.699 111.061,239.280 110.480 C 239.980 109.780,261.202 109.798,262.056 110.500 M107.200 159.930 C 112.124 160.696,114.116 161.298,118.180 163.249 C 120.032 164.138,126.000 169.367,126.000 170.101 C 126.000 170.284,126.339 170.797,126.753 171.241 C 127.167 171.686,128.085 173.253,128.795 174.725 C 129.504 176.196,130.245 177.713,130.442 178.095 C 130.639 178.477,130.800 179.141,130.800 179.571 C 130.800 180.001,130.960 180.452,131.156 180.573 C 131.351 180.694,131.614 181.379,131.739 182.096 C 131.864 182.813,132.161 184.390,132.399 185.600 C 134.605 196.827,135.845 224.713,134.167 225.357 C 133.819 225.491,122.569 225.600,109.167 225.600 L 84.800 225.600 84.803 238.900 C 84.810 266.301,87.081 271.600,98.821 271.600 C 105.017 271.600,107.039 270.141,109.628 263.800 C 110.204 262.390,110.458 259.581,110.732 251.600 L 111.000 243.800 122.800 243.800 L 134.600 243.800 134.740 245.600 C 135.165 251.057,133.709 262.047,131.721 268.400 C 130.967 270.809,127.595 277.600,127.152 277.600 C 126.958 277.600,126.800 277.851,126.800 278.158 C 126.800 279.185,121.380 284.225,118.875 285.529 C 108.841 290.751,94.669 291.599,82.200 287.723 C 71.774 284.483,64.535 274.585,62.364 260.600 C 61.117 252.569,61.038 250.354,61.053 224.200 C 61.068 198.300,61.161 195.774,62.361 188.600 C 65.213 171.553,74.676 161.808,90.109 160.028 C 91.598 159.857,92.942 159.591,93.095 159.438 C 93.472 159.061,103.971 159.427,107.200 159.930 M93.800 178.000 C 93.664 178.220,93.113 178.400,92.576 178.400 C 92.039 178.400,91.600 178.541,91.600 178.714 C 91.600 178.886,91.062 179.345,90.406 179.733 C 86.856 181.830,84.820 191.707,84.805 206.900 L 84.800 212.000 97.819 212.000 L 110.837 212.000 110.651 201.500 C 110.459 190.657,110.189 186.875,109.563 186.220 C 109.363 186.011,109.200 185.533,109.200 185.158 C 109.200 183.374,106.544 179.732,104.600 178.851 C 103.940 178.552,103.087 178.148,102.705 177.953 C 101.746 177.465,94.106 177.505,93.800 178.000 " stroke="none" fill="#abfcfc" fill-rule="evenodd"></path><path id="path2" d="M146.980 111.308 C 146.872 111.589,146.832 115.685,146.892 120.410 L 147.000 129.000 161.900 129.105 L 176.800 129.210 176.800 207.972 C 176.800 251.291,176.909 287.019,177.043 287.367 C 177.303 288.046,201.600 288.375,201.600 287.700 C 201.600 287.535,196.155 287.400,189.500 287.400 L 177.400 287.400 177.200 208.200 L 177.000 129.000 162.100 128.895 L 147.200 128.790 147.200 119.995 L 147.200 111.200 188.800 111.200 L 230.400 111.200 230.400 120.000 L 230.400 128.800 216.000 128.800 C 208.080 128.800,201.600 128.935,201.600 129.100 C 201.600 129.265,208.125 129.310,216.100 129.200 L 230.600 129.000 230.600 120.000 L 230.600 111.000 188.888 110.898 C 155.303 110.816,147.138 110.896,146.980 111.308 M239.247 111.500 C 239.273 111.885,239.447 112.740,239.633 113.400 C 239.914 114.396,239.939 114.309,239.779 112.888 L 239.587 111.176 250.994 111.288 C 257.267 111.350,262.400 111.265,262.400 111.100 C 262.400 110.935,257.180 110.800,250.800 110.800 C 240.001 110.800,239.203 110.848,239.247 111.500 M316.643 111.433 C 316.509 111.781,316.414 112.546,316.432 113.133 C 316.465 114.261,316.579 114.087,316.971 112.306 L 317.212 111.213 328.306 111.100 L 339.400 110.987 328.143 110.893 C 318.191 110.811,316.857 110.873,316.643 111.433 M338.435 114.113 C 338.146 115.481,337.839 117.050,337.753 117.600 L 337.595 118.600 337.953 117.600 C 338.526 115.995,339.346 112.012,339.144 111.811 C 339.042 111.709,338.723 112.745,338.435 114.113 M262.446 113.200 C 262.427 113.750,262.587 114.470,262.800 114.800 C 263.294 115.564,263.294 114.742,262.800 113.200 L 262.480 112.200 262.446 113.200 M315.856 115.284 C 315.721 115.788,315.627 116.560,315.646 117.000 C 315.665 117.440,315.845 117.098,316.046 116.240 C 316.436 114.578,316.270 113.740,315.856 115.284 M240.068 115.200 C 240.088 116.239,240.718 117.946,240.732 117.000 C 240.738 116.560,240.589 115.840,240.400 115.400 C 240.189 114.910,240.061 114.832,240.068 115.200 M263.246 116.800 C 263.227 117.350,263.387 118.070,263.600 118.400 C 264.094 119.164,264.094 118.342,263.600 116.800 L 263.280 115.800 263.246 116.800 M315.076 118.810 C 314.930 119.355,314.827 120.250,314.846 120.800 C 314.871 121.518,314.984 121.357,315.249 120.227 C 315.655 118.495,315.500 117.225,315.076 118.810 M240.846 118.800 C 240.865 119.130,241.024 119.850,241.200 120.400 L 241.520 121.400 241.554 120.400 C 241.573 119.850,241.413 119.130,241.200 118.800 C 240.855 118.267,240.816 118.267,240.846 118.800 M337.249 119.400 C 337.216 119.840,337.096 120.650,336.983 121.200 L 336.777 122.200 337.206 121.219 C 337.442 120.679,337.561 119.869,337.472 119.419 C 337.313 118.621,337.307 118.621,337.249 119.400 M264.068 120.400 C 264.062 120.950,264.211 121.760,264.400 122.200 L 264.744 123.000 264.732 122.200 C 264.726 121.760,264.576 120.950,264.400 120.400 L 264.080 119.400 264.068 120.400 M241.862 123.400 C 241.996 124.280,242.172 125.075,242.253 125.167 C 242.556 125.510,242.329 123.368,241.981 122.600 C 241.729 122.042,241.693 122.285,241.862 123.400 M314.210 123.459 C 314.076 124.307,313.795 125.651,313.584 126.446 C 313.373 127.242,313.221 128.322,313.246 128.846 C 313.280 129.556,313.373 129.442,313.609 128.400 C 314.244 125.590,314.778 122.245,314.617 122.084 C 314.526 121.993,314.343 122.612,314.210 123.459 M336.449 123.000 C 336.416 123.440,336.296 124.250,336.183 124.800 L 335.977 125.800 336.406 124.819 C 336.642 124.279,336.761 123.469,336.672 123.019 C 336.513 122.221,336.507 122.221,336.449 123.000 M264.856 124.200 C 264.856 124.640,265.011 125.360,265.200 125.800 L 265.544 126.600 265.544 125.800 C 265.544 125.360,265.389 124.640,265.200 124.200 L 264.856 123.400 264.856 124.200 M242.638 127.000 C 242.970 128.984,243.202 129.304,243.194 127.767 C 243.191 127.125,243.004 126.330,242.779 126.000 C 242.486 125.570,242.446 125.854,242.638 127.000 M335.422 127.422 C 335.272 128.225,335.238 128.972,335.348 129.082 C 335.458 129.192,335.672 128.625,335.822 127.822 C 335.973 127.019,336.006 126.273,335.896 126.163 C 335.786 126.053,335.573 126.619,335.422 127.422 M265.668 127.800 C 265.662 128.240,265.811 128.960,266.000 129.400 C 266.438 130.419,266.438 129.368,266.000 128.000 C 265.743 127.196,265.677 127.157,265.668 127.800 M243.462 130.600 C 243.596 131.480,243.772 132.275,243.853 132.367 C 244.156 132.710,243.929 130.568,243.581 129.800 C 243.329 129.242,243.293 129.485,243.462 130.600 M312.800 130.104 C 312.800 130.234,312.437 132.182,311.994 134.431 C 311.550 136.681,311.280 138.614,311.394 138.727 C 311.507 138.841,311.600 138.827,311.600 138.696 C 311.600 138.566,311.963 136.618,312.406 134.369 C 312.850 132.119,313.120 130.186,313.006 130.073 C 312.893 129.959,312.800 129.973,312.800 130.104 M334.600 131.200 C 334.448 131.891,334.414 132.547,334.524 132.657 C 334.634 132.767,334.848 132.291,335.000 131.600 C 335.152 130.909,335.186 130.253,335.076 130.143 C 334.966 130.033,334.752 130.509,334.600 131.200 M266.480 131.400 C 266.480 131.840,266.624 132.650,266.800 133.200 C 267.054 133.992,267.120 134.033,267.120 133.400 C 267.120 132.960,266.976 132.150,266.800 131.600 C 266.546 130.808,266.480 130.767,266.480 131.400 M244.027 132.943 C 243.989 133.420,245.216 138.783,245.641 140.000 C 245.925 140.812,245.950 140.737,245.774 139.600 C 245.247 136.200,244.112 131.872,244.027 132.943 M333.800 134.800 C 333.648 135.491,333.614 136.147,333.724 136.257 C 333.834 136.367,334.048 135.891,334.200 135.200 C 334.352 134.509,334.386 133.853,334.276 133.743 C 334.166 133.633,333.952 134.109,333.800 134.800 M267.256 135.400 C 267.256 135.840,267.411 136.560,267.600 137.000 L 267.944 137.800 267.944 137.000 C 267.944 136.560,267.789 135.840,267.600 135.400 L 267.256 134.600 267.256 135.400 M333.000 138.400 C 332.848 139.091,332.814 139.747,332.924 139.857 C 333.034 139.967,333.248 139.491,333.400 138.800 C 333.552 138.109,333.586 137.453,333.476 137.343 C 333.366 137.233,333.152 137.709,333.000 138.400 M268.068 139.000 C 268.074 139.440,268.224 140.250,268.400 140.800 L 268.720 141.800 268.732 140.800 C 268.738 140.250,268.589 139.440,268.400 139.000 L 268.056 138.200 268.068 139.000 M310.854 140.000 C 310.819 140.550,310.696 141.450,310.583 142.000 L 310.377 143.000 310.807 142.015 C 311.043 141.474,311.165 140.574,311.078 140.015 L 310.920 139.000 310.854 140.000 M246.026 141.840 C 246.012 142.302,246.161 143.202,246.357 143.840 C 246.553 144.478,246.933 146.080,247.202 147.400 C 247.809 150.384,248.503 152.527,248.174 150.400 C 247.645 146.987,246.063 140.679,246.026 141.840 M332.273 141.753 C 332.123 142.145,332.011 142.766,332.025 143.133 C 332.042 143.575,332.181 143.474,332.437 142.834 C 332.649 142.303,332.761 141.682,332.685 141.454 C 332.609 141.227,332.424 141.361,332.273 141.753 M269.062 143.800 C 269.196 144.680,269.372 145.475,269.453 145.567 C 269.756 145.910,269.529 143.768,269.181 143.000 C 268.929 142.442,268.893 142.685,269.062 143.800 M310.060 144.067 C 310.027 144.654,309.896 145.464,309.770 145.867 C 309.552 146.560,309.565 146.561,309.995 145.890 C 310.246 145.499,310.377 144.689,310.286 144.090 L 310.120 143.000 310.060 144.067 M331.400 145.600 C 331.248 146.291,331.214 146.947,331.324 147.057 C 331.434 147.167,331.648 146.691,331.800 146.000 C 331.952 145.309,331.986 144.653,331.876 144.543 C 331.766 144.433,331.552 144.909,331.400 145.600 M269.862 147.400 C 269.996 148.280,270.172 149.075,270.253 149.167 C 270.556 149.510,270.329 147.368,269.981 146.600 C 269.729 146.042,269.693 146.285,269.862 147.400 M309.254 147.800 C 309.219 148.240,309.089 149.050,308.967 149.600 C 308.775 150.463,308.807 150.503,309.198 149.890 C 309.447 149.499,309.577 148.689,309.486 148.090 C 309.378 147.379,309.297 147.279,309.254 147.800 M330.673 148.953 C 330.523 149.345,330.411 149.966,330.425 150.333 C 330.442 150.775,330.581 150.674,330.837 150.034 C 331.049 149.503,331.161 148.882,331.085 148.654 C 331.009 148.427,330.824 148.561,330.673 148.953 M308.454 151.600 C 308.419 152.150,308.296 153.050,308.183 153.600 L 307.977 154.600 308.407 153.615 C 308.643 153.074,308.765 152.174,308.678 151.615 L 308.520 150.600 308.454 151.600 M248.468 152.800 C 248.462 153.350,248.611 154.160,248.800 154.600 L 249.144 155.400 249.132 154.600 C 249.126 154.160,248.976 153.350,248.800 152.800 L 248.480 151.800 248.468 152.800 M329.873 152.553 C 329.723 152.945,329.611 153.566,329.625 153.933 C 329.642 154.375,329.781 154.274,330.037 153.634 C 330.249 153.103,330.361 152.482,330.285 152.254 C 330.209 152.027,330.024 152.161,329.873 152.553 M271.438 155.000 C 271.770 156.984,272.002 157.304,271.994 155.767 C 271.991 155.125,271.804 154.330,271.579 154.000 C 271.286 153.570,271.246 153.854,271.438 155.000 M307.422 156.622 C 307.272 157.425,307.238 158.172,307.348 158.282 C 307.458 158.392,307.672 157.825,307.822 157.022 C 307.973 156.219,308.006 155.473,307.896 155.363 C 307.786 155.253,307.573 155.819,307.422 156.622 M249.268 156.400 C 249.262 156.950,249.411 157.760,249.600 158.200 L 249.944 159.000 249.932 158.200 C 249.926 157.760,249.776 156.950,249.600 156.400 L 249.280 155.400 249.268 156.400 M329.049 156.215 C 328.912 156.573,328.816 157.256,328.836 157.733 C 328.862 158.347,328.985 158.208,329.259 157.256 C 329.657 155.872,329.494 155.058,329.049 156.215 M272.262 158.600 C 272.396 159.480,272.572 160.275,272.653 160.367 C 272.956 160.710,272.729 158.568,272.381 157.800 C 272.129 157.242,272.093 157.485,272.262 158.600 M306.854 159.400 C 306.819 159.840,306.689 160.650,306.567 161.200 C 306.375 162.063,306.407 162.103,306.798 161.490 C 307.047 161.099,307.177 160.289,307.086 159.690 C 306.978 158.979,306.897 158.879,306.854 159.400 M328.249 159.815 C 328.112 160.173,328.016 160.856,328.036 161.333 C 328.062 161.947,328.185 161.808,328.459 160.856 C 328.857 159.472,328.694 158.658,328.249 159.815 M93.200 159.970 C 91.770 160.097,94.290 160.205,98.800 160.209 C 103.716 160.214,105.959 160.112,104.400 159.955 C 101.308 159.644,96.792 159.650,93.200 159.970 M250.056 160.200 C 250.056 160.640,250.211 161.360,250.400 161.800 L 250.744 162.600 250.744 161.800 C 250.744 161.360,250.589 160.640,250.400 160.200 L 250.056 159.400 250.056 160.200 M87.000 160.800 C 85.930 161.072,85.908 161.105,86.800 161.105 C 87.350 161.105,88.340 160.968,89.000 160.800 C 90.070 160.528,90.092 160.495,89.200 160.495 C 88.650 160.495,87.660 160.632,87.000 160.800 M108.200 160.790 C 108.964 161.128,111.514 161.357,111.167 161.056 C 111.075 160.976,110.190 160.804,109.200 160.673 C 107.998 160.514,107.666 160.553,108.200 160.790 M83.800 161.590 C 82.206 162.000,80.400 162.733,80.400 162.971 C 80.400 163.147,83.110 162.322,85.000 161.572 C 86.002 161.174,85.382 161.184,83.800 161.590 M112.000 161.568 C 112.330 161.799,112.837 161.991,113.126 161.994 C 116.120 162.029,123.662 167.733,126.443 172.067 C 127.725 174.065,128.389 174.683,127.553 173.100 C 125.193 168.633,119.386 163.637,114.800 162.130 C 112.216 161.280,111.338 161.104,112.000 161.568 M273.228 163.233 C 273.244 163.765,273.419 164.560,273.619 165.000 C 273.871 165.558,273.907 165.315,273.738 164.200 C 273.455 162.343,273.187 161.836,273.228 163.233 M327.449 163.415 C 327.312 163.773,327.216 164.456,327.236 164.933 C 327.262 165.547,327.385 165.408,327.659 164.456 C 328.057 163.072,327.894 162.258,327.449 163.415 M78.000 164.067 C 75.350 165.600,72.508 167.946,70.726 170.071 C 68.452 172.781,67.061 174.794,67.298 175.031 C 67.400 175.133,67.986 174.448,68.602 173.508 C 71.136 169.639,76.629 164.446,78.251 164.387 C 78.443 164.380,78.949 164.110,79.376 163.787 C 80.492 162.943,79.644 163.116,78.000 164.067 M250.868 163.600 C 250.888 164.639,251.518 166.346,251.532 165.400 C 251.538 164.960,251.389 164.240,251.200 163.800 C 250.989 163.310,250.861 163.232,250.868 163.600 M306.049 163.600 C 306.016 163.930,305.889 164.650,305.767 165.200 C 305.575 166.064,305.607 166.103,305.999 165.488 C 306.248 165.097,306.375 164.377,306.281 163.888 C 306.186 163.400,306.082 163.270,306.049 163.600 M274.006 167.033 C 274.009 167.675,274.196 168.470,274.421 168.800 C 274.714 169.230,274.754 168.946,274.562 167.800 C 274.230 165.816,273.998 165.496,274.006 167.033 M251.680 167.000 C 251.680 167.440,251.824 168.250,252.000 168.800 C 252.254 169.592,252.320 169.633,252.320 169.000 C 252.320 168.560,252.176 167.750,252.000 167.200 C 251.746 166.408,251.680 166.367,251.680 167.000 M326.649 167.015 C 326.512 167.373,326.418 168.146,326.440 168.733 C 326.473 169.591,326.552 169.495,326.846 168.240 C 327.222 166.639,327.095 165.853,326.649 167.015 M305.249 167.400 C 305.216 167.840,305.096 168.650,304.983 169.200 L 304.777 170.200 305.206 169.219 C 305.442 168.679,305.561 167.869,305.472 167.419 C 305.313 166.621,305.307 166.621,305.249 167.400 M274.806 170.833 C 274.809 171.365,274.989 172.070,275.206 172.400 C 275.482 172.822,275.523 172.585,275.342 171.600 C 275.025 169.875,274.798 169.549,274.806 170.833 M325.849 170.615 C 325.712 170.973,325.618 171.746,325.640 172.333 C 325.673 173.191,325.752 173.095,326.046 171.840 C 326.422 170.239,326.295 169.453,325.849 170.615 M252.434 171.000 C 252.422 171.440,252.587 172.070,252.800 172.400 C 253.314 173.195,253.314 172.196,252.800 171.000 L 252.456 170.200 252.434 171.000 M304.449 171.200 C 304.416 171.530,304.289 172.250,304.167 172.800 C 303.975 173.664,304.007 173.703,304.399 173.088 C 304.648 172.697,304.775 171.977,304.681 171.488 C 304.586 171.000,304.482 170.870,304.449 171.200 M275.628 174.433 C 275.644 174.965,275.819 175.760,276.019 176.200 C 276.271 176.758,276.307 176.515,276.138 175.400 C 275.855 173.543,275.587 173.036,275.628 174.433 M325.049 174.215 C 324.912 174.573,324.816 175.256,324.836 175.733 C 324.862 176.347,324.985 176.208,325.259 175.256 C 325.657 173.872,325.494 173.058,325.049 174.215 M253.234 174.400 C 253.246 174.730,253.411 175.360,253.600 175.800 L 253.944 176.600 253.966 175.800 C 253.978 175.360,253.813 174.730,253.600 174.400 C 253.255 173.867,253.215 173.867,253.234 174.400 M303.422 176.222 C 303.272 177.025,303.238 177.772,303.348 177.882 C 303.458 177.992,303.672 177.425,303.822 176.622 C 303.973 175.819,304.006 175.073,303.896 174.963 C 303.786 174.853,303.573 175.419,303.422 176.222 M65.607 178.645 C 64.261 181.877,63.178 185.562,63.232 186.720 C 63.250 187.094,63.583 186.140,63.972 184.600 C 64.362 183.060,65.244 180.462,65.933 178.826 C 66.621 177.190,67.119 175.786,67.038 175.705 C 66.958 175.624,66.314 176.948,65.607 178.645 M96.691 177.089 C 97.401 177.177,98.661 177.179,99.491 177.092 C 100.321 177.005,99.740 176.933,98.200 176.931 C 96.660 176.929,95.981 177.000,96.691 177.089 M324.192 178.259 C 324.049 179.107,323.783 180.340,323.600 181.000 C 323.097 182.816,322.738 185.657,323.170 184.400 C 323.823 182.505,324.901 177.167,324.676 176.943 C 324.553 176.819,324.335 177.412,324.192 178.259 M92.590 177.616 C 92.421 177.889,92.723 177.938,93.466 177.760 C 94.999 177.392,95.144 177.200,93.890 177.200 C 93.317 177.200,92.732 177.387,92.590 177.616 M276.428 178.033 C 276.444 178.565,276.619 179.360,276.819 179.800 C 277.071 180.358,277.107 180.115,276.938 179.000 C 276.655 177.143,276.387 176.636,276.428 178.033 M254.046 178.000 C 254.065 178.330,254.224 179.050,254.400 179.600 L 254.720 180.600 254.754 179.600 C 254.773 179.050,254.613 178.330,254.400 178.000 C 254.055 177.467,254.016 177.467,254.046 178.000 M90.200 178.903 C 88.791 179.933,88.202 180.602,87.382 182.100 C 86.513 183.686,86.970 183.456,87.934 181.821 C 88.382 181.063,89.506 179.893,90.434 179.221 C 91.361 178.550,91.958 178.006,91.760 178.013 C 91.562 178.020,90.860 178.420,90.200 178.903 M105.522 178.860 C 106.248 179.325,107.283 180.354,107.822 181.146 C 108.360 181.938,108.800 182.359,108.800 182.082 C 108.800 181.419,105.367 177.998,104.711 178.007 C 104.430 178.010,104.795 178.394,105.522 178.860 M302.650 180.050 C 302.317 181.717,302.640 182.040,303.000 180.400 C 303.152 179.709,303.193 179.059,303.091 178.958 C 302.989 178.856,302.791 179.347,302.650 180.050 M130.434 180.600 C 130.422 181.040,130.587 181.670,130.800 182.000 C 131.314 182.795,131.314 181.796,130.800 180.600 L 130.456 179.800 130.434 180.600 M254.846 181.600 C 254.865 181.930,255.024 182.650,255.200 183.200 L 255.520 184.200 255.554 183.200 C 255.573 182.650,255.413 181.930,255.200 181.600 C 254.855 181.067,254.816 181.067,254.846 181.600 M277.246 182.000 C 277.227 182.550,277.387 183.270,277.600 183.600 C 278.094 184.364,278.094 183.542,277.600 182.000 L 277.280 181.000 277.246 182.000 M109.379 184.300 C 109.694 185.125,110.032 186.160,110.130 186.600 C 110.297 187.355,110.310 187.352,110.354 186.549 C 110.400 185.692,109.354 182.800,108.998 182.800 C 108.893 182.800,109.064 183.475,109.379 184.300 M301.778 184.178 C 301.627 184.981,301.594 185.727,301.704 185.837 C 301.814 185.947,302.027 185.381,302.178 184.578 C 302.328 183.775,302.362 183.028,302.252 182.918 C 302.142 182.808,301.928 183.375,301.778 184.178 M131.256 183.800 C 131.256 184.240,131.411 184.960,131.600 185.400 L 131.944 186.200 131.944 185.400 C 131.944 184.960,131.789 184.240,131.600 183.800 L 131.256 183.000 131.256 183.800 M255.634 185.200 C 255.646 185.530,255.811 186.160,256.000 186.600 L 256.344 187.400 256.366 186.600 C 256.378 186.160,256.213 185.530,256.000 185.200 C 255.655 184.667,255.615 184.667,255.634 185.200 M278.006 185.633 C 278.009 186.165,278.189 186.870,278.406 187.200 C 278.682 187.622,278.723 187.385,278.542 186.400 C 278.225 184.675,277.998 184.349,278.006 185.633 M322.449 186.200 C 322.416 186.640,322.296 187.450,322.183 188.000 L 321.977 189.000 322.406 188.019 C 322.642 187.479,322.761 186.669,322.672 186.219 C 322.513 185.421,322.507 185.421,322.449 186.200 M85.418 187.818 C 85.265 188.839,85.222 189.755,85.322 189.855 C 85.422 189.955,85.629 189.202,85.782 188.182 C 85.935 187.161,85.978 186.245,85.878 186.145 C 85.778 186.045,85.571 186.798,85.418 187.818 M300.978 188.178 C 300.827 188.981,300.794 189.727,300.904 189.837 C 301.014 189.947,301.227 189.381,301.378 188.578 C 301.528 187.775,301.562 187.028,301.452 186.918 C 301.342 186.808,301.128 187.375,300.978 188.178 M132.068 188.200 C 132.062 188.860,132.211 189.760,132.400 190.200 C 132.870 191.294,132.870 189.467,132.400 188.000 C 132.088 187.025,132.079 187.030,132.068 188.200 M62.656 188.484 C 62.521 188.988,62.430 190.030,62.452 190.800 C 62.486 191.934,62.562 191.789,62.852 190.039 C 63.220 187.825,63.096 186.843,62.656 188.484 M110.710 190.800 C 110.818 192.670,110.973 194.275,111.054 194.367 C 111.330 194.682,111.120 189.399,110.816 188.400 C 110.649 187.850,110.601 188.930,110.710 190.800 M256.446 188.800 C 256.465 189.130,256.624 189.850,256.800 190.400 L 257.120 191.400 257.154 190.400 C 257.173 189.850,257.013 189.130,256.800 188.800 C 256.455 188.267,256.416 188.267,256.446 188.800 M278.828 189.233 C 278.844 189.765,279.019 190.560,279.219 191.000 C 279.471 191.558,279.507 191.315,279.338 190.200 C 279.055 188.343,278.787 187.836,278.828 189.233 M321.235 191.713 C 320.946 193.081,320.639 194.650,320.553 195.200 L 320.395 196.200 320.753 195.200 C 321.326 193.595,322.146 189.612,321.944 189.411 C 321.842 189.309,321.523 190.345,321.235 191.713 M300.222 191.822 C 300.072 192.625,300.028 193.362,300.126 193.460 C 300.224 193.557,300.427 192.981,300.578 192.178 C 300.728 191.375,300.772 190.638,300.674 190.540 C 300.576 190.443,300.373 191.019,300.222 191.822 M84.689 192.956 C 84.530 194.032,84.423 195.742,84.452 196.756 C 84.494 198.266,84.568 198.057,84.859 195.600 C 85.265 192.169,85.126 190.001,84.689 192.956 M132.880 193.200 C 132.868 193.970,133.003 195.410,133.180 196.400 C 133.476 198.067,133.501 198.097,133.520 196.800 C 133.532 196.030,133.397 194.590,133.220 193.600 C 132.924 191.933,132.899 191.903,132.880 193.200 M257.246 192.400 C 257.265 192.730,257.424 193.450,257.600 194.000 L 257.920 195.000 257.954 194.000 C 257.973 193.450,257.813 192.730,257.600 192.400 C 257.255 191.867,257.216 191.867,257.246 192.400 M279.646 193.200 C 279.627 193.750,279.787 194.470,280.000 194.800 C 280.494 195.564,280.494 194.742,280.000 193.200 L 279.680 192.200 279.646 193.200 M61.426 199.026 C 61.270 201.363,61.227 203.360,61.330 203.464 C 61.434 203.568,61.650 201.743,61.809 199.409 C 61.968 197.074,62.011 195.077,61.904 194.971 C 61.798 194.864,61.583 196.689,61.426 199.026 M111.371 203.600 C 111.371 208.550,111.428 210.575,111.499 208.100 C 111.569 205.625,111.569 201.575,111.499 199.100 C 111.428 196.625,111.371 198.650,111.371 203.600 M299.456 195.684 C 299.321 196.188,299.227 196.960,299.246 197.400 C 299.265 197.840,299.445 197.498,299.646 196.640 C 300.036 194.978,299.870 194.140,299.456 195.684 M258.273 196.800 C 258.404 197.790,258.576 198.675,258.656 198.767 C 258.957 199.114,258.728 196.564,258.390 195.800 C 258.153 195.266,258.114 195.598,258.273 196.800 M280.446 196.800 C 280.427 197.350,280.587 198.070,280.800 198.400 C 281.294 199.164,281.294 198.342,280.800 196.800 L 280.480 195.800 280.446 196.800 M320.049 197.000 C 320.016 197.440,319.896 198.250,319.783 198.800 L 319.577 199.800 320.006 198.819 C 320.242 198.279,320.361 197.469,320.272 197.019 C 320.113 196.221,320.107 196.221,320.049 197.000 M298.676 199.210 C 298.530 199.755,298.427 200.650,298.446 201.200 C 298.471 201.918,298.584 201.757,298.849 200.627 C 299.255 198.895,299.100 197.625,298.676 199.210 M259.058 200.400 C 259.375 202.125,259.602 202.451,259.594 201.167 C 259.591 200.635,259.411 199.930,259.194 199.600 C 258.918 199.178,258.877 199.415,259.058 200.400 M281.268 200.600 C 281.262 201.040,281.411 201.760,281.600 202.200 C 282.038 203.219,282.038 202.168,281.600 200.800 C 281.343 199.996,281.277 199.957,281.268 200.600 M319.249 200.600 C 319.216 201.040,319.096 201.850,318.983 202.400 L 318.777 203.400 319.206 202.419 C 319.442 201.879,319.561 201.069,319.472 200.619 C 319.313 199.821,319.307 199.821,319.249 200.600 M133.936 212.497 L 134.114 224.794 109.157 224.902 L 84.200 225.009 109.200 225.005 L 134.200 225.000 134.303 215.600 C 134.360 210.430,134.260 204.850,134.082 203.200 C 133.887 201.390,133.829 205.078,133.936 212.497 M259.862 203.800 C 259.996 204.680,260.172 205.475,260.253 205.567 C 260.556 205.910,260.329 203.768,259.981 203.000 C 259.729 202.442,259.693 202.685,259.862 203.800 M297.856 203.284 C 297.721 203.788,297.628 204.650,297.649 205.200 C 297.672 205.789,297.831 205.471,298.036 204.425 C 298.403 202.552,298.273 201.727,297.856 203.284 M282.068 204.200 C 282.062 204.640,282.211 205.360,282.400 205.800 C 282.838 206.819,282.838 205.768,282.400 204.400 C 282.143 203.596,282.077 203.557,282.068 204.200 M60.985 223.400 C 60.985 233.960,61.037 238.223,61.100 232.872 C 61.163 227.522,61.163 218.882,61.100 213.672 C 61.036 208.463,60.985 212.840,60.985 223.400 M318.229 205.429 C 318.081 206.015,318.051 206.584,318.161 206.694 C 318.271 206.804,318.481 206.415,318.629 205.829 C 318.776 205.242,318.806 204.673,318.696 204.563 C 318.586 204.453,318.376 204.842,318.229 205.429 M260.662 207.400 C 260.983 209.582,261.941 213.164,261.974 212.306 C 262.001 211.578,261.323 208.509,260.757 206.800 C 260.525 206.097,260.496 206.276,260.662 207.400 M296.992 207.859 C 296.849 208.707,296.584 209.940,296.402 210.600 C 295.954 212.227,295.513 215.420,295.773 215.161 C 296.083 214.851,297.642 206.709,297.432 206.499 C 297.333 206.399,297.135 207.012,296.992 207.859 M282.880 207.800 C 282.880 208.240,283.024 209.050,283.200 209.600 C 283.454 210.392,283.520 210.433,283.520 209.800 C 283.520 209.360,283.376 208.550,283.200 208.000 C 282.946 207.208,282.880 207.167,282.880 207.800 M317.450 208.850 C 317.309 209.553,317.269 210.202,317.359 210.292 C 317.450 210.383,317.648 209.891,317.800 209.200 C 317.952 208.509,317.993 207.859,317.891 207.758 C 317.789 207.656,317.591 208.147,317.450 208.850 M283.668 211.800 C 283.674 212.240,283.824 213.050,284.000 213.600 L 284.320 214.600 284.332 213.600 C 284.338 213.050,284.189 212.240,284.000 211.800 L 283.656 211.000 283.668 211.800 M316.622 212.622 C 316.472 213.425,316.428 214.162,316.526 214.260 C 316.624 214.357,316.827 213.781,316.978 212.978 C 317.128 212.175,317.172 211.438,317.074 211.340 C 316.976 211.243,316.773 211.819,316.622 212.622 M91.325 212.699 C 95.024 212.766,100.964 212.765,104.525 212.699 C 108.086 212.633,105.060 212.579,97.800 212.579 C 90.540 212.579,87.626 212.633,91.325 212.699 M262.220 214.400 C 262.336 215.170,262.594 216.520,262.793 217.400 C 262.992 218.280,263.264 219.516,263.397 220.147 C 263.530 220.778,263.730 221.204,263.841 221.093 C 264.048 220.885,262.983 215.785,262.359 214.000 C 262.073 213.183,262.048 213.256,262.220 214.400 M284.468 215.400 C 284.474 215.840,284.624 216.650,284.800 217.200 L 285.120 218.200 285.132 217.200 C 285.138 216.650,284.989 215.840,284.800 215.400 L 284.456 214.600 284.468 215.400 M315.800 216.400 C 315.648 217.091,315.614 217.747,315.724 217.857 C 315.834 217.967,316.048 217.491,316.200 216.800 C 316.352 216.109,316.386 215.453,316.276 215.343 C 316.166 215.233,315.952 215.709,315.800 216.400 M295.114 216.800 C 295.000 217.570,294.520 220.072,294.047 222.361 C 293.575 224.649,293.263 226.597,293.356 226.689 C 293.448 226.782,293.638 226.259,293.777 225.529 C 293.917 224.798,294.189 223.480,294.383 222.600 C 295.510 217.477,295.684 216.454,295.512 215.953 C 295.407 215.649,295.228 216.030,295.114 216.800 M285.287 219.000 C 285.291 219.440,285.432 220.340,285.600 221.000 C 285.874 222.078,285.906 222.098,285.913 221.200 C 285.917 220.650,285.776 219.750,285.600 219.200 C 285.349 218.416,285.281 218.373,285.287 219.000 M315.029 219.829 C 314.881 220.415,314.838 220.972,314.932 221.066 C 315.027 221.160,315.224 220.758,315.371 220.171 C 315.519 219.585,315.562 219.028,315.468 218.934 C 315.373 218.840,315.176 219.242,315.029 219.829 M264.087 222.400 C 264.083 222.950,264.224 223.850,264.400 224.400 C 264.831 225.744,264.831 224.292,264.400 222.600 C 264.126 221.522,264.094 221.502,264.087 222.400 M286.262 223.800 C 286.396 224.680,286.572 225.475,286.653 225.567 C 286.956 225.910,286.729 223.768,286.381 223.000 C 286.129 222.442,286.093 222.685,286.262 223.800 M314.200 223.600 C 314.048 224.291,314.007 224.941,314.109 225.042 C 314.211 225.144,314.409 224.653,314.550 223.950 C 314.691 223.247,314.731 222.598,314.641 222.508 C 314.550 222.417,314.352 222.909,314.200 223.600 M264.846 226.400 C 264.827 226.950,264.987 227.670,265.200 228.000 C 265.694 228.764,265.694 227.942,265.200 226.400 L 264.880 225.400 264.846 226.400 M286.868 226.600 C 286.874 227.040,287.024 227.850,287.200 228.400 L 287.520 229.400 287.532 228.400 C 287.538 227.850,287.389 227.040,287.200 226.600 L 286.856 225.800 286.868 226.600 M313.400 227.200 C 313.248 227.891,313.207 228.541,313.309 228.642 C 313.411 228.744,313.609 228.253,313.750 227.550 C 313.891 226.847,313.931 226.198,313.841 226.108 C 313.750 226.017,313.552 226.509,313.400 227.200 M292.854 228.000 C 292.819 228.550,292.696 229.450,292.583 230.000 L 292.377 231.000 292.807 230.015 C 293.043 229.474,293.165 228.574,293.078 228.015 L 292.920 227.000 292.854 228.000 M265.646 230.000 C 265.627 230.550,265.787 231.270,266.000 231.600 C 266.494 232.364,266.494 231.542,266.000 230.000 L 265.680 229.000 265.646 230.000 M312.649 230.215 C 312.512 230.573,312.416 231.256,312.436 231.733 C 312.462 232.347,312.585 232.208,312.859 231.256 C 313.257 229.872,313.094 229.058,312.649 230.215 M287.862 231.400 C 287.996 232.280,288.172 233.075,288.253 233.167 C 288.556 233.510,288.329 231.368,287.981 230.600 C 287.729 230.042,287.693 230.285,287.862 231.400 M291.854 232.754 C 291.700 233.718,291.658 234.591,291.761 234.694 C 292.030 234.963,292.515 232.145,292.307 231.522 C 292.212 231.236,292.008 231.790,291.854 232.754 M266.428 233.233 C 266.444 233.765,266.619 234.560,266.819 235.000 C 267.071 235.558,267.107 235.315,266.938 234.200 C 266.655 232.343,266.387 231.836,266.428 233.233 M311.856 234.084 C 311.721 234.588,311.627 235.360,311.646 235.800 C 311.665 236.240,311.845 235.898,312.046 235.040 C 312.436 233.378,312.270 232.540,311.856 234.084 M288.674 235.200 C 288.808 236.190,289.065 237.360,289.244 237.800 C 289.439 238.278,289.472 237.875,289.326 236.800 C 289.192 235.810,288.935 234.640,288.756 234.200 C 288.561 233.722,288.528 234.125,288.674 235.200 M291.022 237.022 C 290.872 237.825,290.838 238.572,290.948 238.682 C 291.058 238.792,291.272 238.225,291.422 237.422 C 291.573 236.619,291.606 235.873,291.496 235.763 C 291.386 235.653,291.173 236.219,291.022 237.022 M267.268 237.000 C 267.262 237.440,267.411 238.160,267.600 238.600 C 268.038 239.619,268.038 238.568,267.600 237.200 C 267.343 236.396,267.277 236.357,267.268 237.000 M311.049 237.415 C 310.912 237.773,310.816 238.456,310.836 238.933 C 310.862 239.547,310.985 239.408,311.259 238.456 C 311.657 237.072,311.494 236.258,311.049 237.415 M289.726 239.600 C 289.810 240.732,290.536 240.820,290.722 239.721 C 290.817 239.152,290.763 239.118,290.462 239.558 C 290.152 240.012,290.041 239.975,289.867 239.358 C 289.719 238.835,289.675 238.911,289.726 239.600 M268.056 240.600 C 268.056 241.040,268.211 241.760,268.400 242.200 L 268.744 243.000 268.744 242.200 C 268.744 241.760,268.589 241.040,268.400 240.600 L 268.056 239.800 268.056 240.600 M310.256 241.284 C 310.121 241.788,310.027 242.560,310.046 243.000 C 310.065 243.440,310.245 243.098,310.446 242.240 C 310.836 240.578,310.670 239.740,310.256 241.284 M61.466 248.837 C 61.581 251.827,61.821 254.887,61.998 255.637 C 62.351 257.126,62.193 253.789,61.599 247.200 C 61.294 243.814,61.279 243.992,61.466 248.837 M111.467 244.267 C 111.320 244.413,111.236 247.248,111.280 250.567 L 111.359 256.600 111.580 250.400 C 111.825 243.507,111.832 243.901,111.467 244.267 M133.569 249.499 L 133.739 255.000 134.103 250.462 C 134.453 246.110,134.319 244.001,133.692 243.999 C 133.532 243.999,133.476 246.474,133.569 249.499 M268.856 244.400 C 268.856 244.730,269.011 245.360,269.200 245.800 C 269.417 246.304,269.544 246.378,269.544 246.000 C 269.544 245.670,269.389 245.040,269.200 244.600 C 268.983 244.096,268.856 244.022,268.856 244.400 M309.456 244.884 C 309.321 245.388,309.227 246.160,309.246 246.600 C 309.265 247.040,309.445 246.698,309.646 245.840 C 310.036 244.178,309.870 243.340,309.456 244.884 M269.634 248.000 C 269.646 248.330,269.811 248.960,270.000 249.400 L 270.344 250.200 270.366 249.400 C 270.378 248.960,270.213 248.330,270.000 248.000 C 269.655 247.467,269.615 247.467,269.634 248.000 M308.649 248.215 C 308.512 248.573,308.418 249.346,308.440 249.933 C 308.473 250.791,308.552 250.695,308.846 249.440 C 309.222 247.839,309.095 247.053,308.649 248.215 M270.468 251.400 C 270.474 251.840,270.624 252.650,270.800 253.200 L 271.120 254.200 271.132 253.200 C 271.138 252.650,270.989 251.840,270.800 251.400 L 270.456 250.600 270.468 251.400 M307.823 252.471 C 307.683 253.202,307.383 254.610,307.157 255.600 C 306.930 256.590,306.577 258.165,306.372 259.100 C 306.167 260.035,305.833 261.565,305.628 262.500 C 305.423 263.435,305.070 265.010,304.843 266.000 C 304.141 269.063,303.896 270.610,304.150 270.369 C 304.285 270.243,304.594 269.163,304.838 267.969 C 305.081 266.776,305.424 265.170,305.600 264.400 C 305.776 263.630,306.136 262.010,306.400 260.800 C 306.664 259.590,307.024 257.970,307.200 257.200 C 307.985 253.757,308.391 251.458,308.240 251.307 C 308.150 251.217,307.962 251.741,307.823 252.471 M271.246 255.200 C 271.265 255.530,271.424 256.250,271.600 256.800 L 271.920 257.800 271.954 256.800 C 271.973 256.250,271.813 255.530,271.600 255.200 C 271.255 254.667,271.216 254.667,271.246 255.200 M84.493 256.400 C 84.495 258.165,85.091 260.788,85.130 259.200 C 85.143 258.650,85.005 257.480,84.823 256.600 L 84.492 255.000 84.493 256.400 M110.870 258.250 C 110.831 259.157,110.711 260.507,110.601 261.250 L 110.403 262.600 110.823 261.262 C 111.053 260.527,111.174 259.177,111.091 258.262 L 110.940 256.600 110.870 258.250 M133.070 258.957 C 132.911 260.253,132.861 261.394,132.960 261.493 C 133.226 261.759,133.703 258.218,133.519 257.347 C 133.432 256.936,133.230 257.660,133.070 258.957 M62.428 258.633 C 62.444 259.495,62.609 260.560,62.796 261.000 C 63.008 261.498,63.051 260.969,62.912 259.600 C 62.644 256.965,62.389 256.457,62.428 258.633 M272.056 258.600 C 272.056 259.040,272.211 259.760,272.400 260.200 L 272.744 261.000 272.744 260.200 C 272.744 259.760,272.589 259.040,272.400 258.600 L 272.056 257.800 272.056 258.600 M85.256 261.400 C 85.256 261.840,85.411 262.560,85.600 263.000 L 85.944 263.800 85.944 263.000 C 85.944 262.560,85.789 261.840,85.600 261.400 L 85.256 260.600 85.256 261.400 M63.232 262.640 C 63.214 263.102,63.365 264.002,63.567 264.640 C 63.769 265.278,64.048 266.316,64.186 266.947 C 64.325 267.578,64.512 268.021,64.602 267.931 C 64.692 267.842,64.427 266.425,64.015 264.784 C 63.602 263.143,63.250 262.178,63.232 262.640 M272.846 262.400 C 272.865 262.730,273.024 263.450,273.200 264.000 L 273.520 265.000 273.554 264.000 C 273.573 263.450,273.413 262.730,273.200 262.400 C 272.855 261.867,272.816 261.867,272.846 262.400 M132.200 263.600 C 132.048 264.291,132.014 264.947,132.124 265.057 C 132.234 265.167,132.448 264.691,132.600 264.000 C 132.752 263.309,132.786 262.653,132.676 262.543 C 132.566 262.433,132.352 262.909,132.200 263.600 M110.046 263.267 C 110.021 263.634,109.896 264.264,109.770 264.667 C 109.552 265.362,109.563 265.363,109.997 264.687 C 110.248 264.296,110.373 263.666,110.273 263.287 C 110.111 262.668,110.088 262.666,110.046 263.267 M86.603 265.469 C 86.941 266.277,87.429 267.222,87.689 267.569 C 88.779 269.028,90.179 270.400,90.575 270.398 C 90.809 270.397,90.315 269.767,89.477 268.998 C 88.640 268.229,87.596 266.789,87.159 265.800 C 86.208 263.651,85.723 263.362,86.603 265.469 M273.862 266.600 C 273.996 267.480,274.172 268.275,274.253 268.367 C 274.556 268.710,274.329 266.568,273.981 265.800 C 273.729 265.242,273.693 265.485,273.862 266.600 M106.752 269.256 C 105.735 270.325,105.032 271.200,105.189 271.200 C 105.581 271.200,108.800 267.920,108.800 267.521 C 108.800 267.091,108.855 267.045,106.752 269.256 M274.662 270.200 C 274.796 271.080,274.972 271.875,275.053 271.967 C 275.356 272.310,275.129 270.168,274.781 269.400 C 274.529 268.842,274.493 269.085,274.662 270.200 M91.200 270.619 C 91.200 270.913,93.649 272.050,94.009 271.924 C 94.204 271.856,93.651 271.498,92.782 271.130 C 91.912 270.761,91.200 270.531,91.200 270.619 M65.600 270.947 C 65.600 271.380,67.588 275.200,67.813 275.200 C 67.923 275.200,67.539 274.255,66.959 273.100 C 65.843 270.879,65.600 270.494,65.600 270.947 M303.649 271.400 C 303.616 271.840,303.496 272.650,303.383 273.200 L 303.177 274.200 303.606 273.219 C 303.842 272.679,303.961 271.869,303.872 271.419 C 303.713 270.621,303.707 270.621,303.649 271.400 M96.000 272.430 C 97.307 272.809,100.400 272.822,101.339 272.453 C 101.746 272.293,100.486 272.157,98.539 272.151 C 96.438 272.144,95.406 272.258,96.000 272.430 M128.629 273.661 C 127.904 275.115,127.861 275.333,128.361 275.024 C 128.726 274.798,129.684 272.400,129.408 272.400 C 129.326 272.400,128.975 272.968,128.629 273.661 M275.458 274.000 C 275.775 275.725,276.002 276.051,275.994 274.767 C 275.991 274.235,275.811 273.530,275.594 273.200 C 275.318 272.778,275.277 273.015,275.458 274.000 M302.849 275.000 C 302.816 275.440,302.696 276.250,302.583 276.800 L 302.377 277.800 302.806 276.819 C 303.042 276.279,303.161 275.469,303.072 275.019 C 302.913 274.221,302.907 274.221,302.849 275.000 M68.672 276.787 C 69.634 278.619,74.716 283.734,76.439 284.604 C 78.049 285.417,77.779 285.143,74.664 282.802 C 73.378 281.836,71.624 280.136,70.764 279.023 C 67.897 275.311,67.896 275.311,68.672 276.787 M126.853 276.914 C 126.407 277.636,125.582 278.761,125.021 279.414 C 124.460 280.066,124.001 280.760,124.000 280.956 C 124.000 281.390,126.375 278.428,127.345 276.785 C 128.303 275.163,127.864 275.279,126.853 276.914 M276.238 277.400 C 276.570 279.384,276.802 279.704,276.794 278.167 C 276.791 277.525,276.604 276.730,276.379 276.400 C 276.086 275.970,276.046 276.254,276.238 277.400 M302.049 278.600 C 302.016 279.040,301.896 279.850,301.783 280.400 L 301.577 281.400 302.006 280.419 C 302.242 279.879,302.361 279.069,302.272 278.619 C 302.113 277.821,302.107 277.821,302.049 278.600 M277.062 281.000 C 277.383 283.182,278.341 286.764,278.374 285.906 C 278.401 285.178,277.723 282.109,277.157 280.400 C 276.925 279.697,276.896 279.876,277.062 281.000 M122.794 281.807 C 122.517 282.141,121.416 282.981,120.346 283.674 C 119.276 284.367,118.482 285.016,118.582 285.115 C 118.792 285.325,122.455 282.697,123.196 281.805 C 123.472 281.472,123.608 281.200,123.498 281.200 C 123.388 281.200,123.071 281.473,122.794 281.807 M301.000 283.200 C 300.848 283.891,300.814 284.547,300.924 284.657 C 301.034 284.767,301.248 284.291,301.400 283.600 C 301.552 282.909,301.586 282.253,301.476 282.143 C 301.366 282.033,301.152 282.509,301.000 283.200 M115.200 286.414 C 113.770 287.049,112.820 287.576,113.089 287.585 C 113.714 287.604,118.000 285.717,118.000 285.422 C 118.000 285.145,118.261 285.053,115.200 286.414 M300.274 286.500 L 299.985 287.600 289.672 287.600 C 282.185 287.600,279.229 287.469,278.880 287.120 C 278.559 286.799,278.400 286.785,278.400 287.077 C 278.400 287.897,279.668 288.000,289.784 288.000 C 300.493 288.000,301.089 287.898,300.715 286.119 C 300.601 285.581,300.491 285.677,300.274 286.500 M79.600 286.195 C 79.600 286.461,82.390 287.607,82.949 287.570 C 83.197 287.554,82.680 287.207,81.800 286.800 C 80.109 286.017,79.600 285.877,79.600 286.195 M84.061 287.794 C 84.617 288.351,89.996 289.231,93.800 289.389 L 97.800 289.554 93.800 289.193 C 91.600 288.994,88.900 288.634,87.800 288.393 C 84.106 287.583,83.801 287.534,84.061 287.794 M110.200 288.044 C 109.540 288.251,108.010 288.574,106.800 288.761 C 104.767 289.076,104.722 289.106,106.200 289.146 C 107.080 289.170,108.880 288.848,110.200 288.431 C 111.520 288.014,112.330 287.672,112.000 287.671 C 111.670 287.670,110.860 287.838,110.200 288.044 M100.291 289.489 C 101.001 289.577,102.261 289.579,103.091 289.492 C 103.921 289.405,103.340 289.333,101.800 289.331 C 100.260 289.329,99.581 289.400,100.291 289.489 " stroke="none" fill="#64d4e4" fill-rule="evenodd"></path><path id="path3" d="M147.002 110.396 C 146.841 110.657,161.217 110.828,188.979 110.896 C 212.200 110.953,231.200 110.886,231.200 110.747 C 231.200 109.911,147.518 109.563,147.002 110.396 M239.283 110.500 C 238.953 110.898,241.308 111.000,250.841 111.000 C 260.518 111.000,262.684 110.904,262.131 110.500 C 261.624 110.129,258.641 110.000,250.573 110.000 C 242.361 110.000,239.596 110.122,239.283 110.500 M317.068 110.500 C 316.516 110.903,318.602 110.978,327.861 110.888 C 336.850 110.800,339.408 110.887,339.663 111.288 C 339.904 111.668,339.989 111.674,339.994 111.314 C 340.011 109.952,318.848 109.200,317.068 110.500 M316.049 112.200 C 316.016 112.640,315.896 113.450,315.783 114.000 L 315.577 115.000 316.006 114.019 C 316.242 113.479,316.361 112.669,316.272 112.219 C 316.113 111.421,316.107 111.421,316.049 112.200 M263.058 113.600 C 263.375 115.325,263.602 115.651,263.594 114.367 C 263.591 113.835,263.411 113.130,263.194 112.800 C 262.918 112.378,262.877 112.615,263.058 113.600 M263.646 116.400 C 263.665 116.730,263.824 117.450,264.000 118.000 L 264.320 119.000 264.354 118.000 C 264.373 117.450,264.213 116.730,264.000 116.400 C 263.655 115.867,263.616 115.867,263.646 116.400 M240.428 119.476 C 240.413 119.958,240.580 120.464,240.800 120.600 C 241.273 120.892,241.273 120.501,240.800 119.400 C 240.469 118.629,240.455 118.631,240.428 119.476 M264.658 121.200 C 264.975 122.925,265.202 123.251,265.194 121.967 C 265.191 121.435,265.011 120.730,264.794 120.400 C 264.518 119.978,264.477 120.215,264.658 121.200 M265.458 124.800 C 265.775 126.525,266.002 126.851,265.994 125.567 C 265.991 125.035,265.811 124.330,265.594 124.000 C 265.318 123.578,265.277 123.815,265.458 124.800 M313.429 125.029 C 313.281 125.615,313.238 126.172,313.332 126.266 C 313.427 126.360,313.624 125.958,313.771 125.371 C 313.919 124.785,313.962 124.228,313.868 124.134 C 313.773 124.040,313.576 124.442,313.429 125.029 M336.249 125.815 C 336.112 126.173,336.018 126.856,336.041 127.333 C 336.067 127.881,336.203 127.686,336.410 126.803 C 336.760 125.316,336.665 124.733,336.249 125.815 M266.258 128.400 C 266.575 130.125,266.802 130.451,266.794 129.167 C 266.791 128.635,266.611 127.930,266.394 127.600 C 266.118 127.178,266.077 127.415,266.258 128.400 M312.629 129.029 C 312.481 129.615,312.438 130.172,312.532 130.266 C 312.627 130.360,312.824 129.958,312.971 129.371 C 313.119 128.785,313.162 128.228,313.068 128.134 C 312.973 128.040,312.776 128.442,312.629 129.029 M216.500 129.100 C 208.525 129.160,202.000 129.343,202.000 129.505 C 202.000 129.957,230.513 129.647,230.970 129.190 C 231.185 128.975,231.279 128.843,231.180 128.895 C 231.081 128.947,224.475 129.039,216.500 129.100 M154.100 129.499 C 158.225 129.564,164.975 129.564,169.100 129.499 C 173.225 129.434,169.850 129.381,161.600 129.381 C 153.350 129.381,149.975 129.434,154.100 129.499 M176.598 208.967 C 176.600 278.981,176.669 288.156,177.200 288.332 C 177.692 288.495,177.710 288.422,177.301 287.925 C 176.907 287.448,176.780 270.772,176.699 208.560 L 176.597 129.800 176.598 208.967 M267.862 135.800 C 267.996 136.680,268.172 137.475,268.253 137.567 C 268.556 137.910,268.329 135.768,267.981 135.000 C 267.729 134.442,267.693 134.685,267.862 135.800 M311.000 136.800 C 310.850 137.273,310.817 137.750,310.927 137.860 C 311.037 137.970,311.250 137.673,311.400 137.200 C 311.550 136.727,311.583 136.250,311.473 136.140 C 311.363 136.030,311.150 136.327,311.000 136.800 M333.849 136.615 C 333.712 136.973,333.621 137.746,333.646 138.333 C 333.680 139.132,333.770 138.998,334.004 137.800 C 334.335 136.100,334.262 135.540,333.849 136.615 M268.868 140.600 C 268.862 141.040,269.011 141.760,269.200 142.200 C 269.638 143.219,269.638 142.168,269.200 140.800 C 268.943 139.996,268.877 139.957,268.868 140.600 M332.054 145.067 C 332.025 145.544,331.896 146.264,331.770 146.667 C 331.552 147.361,331.564 147.362,331.996 146.688 C 332.247 146.297,332.375 145.577,332.281 145.088 C 332.109 144.201,332.109 144.201,332.054 145.067 M308.667 148.267 C 308.520 148.413,308.411 148.908,308.425 149.367 C 308.449 150.133,308.482 150.123,308.834 149.242 C 309.226 148.263,309.144 147.789,308.667 148.267 M331.254 148.667 C 331.225 149.144,331.096 149.864,330.970 150.267 C 330.752 150.961,330.764 150.962,331.196 150.288 C 331.447 149.897,331.575 149.177,331.481 148.688 C 331.309 147.801,331.309 147.801,331.254 148.667 M247.858 152.400 C 248.175 154.125,248.402 154.451,248.394 153.167 C 248.391 152.635,248.211 151.930,247.994 151.600 C 247.718 151.178,247.677 151.415,247.858 152.400 M271.256 152.000 C 271.256 152.330,271.411 152.960,271.600 153.400 C 271.817 153.904,271.944 153.978,271.944 153.600 C 271.944 153.270,271.789 152.640,271.600 152.200 C 271.383 151.696,271.256 151.622,271.256 152.000 M307.873 152.153 C 307.723 152.545,307.611 153.166,307.625 153.533 C 307.642 153.975,307.781 153.874,308.037 153.234 C 308.249 152.703,308.361 152.082,308.285 151.854 C 308.209 151.627,308.024 151.761,307.873 152.153 M330.446 152.467 C 330.421 152.834,330.296 153.464,330.170 153.867 C 329.952 154.562,329.963 154.563,330.397 153.887 C 330.648 153.496,330.773 152.866,330.673 152.487 C 330.511 151.868,330.488 151.866,330.446 152.467 M248.644 155.800 C 248.973 157.271,249.202 157.590,249.194 156.567 C 249.191 156.145,249.005 155.530,248.782 155.200 C 248.485 154.762,248.448 154.924,248.644 155.800 M272.056 155.600 C 272.056 155.930,272.211 156.560,272.400 157.000 C 272.617 157.504,272.744 157.578,272.744 157.200 C 272.744 156.870,272.589 156.240,272.400 155.800 C 272.183 155.296,272.056 155.222,272.056 155.600 M329.646 156.067 C 329.621 156.434,329.496 157.064,329.370 157.467 C 329.152 158.162,329.163 158.163,329.597 157.487 C 329.848 157.096,329.973 156.466,329.873 156.087 C 329.711 155.468,329.688 155.466,329.646 156.067 M92.600 159.592 C 92.127 159.790,93.027 159.838,94.800 159.709 C 96.450 159.588,97.875 159.424,97.967 159.345 C 98.314 159.043,93.363 159.272,92.600 159.592 M99.400 159.399 C 100.398 159.737,105.266 159.888,104.756 159.565 C 104.450 159.371,103.030 159.224,101.600 159.238 C 100.170 159.252,99.180 159.324,99.400 159.399 M306.249 160.215 C 306.112 160.573,306.015 161.166,306.034 161.533 C 306.053 161.900,306.227 161.669,306.421 161.020 C 306.798 159.758,306.665 159.133,306.249 160.215 M87.200 160.418 C 86.762 160.715,86.924 160.752,87.800 160.556 C 89.271 160.227,89.590 159.998,88.567 160.006 C 88.145 160.009,87.530 160.195,87.200 160.418 M250.406 163.833 C 250.409 164.475,250.584 165.270,250.795 165.600 C 251.055 166.009,251.099 165.690,250.932 164.600 C 250.629 162.623,250.398 162.286,250.406 163.833 M305.449 163.815 C 305.312 164.173,305.216 164.856,305.236 165.333 C 305.262 165.947,305.385 165.808,305.659 164.856 C 306.057 163.472,305.894 162.658,305.449 163.815 M120.000 164.464 C 121.926 166.395,125.232 169.198,124.000 167.855 C 123.230 167.016,121.880 165.774,121.000 165.096 C 120.120 164.418,119.670 164.133,120.000 164.464 M73.200 166.836 C 72.536 167.379,72.469 167.515,73.000 167.240 C 74.305 166.566,75.028 166.012,74.600 166.015 C 74.380 166.017,73.750 166.386,73.200 166.836 M304.649 167.815 C 304.512 168.173,304.415 168.766,304.434 169.133 C 304.453 169.500,304.627 169.269,304.821 168.620 C 305.198 167.358,305.065 166.733,304.649 167.815 M252.006 171.233 C 252.009 171.765,252.189 172.470,252.406 172.800 C 252.682 173.222,252.723 172.985,252.542 172.000 C 252.225 170.275,251.998 169.949,252.006 171.233 M303.856 171.684 C 303.721 172.188,303.627 172.960,303.646 173.400 C 303.665 173.840,303.845 173.498,304.046 172.640 C 304.436 170.978,304.270 170.140,303.856 171.684 M67.853 173.191 C 67.274 174.067,66.800 174.917,66.800 175.080 C 66.800 175.244,67.042 175.023,67.339 174.589 C 68.641 172.681,69.278 171.600,69.099 171.600 C 68.993 171.600,68.432 172.316,67.853 173.191 M252.806 174.833 C 252.809 175.365,252.989 176.070,253.206 176.400 C 253.482 176.822,253.523 176.585,253.342 175.600 C 253.025 173.875,252.798 173.549,252.806 174.833 M303.049 175.415 C 302.912 175.773,302.821 176.546,302.846 177.133 C 302.880 177.932,302.970 177.798,303.204 176.600 C 303.535 174.900,303.462 174.340,303.049 175.415 M97.305 177.487 C 97.914 177.579,98.814 177.577,99.305 177.482 C 99.797 177.387,99.300 177.311,98.200 177.314 C 97.100 177.317,96.697 177.395,97.305 177.487 M89.944 179.623 C 89.202 180.269,89.171 180.358,89.800 180.036 C 91.157 179.342,91.822 178.813,91.344 178.806 C 91.094 178.803,90.464 179.170,89.944 179.623 M302.249 179.415 C 302.112 179.773,302.018 180.456,302.041 180.933 C 302.067 181.481,302.203 181.286,302.410 180.403 C 302.760 178.916,302.665 178.333,302.249 179.415 M254.400 182.110 C 254.400 182.683,254.587 183.268,254.816 183.410 C 255.089 183.579,255.138 183.277,254.960 182.534 C 254.592 181.001,254.400 180.856,254.400 182.110 M131.858 184.400 C 132.175 186.125,132.402 186.451,132.394 185.167 C 132.391 184.635,132.211 183.930,131.994 183.600 C 131.718 183.178,131.677 183.415,131.858 184.400 M255.206 185.433 C 255.209 185.855,255.395 186.470,255.618 186.800 C 255.915 187.238,255.952 187.076,255.756 186.200 C 255.427 184.729,255.198 184.410,255.206 185.433 M86.249 185.815 C 86.112 186.173,86.018 186.856,86.041 187.333 C 86.067 187.881,86.203 187.686,86.410 186.803 C 86.760 185.316,86.665 184.733,86.249 185.815 M62.629 186.629 C 62.481 187.215,62.438 187.772,62.532 187.866 C 62.627 187.960,62.824 187.558,62.971 186.971 C 63.119 186.385,63.162 185.828,63.068 185.734 C 62.973 185.640,62.776 186.042,62.629 186.629 M132.682 188.821 C 132.808 189.799,132.975 190.675,133.055 190.767 C 133.381 191.142,133.160 188.155,132.821 187.621 C 132.584 187.246,132.535 187.670,132.682 188.821 M110.075 189.000 C 110.065 189.660,110.211 190.560,110.400 191.000 L 110.744 191.800 110.725 191.000 C 110.714 190.560,110.568 189.660,110.400 189.000 L 110.095 187.800 110.075 189.000 M256.006 189.033 C 256.009 189.455,256.195 190.070,256.418 190.400 C 256.715 190.838,256.752 190.676,256.556 189.800 C 256.227 188.329,255.998 188.010,256.006 189.033 M279.458 190.000 C 279.775 191.725,280.002 192.051,279.994 190.767 C 279.991 190.235,279.811 189.530,279.594 189.200 C 279.318 188.778,279.277 189.015,279.458 190.000 M61.849 191.015 C 61.712 191.373,61.616 192.056,61.636 192.533 C 61.662 193.147,61.785 193.008,62.059 192.056 C 62.457 190.672,62.294 189.858,61.849 191.015 M85.324 193.000 C 85.326 194.320,85.401 194.812,85.490 194.093 C 85.579 193.374,85.577 192.294,85.486 191.693 C 85.395 191.092,85.322 191.680,85.324 193.000 M299.649 192.600 C 299.616 193.040,299.496 193.850,299.383 194.400 L 299.177 195.400 299.606 194.419 C 299.842 193.879,299.961 193.069,299.872 192.619 C 299.713 191.821,299.707 191.821,299.649 192.600 M280.240 193.866 C 280.608 195.399,280.800 195.544,280.800 194.290 C 280.800 193.717,280.613 193.132,280.384 192.990 C 280.111 192.821,280.062 193.123,280.240 193.866 M133.720 196.400 C 133.720 197.610,133.795 198.105,133.887 197.500 C 133.978 196.895,133.978 195.905,133.887 195.300 C 133.795 194.695,133.720 195.190,133.720 196.400 M84.924 197.800 C 84.926 199.120,85.001 199.612,85.090 198.893 C 85.179 198.174,85.177 197.094,85.086 196.493 C 84.995 195.892,84.922 196.480,84.924 197.800 M61.056 197.284 C 60.921 197.788,60.830 198.920,60.854 199.800 C 60.892 201.178,60.946 201.071,61.243 199.028 C 61.598 196.599,61.495 195.646,61.056 197.284 M281.058 197.600 C 281.375 199.325,281.602 199.651,281.594 198.367 C 281.591 197.835,281.411 197.130,281.194 196.800 C 280.918 196.378,280.877 196.615,281.058 197.600 M134.101 200.600 C 134.105 201.480,134.187 201.793,134.283 201.295 C 134.379 200.798,134.375 200.078,134.275 199.695 C 134.175 199.313,134.096 199.720,134.101 200.600 M110.960 205.800 C 110.961 209.100,111.022 210.397,111.098 208.682 C 111.173 206.967,111.172 204.267,111.097 202.682 C 111.021 201.097,110.959 202.500,110.960 205.800 M281.858 201.200 C 282.175 202.925,282.402 203.251,282.394 201.967 C 282.391 201.435,282.211 200.730,281.994 200.400 C 281.718 199.978,281.677 200.215,281.858 201.200 M84.550 207.400 C 84.551 209.820,84.616 210.758,84.696 209.485 C 84.776 208.212,84.775 206.232,84.694 205.085 C 84.614 203.938,84.549 204.980,84.550 207.400 M134.576 214.200 C 134.576 220.360,134.632 222.824,134.699 219.676 C 134.767 216.527,134.767 211.487,134.699 208.476 C 134.631 205.464,134.576 208.040,134.576 214.200 M282.658 204.800 C 282.975 206.525,283.202 206.851,283.194 205.567 C 283.191 205.035,283.011 204.330,282.794 204.000 C 282.518 203.578,282.477 203.815,282.658 204.800 M297.029 205.429 C 296.881 206.015,296.838 206.572,296.932 206.666 C 297.027 206.760,297.224 206.358,297.371 205.771 C 297.519 205.185,297.562 204.628,297.468 204.534 C 297.373 204.440,297.176 204.842,297.029 205.429 M260.028 207.076 C 260.013 207.558,260.180 208.064,260.400 208.200 C 260.873 208.492,260.873 208.101,260.400 207.000 C 260.069 206.229,260.055 206.231,260.028 207.076 M283.462 208.600 C 283.596 209.480,283.772 210.275,283.853 210.367 C 284.156 210.710,283.929 208.568,283.581 207.800 C 283.329 207.242,283.293 207.485,283.462 208.600 M284.262 212.200 C 284.396 213.080,284.572 213.875,284.653 213.967 C 284.956 214.310,284.729 212.168,284.381 211.400 C 284.129 210.842,284.093 211.085,284.262 212.200 M91.325 212.299 C 95.024 212.366,100.964 212.365,104.525 212.299 C 108.086 212.233,105.060 212.179,97.800 212.179 C 90.540 212.179,87.626 212.233,91.325 212.299 M285.073 216.000 C 285.204 216.990,285.376 217.875,285.456 217.967 C 285.757 218.314,285.528 215.764,285.190 215.000 C 284.953 214.466,284.914 214.798,285.073 216.000 M316.454 215.867 C 316.425 216.344,316.296 217.064,316.170 217.467 C 315.952 218.161,315.964 218.162,316.396 217.488 C 316.647 217.097,316.775 216.377,316.681 215.888 C 316.509 215.001,316.509 215.001,316.454 215.867 M315.654 219.467 C 315.625 219.944,315.496 220.664,315.370 221.067 C 315.152 221.761,315.164 221.762,315.596 221.088 C 315.847 220.697,315.975 219.977,315.881 219.488 C 315.709 218.601,315.709 218.601,315.654 219.467 M264.262 225.800 C 264.396 226.680,264.572 227.475,264.653 227.567 C 264.956 227.910,264.729 225.768,264.381 225.000 C 264.129 224.442,264.093 224.685,264.262 225.800 M293.067 224.667 C 292.920 224.813,292.811 225.308,292.825 225.767 C 292.849 226.533,292.882 226.523,293.234 225.642 C 293.626 224.663,293.544 224.189,293.067 224.667 M84.582 225.703 C 84.475 225.980,84.439 231.965,84.500 239.003 L 84.612 251.800 84.706 238.703 L 84.800 225.606 109.500 225.500 L 134.200 225.394 109.487 225.297 C 89.924 225.220,84.735 225.305,84.582 225.703 M314.054 226.667 C 314.025 227.144,313.896 227.864,313.770 228.267 C 313.552 228.961,313.564 228.962,313.996 228.288 C 314.247 227.897,314.375 227.177,314.281 226.688 C 314.109 225.801,314.109 225.801,314.054 226.667 M264.868 228.400 C 264.888 229.439,265.518 231.146,265.532 230.200 C 265.538 229.760,265.389 229.040,265.200 228.600 C 264.989 228.110,264.861 228.032,264.868 228.400 M287.656 228.400 C 287.656 228.730,287.811 229.360,288.000 229.800 C 288.217 230.304,288.344 230.378,288.344 230.000 C 288.344 229.670,288.189 229.040,288.000 228.600 C 287.783 228.096,287.656 228.022,287.656 228.400 M313.246 230.267 C 313.221 230.524,313.084 231.064,312.941 231.467 C 312.740 232.036,312.794 232.097,313.179 231.742 C 313.452 231.491,313.589 230.951,313.484 230.542 C 313.379 230.134,313.272 230.010,313.246 230.267 M288.456 232.000 C 288.456 232.330,288.611 232.960,288.800 233.400 C 289.017 233.904,289.144 233.978,289.144 233.600 C 289.144 233.270,288.989 232.640,288.800 232.200 C 288.583 231.696,288.456 231.622,288.456 232.000 M291.449 232.615 C 291.312 232.973,291.215 233.566,291.234 233.933 C 291.253 234.300,291.427 234.069,291.621 233.420 C 291.998 232.158,291.865 231.533,291.449 232.615 M312.446 233.667 C 312.421 234.034,312.296 234.664,312.170 235.067 C 311.952 235.762,311.963 235.763,312.397 235.087 C 312.648 234.696,312.773 234.066,312.673 233.687 C 312.511 233.068,312.488 233.066,312.446 233.667 M311.646 237.467 C 311.621 237.724,311.484 238.264,311.341 238.667 C 311.140 239.236,311.194 239.297,311.579 238.942 C 311.852 238.691,311.989 238.151,311.884 237.742 C 311.779 237.334,311.672 237.210,311.646 237.467 M310.846 241.067 C 310.821 241.324,310.684 241.864,310.541 242.267 C 310.340 242.836,310.394 242.897,310.779 242.542 C 311.052 242.291,311.189 241.751,311.084 241.342 C 310.979 240.934,310.872 240.810,310.846 241.067 M110.972 244.128 C 110.861 244.419,110.823 246.444,110.888 248.628 L 111.006 252.600 111.203 248.099 C 111.398 243.645,111.366 243.101,110.972 244.128 M134.397 247.518 L 134.594 251.400 134.714 247.836 C 134.779 245.877,134.691 244.130,134.516 243.955 C 134.342 243.780,134.289 245.383,134.397 247.518 M269.206 248.233 C 269.209 248.655,269.395 249.270,269.618 249.600 C 269.915 250.038,269.952 249.876,269.756 249.000 C 269.427 247.529,269.198 247.210,269.206 248.233 M60.886 249.200 C 60.883 249.970,61.024 251.050,61.200 251.600 C 61.650 253.004,61.665 251.537,61.223 249.400 L 60.892 247.800 60.886 249.200 M270.006 251.633 C 270.009 252.165,270.189 252.870,270.406 253.200 C 270.682 253.622,270.723 253.385,270.542 252.400 C 270.225 250.675,269.998 250.349,270.006 251.633 M308.229 252.629 C 308.081 253.215,308.038 253.772,308.132 253.866 C 308.227 253.960,308.424 253.558,308.571 252.971 C 308.719 252.385,308.762 251.828,308.668 251.734 C 308.573 251.640,308.376 252.042,308.229 252.629 M134.109 254.000 C 134.109 254.990,134.187 255.395,134.282 254.900 C 134.378 254.405,134.378 253.595,134.282 253.100 C 134.187 252.605,134.109 253.010,134.109 254.000 M84.901 255.000 C 84.905 255.880,84.987 256.193,85.083 255.695 C 85.179 255.198,85.175 254.478,85.075 254.095 C 84.975 253.713,84.896 254.120,84.901 255.000 M270.806 255.433 C 270.809 255.855,270.995 256.470,271.218 256.800 C 271.515 257.238,271.552 257.076,271.356 256.200 C 271.027 254.729,270.798 254.410,270.806 255.433 M61.668 256.600 C 61.662 257.040,61.811 257.760,62.000 258.200 C 62.438 259.219,62.438 258.168,62.000 256.800 C 61.743 255.996,61.677 255.957,61.668 256.600 M133.720 258.400 C 133.720 259.610,133.795 260.105,133.887 259.500 C 133.978 258.895,133.978 257.905,133.887 257.300 C 133.795 256.695,133.720 257.190,133.720 258.400 M85.309 258.400 C 85.309 259.390,85.387 259.795,85.482 259.300 C 85.578 258.805,85.578 257.995,85.482 257.500 C 85.387 257.005,85.309 257.410,85.309 258.400 M271.606 259.033 C 271.609 259.455,271.795 260.070,272.018 260.400 C 272.315 260.838,272.352 260.676,272.156 259.800 C 271.827 258.329,271.598 258.010,271.606 259.033 M110.256 259.684 C 110.121 260.188,110.027 260.960,110.046 261.400 C 110.065 261.840,110.245 261.498,110.446 260.640 C 110.836 258.978,110.670 258.140,110.256 259.684 M62.456 261.600 C 62.456 261.930,62.611 262.560,62.800 263.000 C 63.017 263.504,63.144 263.578,63.144 263.200 C 63.144 262.870,62.989 262.240,62.800 261.800 C 62.583 261.296,62.456 261.222,62.456 261.600 M272.406 262.633 C 272.409 263.055,272.595 263.670,272.818 264.000 C 273.115 264.438,273.152 264.276,272.956 263.400 C 272.627 261.929,272.398 261.610,272.406 262.633 M132.854 263.067 C 132.825 263.544,132.696 264.264,132.570 264.667 C 132.352 265.361,132.364 265.362,132.796 264.688 C 133.047 264.297,133.175 263.577,133.081 263.088 C 132.909 262.201,132.909 262.201,132.854 263.067 M305.800 263.600 C 305.650 264.073,305.617 264.550,305.727 264.660 C 305.837 264.770,306.050 264.473,306.200 264.000 C 306.350 263.527,306.383 263.050,306.273 262.940 C 306.163 262.830,305.950 263.127,305.800 263.600 M88.400 267.725 C 88.400 267.794,88.985 268.379,89.700 269.025 L 91.000 270.200 89.825 268.900 C 88.730 267.688,88.400 267.416,88.400 267.725 M106.000 269.660 C 105.230 270.335,104.962 270.705,105.404 270.481 C 106.135 270.111,107.947 268.378,107.562 268.416 C 107.473 268.425,106.770 268.985,106.000 269.660 M274.028 269.876 C 274.013 270.358,274.180 270.864,274.400 271.000 C 274.873 271.292,274.873 270.901,274.400 269.800 C 274.069 269.029,274.055 269.031,274.028 269.876 M91.200 270.253 C 91.200 270.523,94.055 271.678,94.248 271.486 C 94.336 271.397,93.687 271.041,92.804 270.695 C 91.922 270.348,91.200 270.149,91.200 270.253 M97.100 271.893 C 98.035 271.977,99.565 271.977,100.500 271.893 C 101.435 271.809,100.670 271.740,98.800 271.740 C 96.930 271.740,96.165 271.809,97.100 271.893 M66.800 274.520 C 66.800 274.904,68.845 278.000,69.099 278.000 C 69.278 278.000,68.641 276.919,67.339 275.011 C 67.042 274.577,66.800 274.356,66.800 274.520 M127.632 276.339 C 126.979 277.560,127.114 277.900,127.841 276.863 C 128.193 276.360,128.388 275.854,128.273 275.740 C 128.159 275.625,127.870 275.895,127.632 276.339 M302.649 277.815 C 302.512 278.173,302.418 278.856,302.441 279.333 C 302.467 279.881,302.603 279.686,302.810 278.803 C 303.160 277.316,303.065 276.733,302.649 277.815 M70.034 279.447 C 70.565 280.133,71.080 280.623,71.179 280.535 C 71.277 280.447,70.843 279.886,70.213 279.288 L 69.069 278.200 70.034 279.447 M121.078 283.813 C 119.606 285.107,120.133 285.096,121.673 283.800 C 122.327 283.250,122.713 282.806,122.531 282.813 C 122.349 282.820,121.695 283.270,121.078 283.813 M74.833 284.131 C 75.513 284.663,78.000 286.025,78.000 285.865 C 78.000 285.606,75.405 284.000,74.986 284.000 C 74.810 284.000,74.742 284.059,74.833 284.131 M300.854 286.480 C 300.825 287.074,300.485 287.744,300.100 287.968 C 299.715 288.192,299.603 288.381,299.851 288.388 C 300.608 288.408,301.272 287.297,301.085 286.322 C 300.926 285.490,300.904 285.505,300.854 286.480 M90.400 289.580 C 91.399 289.920,93.882 290.132,93.567 289.851 C 93.475 289.769,92.500 289.599,91.400 289.472 C 90.051 289.316,89.726 289.351,90.400 289.580 " stroke="none" fill="#87ecf4" fill-rule="evenodd"></path><path id="path4" d="M230.600 120.000 C 230.600 125.018,230.735 129.040,230.900 128.938 C 231.065 128.836,231.200 124.814,231.200 120.000 C 231.200 115.186,231.065 111.164,230.900 111.062 C 230.735 110.960,230.600 114.982,230.600 120.000 M201.796 208.400 C 201.796 251.850,201.843 269.625,201.900 247.900 C 201.957 226.175,201.957 190.625,201.900 168.900 C 201.843 147.175,201.796 164.950,201.796 208.400 M71.775 168.500 L 70.600 169.800 71.900 168.625 C 73.112 167.530,73.384 167.200,73.075 167.200 C 73.006 167.200,72.421 167.785,71.775 168.500 M110.934 197.200 C 110.934 198.850,111.005 199.525,111.091 198.700 C 111.178 197.875,111.178 196.525,111.091 195.700 C 111.005 194.875,110.934 195.550,110.934 197.200 M84.528 200.800 C 84.528 202.230,84.601 202.815,84.689 202.100 C 84.778 201.385,84.778 200.215,84.689 199.500 C 84.601 198.785,84.528 199.370,84.528 200.800 M60.909 202.800 C 60.909 203.790,60.987 204.195,61.082 203.700 C 61.178 203.205,61.178 202.395,61.082 201.900 C 60.987 201.405,60.909 201.810,60.909 202.800 M134.093 203.200 C 134.093 203.970,134.175 204.285,134.276 203.900 C 134.376 203.515,134.376 202.885,134.276 202.500 C 134.175 202.115,134.093 202.430,134.093 203.200 M60.934 245.200 C 60.934 246.850,61.005 247.525,61.091 246.700 C 61.178 245.875,61.178 244.525,61.091 243.700 C 61.005 242.875,60.934 243.550,60.934 245.200 M111.465 243.894 C 111.361 244.062,116.330 244.149,122.507 244.088 C 131.284 244.000,133.816 244.087,134.099 244.488 C 134.375 244.878,134.422 244.857,134.297 244.400 C 134.119 243.744,111.863 243.251,111.465 243.894 M134.101 251.000 C 134.105 251.880,134.187 252.193,134.283 251.695 C 134.379 251.198,134.375 250.478,134.275 250.095 C 134.175 249.713,134.096 250.120,134.101 251.000 M84.514 253.400 C 84.517 254.500,84.595 254.903,84.687 254.295 C 84.779 253.686,84.777 252.786,84.682 252.295 C 84.587 251.803,84.511 252.300,84.514 253.400 M110.924 254.600 C 110.926 255.920,111.001 256.412,111.090 255.693 C 111.179 254.974,111.177 253.894,111.086 253.293 C 110.995 252.692,110.922 253.280,110.924 254.600 M98.100 272.276 C 98.485 272.376,99.115 272.376,99.500 272.276 C 99.885 272.175,99.570 272.093,98.800 272.093 C 98.030 272.093,97.715 272.175,98.100 272.276 M279.146 288.107 C 279.316 288.276,284.032 288.366,289.627 288.307 L 299.800 288.199 289.319 287.999 C 283.555 287.890,278.977 287.938,279.146 288.107 M183.525 288.299 C 186.893 288.366,192.293 288.366,195.525 288.299 C 198.756 288.232,196.000 288.177,189.400 288.177 C 182.800 288.177,180.156 288.232,183.525 288.299 M95.900 289.896 C 97.275 289.974,99.525 289.974,100.900 289.896 C 102.275 289.818,101.150 289.754,98.400 289.754 C 95.650 289.754,94.525 289.818,95.900 289.896 " stroke="none" fill="#74deec" fill-rule="evenodd"></path></g></svg>